<svg width="46" height="66" viewBox="0 0 46 66" fill="none" xmlns="http://www.w3.org/2000/svg">
<path d="M43.0752 58.567C43.0752 59.0982 43.0752 59.6098 43.0752 60.1213C43.0752 61.6319 43.0769 63.1433 43.0743 64.6539C43.0735 65.2202 42.9075 65.3819 42.331 65.3819C31.3556 65.3827 20.3802 65.3827 9.40475 65.3819C8.78117 65.3819 8.64346 65.2313 8.6426 64.5333C8.64089 56.6082 8.66142 48.6831 8.61352 40.758C8.60753 39.7837 8.27564 38.8034 8.03956 37.8394C5.71976 28.3532 3.38713 18.8704 1.05792 9.38678C0.909936 8.78544 1.02541 8.59641 1.63958 8.445C3.83706 7.90354 6.03283 7.35353 8.23544 6.83346C8.58016 6.7522 8.65115 6.60336 8.64859 6.28345C8.63405 4.87207 8.64003 3.46154 8.64431 2.05016C8.64602 1.38467 8.79058 1.24353 9.44752 1.24353C20.3947 1.24353 31.341 1.24353 42.2882 1.24353C42.9341 1.24353 43.0752 1.3898 43.0752 2.057C43.0752 17.3513 43.0658 32.6464 43.0983 47.9406C43.1 48.8593 43.4097 49.784 43.6252 50.6941C44.1444 52.883 44.6927 55.0642 45.2282 57.2489C45.371 57.8323 45.2581 58.0247 44.6765 58.1719C44.1538 58.3044 43.6295 58.4302 43.0752 58.567ZM41.9418 64.2665C41.9418 43.6072 41.9418 22.9916 41.9418 2.36494C31.2093 2.36494 20.5102 2.36494 9.79737 2.36494C9.79737 23.0122 9.79737 43.6389 9.79737 64.2665C20.5273 64.2665 31.2162 64.2665 41.9418 64.2665ZM2.20499 9.4458C4.32805 18.0852 6.43913 26.6741 8.55022 35.263C8.56989 35.257 8.58957 35.2519 8.60924 35.2459C8.60924 26.1343 8.60924 17.0219 8.60924 7.87104C6.46736 8.39796 4.36911 8.91375 2.20499 9.4458ZM44.0794 57.1839C43.7646 55.9034 43.4644 54.6845 43.1642 53.4655C43.1411 53.4698 43.118 53.4732 43.0949 53.4775C43.0949 54.7734 43.0949 56.0693 43.0949 57.4089C43.4242 57.3336 43.7236 57.2651 44.0794 57.1839Z" fill="#A7A5A5" stroke="#A7A5A5" stroke-width="0.5" stroke-linejoin="round"/>
<path d="M13.0393 32.4702C13.0393 27.6381 13.0393 22.8061 13.0393 17.974C13.0393 17.2863 13.1727 17.1545 13.8639 17.1537C21.8463 17.1537 29.8279 17.1537 37.8103 17.1537C38.575 17.1537 38.7016 17.282 38.7016 18.045C38.7016 27.6663 38.7016 37.2877 38.7016 46.909C38.7016 47.6669 38.5879 47.7841 37.8462 47.7841C29.8501 47.785 21.8531 47.785 13.857 47.785C13.1556 47.785 13.0393 47.6678 13.0393 46.9655C13.0393 42.1343 13.0393 37.3022 13.0393 32.4702ZM28.0564 35.7403C28.7313 35.1792 29.3232 34.6882 29.9134 34.1955C30.3993 33.79 30.5635 33.7892 31.0519 34.2135C33.1074 35.9986 35.1612 37.7855 37.2167 39.5707C37.3176 39.658 37.4262 39.7358 37.5751 39.8521C37.5751 32.6224 37.5751 25.462 37.5751 18.2811C29.7612 18.2811 21.972 18.2811 14.1744 18.2811C14.1744 25.3919 14.1744 32.4753 14.1744 39.6272C14.3206 39.4741 14.419 39.3748 14.5122 39.2722C17.0604 36.4836 19.6069 33.6934 22.1568 30.9065C22.5802 30.4438 22.8189 30.4421 23.2594 30.8817C24.1071 31.7277 24.9565 32.572 25.7982 33.4239C26.5483 34.1835 27.2891 34.9525 28.0564 35.7403ZM37.599 46.6653C37.599 44.9297 37.6059 43.2497 37.5871 41.5697C37.5853 41.4209 37.4391 41.243 37.3125 41.1326C35.7275 39.7409 34.1339 38.3595 32.5429 36.9763C31.856 36.3793 31.1683 35.7831 30.4703 35.1783C29.8245 35.7129 29.2009 36.2313 28.5747 36.748C28.1334 37.1123 27.9246 37.1012 27.5166 36.6949C26.0334 35.216 24.5502 33.7353 23.0669 32.2563C22.96 32.1503 22.8462 32.0502 22.7359 31.9467C22.6786 31.9937 22.6418 32.0168 22.6144 32.0476C19.8473 35.0782 17.0784 38.108 14.3206 41.1472C14.2052 41.2746 14.1504 41.5013 14.1487 41.6818C14.1359 43.1924 14.141 44.703 14.1427 46.2136C14.1427 46.3642 14.1555 46.5139 14.1615 46.6644C21.9909 46.6653 29.768 46.6653 37.599 46.6653Z" fill="#A7A5A5" stroke="#A7A5A5" stroke-width="0.5" stroke-linejoin="round"/>
<path d="M26.0351 57.0026C30.088 57.0026 34.141 57.0026 38.194 57.0026C38.3285 57.0026 38.4652 56.9926 38.5975 57.0119C38.8496 57.049 38.9893 57.2147 38.9996 57.4817C39.0091 57.7525 38.8658 57.9197 38.6262 57.9808C38.51 58.0102 38.3829 57.9971 38.2608 57.9971C30.0939 57.9978 21.927 57.9978 13.76 57.9978C13.7108 57.9978 13.6623 57.9986 13.613 57.9978C13.2308 57.9909 12.9971 57.7982 13 57.4933C13.0037 57.1814 13.2235 57.0034 13.6204 57.0034C17.7579 57.0018 21.8961 57.0026 26.0351 57.0026Z" fill="#A7A5A5" stroke="#A7A5A5" stroke-width="0.5" stroke-linejoin="round"/>
<path d="M25.9794 60.9857C21.8979 60.9857 17.8156 60.9857 13.7341 60.9849C13.6119 60.9849 13.4523 61.0288 13.3743 60.9668C13.2168 60.8419 13.0145 60.6656 13.0005 60.4954C12.9887 60.3501 13.194 60.1587 13.3419 60.0369C13.4184 59.9733 13.5781 60.0112 13.7002 60.0112C21.9008 60.0104 30.1014 60.0104 38.302 60.0104C38.3998 60.0104 38.5006 60.0013 38.5955 60.0203C38.8582 60.0725 39.0098 60.2389 38.9995 60.5196C38.9899 60.7806 38.8428 60.938 38.5926 60.9759C38.4727 60.994 38.3483 60.9849 38.2254 60.9849C34.1432 60.9865 30.0609 60.9857 25.9794 60.9857Z" fill="#A7A5A5" stroke="#A7A5A5" stroke-width="0.5" stroke-linejoin="round"/>
<path d="M26.0055 51.9885C21.9244 51.9885 17.8433 51.9885 13.763 51.9885C13.2193 51.9885 12.9978 51.8469 13 51.5023C13.0022 51.157 13.2332 51.0054 13.7637 51.0054C21.9259 51.0054 30.0873 51.0062 38.2494 51.0077C38.3958 51.0077 38.5798 50.9733 38.6791 51.0498C38.8262 51.1624 39.0057 51.3637 38.9999 51.5207C38.994 51.6769 38.7946 51.8507 38.6445 51.9655C38.5636 52.0275 38.4069 51.987 38.2847 51.987C34.1912 51.9885 30.0983 51.9885 26.0055 51.9885Z" fill="#A7A5A5" stroke="#A7A5A5" stroke-width="0.5" stroke-linejoin="round"/>
<path d="M26.0359 54.0004C30.1033 54.0004 34.17 54.0004 38.2373 54.0012C38.3594 54.0012 38.4837 53.995 38.6043 54.0112C38.8587 54.0461 39.0374 54.2195 38.9933 54.4749C38.9624 54.6538 38.8028 54.8287 38.6609 54.9557C38.5859 55.023 38.4263 54.9936 38.3042 54.9936C30.1092 54.9952 21.9134 54.9952 13.7184 54.9944C13.6081 54.9944 13.4934 55.0083 13.3889 54.9812C13.1315 54.9162 12.9801 54.7343 13.0021 54.4517C13.0227 54.1916 13.1742 54.0298 13.4308 54.0074C13.5529 53.9965 13.6757 54.0012 13.7978 54.0012C17.8777 54.0004 21.9568 54.0004 26.0359 54.0004Z" fill="#A7A5A5" stroke="#A7A5A5" stroke-width="0.5" stroke-linejoin="round"/>
<path d="M39 12.9954C38.581 12.9954 38.2504 13.0105 37.9232 12.9859C37.8321 12.979 37.7061 12.8701 37.6719 12.779C37.5624 12.4928 37.4823 12.1942 37.4022 11.897C37.1954 11.132 37.0079 10.9998 36.161 11.0752C36.161 11.6984 36.161 12.3284 36.161 12.977C35.7517 12.977 35.3909 12.977 35 12.977C35 11.3669 35 9.7548 35 8.10504C35.9365 8.01464 36.8751 7.89959 37.8054 8.15982C38.3743 8.31939 38.731 8.69126 38.7796 9.30076C38.8254 9.87739 38.5502 10.2814 38.0614 10.5581C38.0128 10.5855 37.9629 10.6115 37.8841 10.654C38.7118 11.2135 38.6023 12.1771 39 12.9954ZM36.1665 10.241C36.6861 10.2267 37.2091 10.3499 37.5179 9.8274C37.6616 9.58428 37.6418 9.30487 37.4398 9.1001C37.0736 8.72824 36.6177 8.83439 36.1658 8.87068C36.1665 9.34459 36.1665 9.77124 36.1665 10.241Z" fill="#A7A5A5" stroke="#A7A5A5" stroke-width="0.5" stroke-linejoin="round"/>
<path d="M32.897 8.0007C32.897 8.30176 32.897 8.57698 32.897 8.89131C32.289 8.89131 31.6951 8.89131 31.0811 8.89131C31.0811 9.26013 31.0811 9.58913 31.0811 9.95515C31.6512 9.95515 32.2055 9.95515 32.7799 9.95515C32.7799 10.2758 32.7799 10.5601 32.7799 10.8779C32.2183 10.8779 31.664 10.8779 31.0848 10.8779C31.0848 11.2879 31.0848 11.6644 31.0848 12.0849C31.7152 12.0849 32.3494 12.0849 33 12.0849C33 12.4118 33 12.6954 33 13C31.9933 13 31.0043 13 30 13C30 11.3277 30 9.67854 30 8C30.9567 8.0007 31.9146 8.0007 32.897 8.0007Z" fill="#A7A5A5" stroke="#A7A5A5" stroke-width="0.5" stroke-linejoin="round"/>
<path d="M13 8C14.3519 8 15.6592 8 17 8C17 8.29215 17 8.57387 17 8.89246C16.1824 8.89246 15.3622 8.89246 14.5034 8.89246C14.5034 9.29034 14.5034 9.65275 14.5034 10.0632C15.2654 10.0632 16.0385 10.0632 16.8365 10.0632C16.8365 10.3824 16.8365 10.6558 16.8365 10.9772C16.0676 10.9772 15.2945 10.9772 14.4683 10.9772C14.4683 11.6763 14.4683 12.3294 14.4683 13C13.9521 13 13.4897 13 13 13C13 11.3319 13 9.68267 13 8Z" fill="#A7A5A5" stroke="#A7A5A5" stroke-width="0.5" stroke-linejoin="round"/>
<path d="M28 8.0074C27.5157 8.94256 27.0608 9.80493 26.6232 10.6791C26.5434 10.8378 26.4985 11.041 26.4932 11.226C26.4767 11.8111 26.4873 12.3969 26.4873 13C26.1329 13 25.8122 13 25.4501 13C25.4501 12.4274 25.4625 11.8652 25.4436 11.3044C25.4365 11.0964 25.3904 10.8697 25.3054 10.6888C24.8919 9.81117 24.4589 8.94672 24 8.01018C24.3963 8.01018 24.7519 7.99839 25.1063 8.02127C25.1683 8.02543 25.241 8.16754 25.2788 8.26251C25.5221 8.87324 25.7572 9.48882 26.0148 10.1536C26.2658 9.49922 26.5068 8.8982 26.7247 8.28677C26.8009 8.07187 26.8949 7.98591 27.0957 8.00186C27.3763 8.02404 27.6592 8.0074 28 8.0074Z" fill="#A7A5A5" stroke="#A7A5A5" stroke-width="0.5" stroke-linejoin="round"/>
<path d="M19 8C19.3632 8 19.6945 8 20.0602 8C20.0602 9.3483 20.0602 10.6868 20.0602 12.0721C20.7233 12.0721 21.3526 12.0721 22 12.0721C22 12.4025 22 12.687 22 13C21.005 13 20.0119 13 19 13C19 11.3387 19 9.68642 19 8Z" fill="#A7A5A5" stroke="#A7A5A5" stroke-width="0.5" stroke-linejoin="round"/>
<path d="M32.128 30.5918C30.4455 30.5969 29.0683 29.2445 29.0538 27.5722C29.0384 25.8692 30.3899 24.492 32.0938 24.4749C33.7926 24.4569 35.1817 25.823 35.1886 27.5166C35.1946 29.2197 33.8336 30.5866 32.128 30.5918ZM32.1374 29.4909C33.2101 29.484 34.0903 28.5987 34.0877 27.5286C34.0851 26.4611 33.2007 25.5801 32.1263 25.5766C31.0365 25.5732 30.141 26.4748 30.1564 27.5611C30.1717 28.6312 31.0613 29.4977 32.1374 29.4909Z" fill="#A7A5A5" stroke="#A7A5A5" stroke-width="0.5" stroke-linejoin="round"/>
</svg>
