<svg width="43" height="57" viewBox="0 0 43 57" fill="none" xmlns="http://www.w3.org/2000/svg">
<g clip-path="url(#clip0)">
<path d="M43.0009 28.5849C43.0009 37.0647 43.0028 45.5444 43.0009 54.0242C43.0009 56.2438 42.2485 57.0014 40.0614 57.0014C27.7124 57.0014 15.3652 57.0014 3.01611 56.9995C0.736194 56.9995 0.0368683 56.2894 0.0368683 53.9881C0.0368683 47.7868 0.0368683 41.5856 0.0387635 35.3843C0.0387635 35.0691 -0.0465201 34.697 0.0880385 34.4501C0.260501 34.1368 0.603531 33.7457 0.899181 33.7229C1.20241 33.7001 1.63262 34.0134 1.82972 34.302C2.00029 34.5508 1.94912 34.9704 1.94912 35.314C1.9548 41.5153 1.97375 47.7166 1.93017 53.9178C1.92448 54.8577 2.22202 55.0704 3.10897 55.0685C15.3936 55.0438 27.6782 55.0438 39.9648 55.0685C40.829 55.0704 41.0829 54.8292 41.081 53.9501C41.0564 36.9602 41.0564 19.9685 41.0829 2.9786C41.0848 2.11467 40.81 1.93429 40.0027 1.93429C27.6858 1.95708 15.369 1.95708 3.05212 1.9305C2.19928 1.9286 1.92827 2.13936 1.93206 3.03366C1.96617 11.164 1.95291 19.2963 1.95291 27.4286C1.95291 27.7438 2.04956 28.1406 1.89795 28.3571C1.66294 28.697 1.2479 29.1356 0.921923 29.1242C0.620588 29.1147 0.254815 28.6115 0.0747722 28.247C-0.0635768 27.9659 0.0387635 27.5653 0.0387635 27.2159C0.0387635 19.1159 0.0387635 11.0159 0.0387635 2.91594C0.0387635 0.721003 0.736194 0.00138326 2.91377 0.00138326C15.3254 -0.00241421 27.737 -0.00241421 40.1486 0.00138326C42.2485 0.00138326 42.9971 0.743788 42.999 2.86088C43.0047 11.4356 43.0009 20.0102 43.0009 28.5849Z" fill="#A7A5A5"/>
<path d="M21.4953 33.207C17.4869 33.207 13.4786 33.207 9.47028 33.207C7.9617 33.207 7.81578 33.0665 7.81578 31.6082C7.81388 23.5443 7.81388 15.4823 7.81578 7.41839C7.81578 5.86333 7.92191 5.7627 9.4987 5.7627C17.5476 5.7627 25.5946 5.7627 33.6434 5.7627C35.0686 5.7627 35.1975 5.89371 35.1975 7.35383C35.1994 15.4481 35.1975 23.5424 35.1975 31.6386C35.1975 33.0627 35.0478 33.207 33.615 33.207C29.5745 33.2089 25.5339 33.207 21.4953 33.207ZM33.2284 7.73358C25.3937 7.73358 17.612 7.73358 9.78867 7.73358C9.78867 15.5829 9.78867 23.3791 9.78867 31.2171C17.6234 31.2171 25.4032 31.2171 33.2284 31.2171C33.2284 23.3658 33.2284 15.5715 33.2284 7.73358Z" fill="#A7A5A5"/>
<path d="M21.5976 48.5223C24.4385 48.5223 27.2813 48.5204 30.1222 48.5223C30.3742 48.5223 30.704 48.4388 30.8632 48.566C31.1987 48.8356 31.627 49.1964 31.6668 49.5571C31.6971 49.84 31.2479 50.254 30.9201 50.4704C30.6926 50.6204 30.3079 50.5521 29.9952 50.5521C24.3115 50.5559 18.6278 50.5559 12.9461 50.5521C12.6637 50.5521 12.3112 50.6185 12.1141 50.4799C11.7881 50.2483 11.3257 49.8552 11.3503 49.5666C11.3825 49.2078 11.8052 48.828 12.1463 48.5736C12.332 48.4331 12.6959 48.5223 12.9802 48.5223C15.8514 48.5223 18.7245 48.5223 21.5976 48.5223Z" fill="#A7A5A5"/>
<path d="M21.4896 46.052C18.6165 46.052 15.7434 46.052 12.8703 46.0501C12.6182 46.0501 12.2827 46.1355 12.1311 46.0064C11.8014 45.7311 11.3806 45.3589 11.3503 44.9982C11.3276 44.7153 11.7938 44.326 12.1217 44.102C12.3206 43.9653 12.6732 44.0393 12.9555 44.0393C18.6695 44.0374 24.3854 44.0374 30.0994 44.0393C30.2567 44.0393 30.4159 44.0355 30.5732 44.0412C31.2271 44.0602 31.7085 44.3488 31.7066 45.0418C31.7047 45.7235 31.2498 46.0406 30.5827 46.0501C30.3307 46.0539 30.0767 46.0539 29.8246 46.0539C27.0463 46.052 24.2679 46.052 21.4896 46.052Z" fill="#A7A5A5"/>
<path d="M21.518 37.8836C22.7802 37.8836 24.0424 37.895 25.3027 37.8798C26.0058 37.8703 26.5194 38.1437 26.5403 38.8728C26.5611 39.6266 26.002 39.8981 25.3311 39.9019C22.7764 39.9133 20.2217 39.9114 17.6651 39.9019C16.9828 39.9 16.4484 39.6019 16.4806 38.8538C16.5109 38.1209 17.0302 37.8684 17.7314 37.8798C18.9955 37.8987 20.2577 37.8836 21.518 37.8836Z" fill="#A7A5A5"/>
</g>
<defs>
<clipPath id="clip0">
<rect width="43" height="57" fill="white"/>
</clipPath>
</defs>
</svg>
