<svg width="38" height="38" viewBox="0 0 38 38" fill="none" xmlns="http://www.w3.org/2000/svg">
<g clip-path="url(#clip0)">
<path d="M0 18.9981C0 13.1466 0 7.29504 0 1.4435C0 0.342737 0.348739 0 1.46245 0C13.1596 0 24.8554 0 36.5525 0C37.6413 0 37.9812 0.337733 37.9812 1.41723C37.98 6.7384 38.0387 12.0596 37.9588 17.3795C37.88 22.5768 36.0713 27.1412 32.5814 31.0202C29.5015 34.4438 25.7104 36.6441 21.2006 37.5447C19.8956 37.8049 18.5481 37.96 17.2182 37.9725C11.9321 38.02 6.64478 37.9925 1.35746 37.9925C0.374988 37.9925 0.00249992 37.626 0.00249992 36.6466C0 30.7625 0 24.8797 0 18.9981ZM2.05618 35.9611C2.24743 35.9611 2.39992 35.9611 2.55242 35.9611C5.84356 35.9611 9.13345 35.9673 12.4246 35.9561C13.1708 35.9536 13.9208 35.9248 14.6633 35.8535C17.5569 35.5721 19.4344 33.8309 19.8131 30.9501C19.9868 29.628 19.9643 28.2758 19.9831 26.9374C20.0093 25.0335 19.9843 23.1297 19.9918 21.2259C19.9956 20.3741 20.3593 20.0176 21.2143 19.9926C21.4018 19.9876 21.588 19.9926 21.7755 19.9913C24.5967 19.9713 27.4203 19.9938 30.2403 19.9138C31.664 19.8737 33.0039 19.4322 34.0876 18.4415C35.4513 17.1956 35.8888 15.5382 35.9151 13.7908C35.9713 10.0307 35.9388 6.26933 35.9413 2.50923C35.9413 2.35913 35.9263 2.21028 35.9188 2.06518C24.6079 2.06518 13.3408 2.06518 2.05743 2.06518C2.05618 13.3567 2.05618 24.6195 2.05618 35.9611ZM21.993 22.039C21.993 22.2391 21.993 22.4067 21.993 22.5731C21.988 24.9748 22.018 27.3764 21.968 29.7768C21.9293 31.6444 21.468 33.4093 20.3468 34.9491C20.1581 35.2081 19.9431 35.4482 19.6756 35.7772C24.5504 35.0292 28.4441 32.7639 31.584 29.1251C33.6389 26.7447 35.9101 21.6312 35.6838 19.7461C35.6251 19.7899 35.5751 19.8212 35.5301 19.8612C33.8314 21.3948 31.7765 21.9439 29.5565 21.9764C27.2041 22.0115 24.8504 22.0014 22.498 22.0115C22.3455 22.0152 22.1943 22.029 21.993 22.039Z" fill="#A7A5A5"/>
</g>
<defs>
<clipPath id="clip0">
<rect width="38" height="38" fill="white"/>
</clipPath>
</defs>
</svg>
