<svg width="42" height="31" viewBox="0 0 42 31" fill="none" xmlns="http://www.w3.org/2000/svg">
<g clip-path="url(#clip0)">
<path d="M20.9866 30.9988C15.6418 30.9988 10.2964 31.0009 4.95161 30.9978C2.67605 30.9967 0.796285 29.6313 0.190519 27.5233C0.0776591 27.1298 0.0109933 26.7083 0.0104684 26.2998C-3.01643e-05 19.1029 -0.0026548 11.9066 0.00521911 4.70971C0.00784375 2.14091 2.1296 0.0661018 4.78311 0.00241274C4.85293 0.000859344 4.92327 0.000859344 4.99308 0.000859344C15.6654 0.000859344 26.3382 -0.00328303 37.0105 0.00448392C39.0934 0.00603732 40.6231 0.939108 41.5553 2.78454C41.8598 3.38673 41.9973 4.03812 41.9973 4.71178C41.9989 11.8998 42.0036 19.0879 41.9958 26.276C41.9931 28.9105 39.8131 30.9946 37.0735 30.9967C31.7114 31.0019 26.3487 30.9988 20.9866 30.9988ZM21.0008 29.1917C26.355 29.1917 31.7088 29.1922 37.063 29.1912C38.8551 29.1906 40.1643 27.9075 40.1648 26.1393C40.1674 19.046 40.1674 11.9521 40.1648 4.85883C40.1643 3.09055 38.8551 1.80797 37.0625 1.80797C26.3545 1.80745 15.6465 1.80745 4.93796 1.80797C3.14586 1.80797 1.83669 3.09159 1.83617 4.85935C1.83354 11.9527 1.83512 19.0465 1.83669 26.1398C1.83669 26.3205 1.83879 26.5043 1.87134 26.6809C2.15112 28.2022 3.36161 29.1906 4.93901 29.1912C10.2928 29.1917 15.647 29.1917 21.0008 29.1917Z" fill="#A7A5A5"/>
<path d="M14.9835 16.3304C15.4014 16.4867 15.8024 16.61 16.1799 16.7834C18.8176 17.9935 20.4874 19.9845 21.1168 22.7992C21.248 23.3869 20.952 23.8659 20.4223 23.9679C19.8869 24.0714 19.4612 23.7494 19.3195 23.1549C18.688 20.5105 17.0528 18.7661 14.4014 18.0551C10.6812 17.0579 6.90963 19.3735 6.08707 23.0866C6.07762 23.1285 6.06397 23.1694 6.05347 23.2114C5.91752 23.7483 5.46608 24.0585 4.9737 23.9534C4.44982 23.841 4.15638 23.3641 4.27712 22.8028C4.74903 20.61 5.92591 18.8738 7.77786 17.5814C8.50384 17.0744 9.29858 16.7006 10.1479 16.4391C10.2298 16.4137 10.3112 16.3853 10.435 16.3443C8.69858 15.3466 7.72379 13.9148 7.70227 11.9389C7.68705 10.5502 8.2188 9.3634 9.22614 8.39564C11.277 6.42698 14.5573 6.55487 16.4596 8.6882C17.5252 9.88327 17.9121 11.2932 17.6176 12.8534C17.321 14.4166 16.3935 15.549 14.9835 16.3304ZM12.7153 15.083C14.4681 15.0768 15.889 13.6798 15.8938 11.9565C15.899 10.2302 14.457 8.81247 12.7006 8.81609C10.9531 8.81972 9.52797 10.2229 9.52325 11.9446C9.51852 13.6735 10.9573 15.0887 12.7153 15.083Z" fill="#A7A5A5"/>
<path d="M31.8516 22.2214C30.2348 22.2214 28.6175 22.2183 27.0007 22.2234C26.6432 22.2245 26.3477 22.123 26.1414 21.8242C25.7503 21.2588 26.1178 20.493 26.8086 20.4324C26.8779 20.4262 26.9482 20.4262 27.018 20.4262C30.2521 20.4257 33.4862 20.4257 36.7203 20.4262C37.3129 20.4262 37.705 20.74 37.7475 21.2401C37.7932 21.774 37.3974 22.2115 36.8342 22.2162C35.7155 22.226 34.5964 22.2203 33.4778 22.2209C32.9355 22.2219 32.3938 22.2214 31.8516 22.2214Z" fill="#A7A5A5"/>
<path d="M30.2542 15.1115C31.3655 15.1115 32.4762 15.1089 33.5875 15.113C33.9822 15.1146 34.2809 15.2943 34.4395 15.6531C34.5922 15.9995 34.5366 16.3304 34.282 16.6172C34.0988 16.8238 33.8573 16.9186 33.5822 16.9191C31.3602 16.9207 29.1382 16.9243 26.9157 16.9165C26.3703 16.9144 25.9761 16.5069 25.9829 15.999C25.9897 15.4962 26.3981 15.1141 26.9466 15.112C28.0495 15.1084 29.1519 15.1115 30.2542 15.1115Z" fill="#A7A5A5"/>
<path d="M30.2379 11.6127C29.1356 11.6127 28.0338 11.6127 26.9314 11.6127C26.5461 11.6127 26.2553 11.4486 26.0815 11.1089C25.9172 10.7878 25.9493 10.4699 26.1619 10.18C26.3556 9.91536 26.6311 9.80818 26.9587 9.80922C27.7282 9.8118 28.4983 9.80973 29.2679 9.80973C30.6936 9.80973 32.1198 9.80559 33.5455 9.81232C34.2048 9.81543 34.6279 10.3182 34.4941 10.9168C34.4001 11.3388 34.0395 11.6091 33.5445 11.6111C32.4421 11.6153 31.3398 11.6127 30.2379 11.6127Z" fill="#A7A5A5"/>
</g>
<defs>
<clipPath id="clip0">
<rect width="42" height="31" fill="white"/>
</clipPath>
</defs>
</svg>
