<svg version="1.1" id="Слой_1" xmlns="http://www.w3.org/2000/svg" x="0" y="0" viewBox="0 0 724 517" xml:space="preserve"><style>.st8{fill:none;stroke:#1d1d1b;stroke-width:1.5997;stroke-miterlimit:10}</style><path class="st8" d="M8.98 8.16h353.54v249.98H8.98zm0 249.98h353.54v249.98H8.98zm530.28 0h176.77v124.99H539.26z"/><path class="st8" d="M539.26 383.12h176.77v124.99H539.26z"/><path transform="rotate(90 450.93 383.124)" class="st8" d="M325.94 294.75h249.98V471.5H325.94z"/><path transform="rotate(90 450.929 133.146)" class="st8" d="M325.94 44.77h249.98v176.75H325.94z"/><path transform="rotate(90 627.645 133.146)" class="st8" d="M502.66 44.77h249.98v176.75H502.66z"/><path d="M169.22 135.74l-3.6 7.52h-4.86l13.24-26.4h5.72l3.33 26.4h-4.78l-.74-7.52h-8.31zm8.03-3.53l-.74-6.58c-.12-1.41-.27-3.45-.39-5.01h-.08c-.71 1.57-1.41 3.45-2.15 5.01l-3.21 6.58h6.57zm10.01 5.79c1.11.6 3.12 1.5 5.77 1.5 4.02 0 6.15-2.39 6.15-4.92 0-2.91-2.35-4.23-5.81-4.23h-1.24l.77-3.85h1.15c2.78 0 6.5-1.41 6.5-4.4 0-1.75-1.15-2.91-3.68-2.91-2.22 0-4.23.64-5.51 1.45l-.81-3.76c1.92-1.11 4.66-1.88 7.31-1.88 4.66 0 7.95 2.44 7.95 6.28 0 3.55-2.82 6.11-6.15 7.01l-.04.09c2.99.64 4.79 3.12 4.79 6.15 0 5.6-5.43 9.19-11.5 9.19-3.29 0-6.11-.9-7.22-1.84l1.57-3.88zm-18.04 250.5l-3.6 7.52h-4.86l13.24-26.4h5.72l3.33 26.4h-4.78l-.74-7.52h-8.31zm8.03-3.53l-.74-6.58c-.12-1.41-.27-3.45-.39-5.01h-.08c-.71 1.57-1.41 3.45-2.15 5.01l-3.21 6.58h6.57zm10.01 5.79c1.11.6 3.12 1.5 5.77 1.5 4.02 0 6.15-2.39 6.15-4.92 0-2.91-2.35-4.23-5.81-4.23h-1.24l.77-3.85h1.15c2.78 0 6.5-1.41 6.5-4.4 0-1.75-1.15-2.91-3.68-2.91-2.22 0-4.23.64-5.51 1.45l-.81-3.76c1.92-1.11 4.66-1.88 7.31-1.88 4.66 0 7.95 2.44 7.95 6.28 0 3.55-2.82 6.11-6.15 7.01l-.04.09c2.99.64 4.79 3.12 4.79 6.15 0 5.6-5.43 9.19-11.5 9.19-3.29 0-6.11-.9-7.22-1.84l1.57-3.88zm243.52-255.02l-3.6 7.52h-4.86l13.24-26.4h5.72l3.33 26.4h-4.78l-.74-7.52h-8.31zm8.03-3.53l-.74-6.58c-.12-1.41-.27-3.45-.39-5.01h-.08c-.71 1.57-1.41 3.45-2.15 5.01l-3.21 6.58h6.57zm18.94 11.05l1.37-7.14h-11.88l.64-3.33 13.93-17.31h5.9l-3.16 16.75H468l-.73 3.89h-3.46l-1.37 7.14h-4.69zm2.09-11.03l1.54-7.48c.34-1.62.81-3.38 1.2-4.96h-.17c-1.2 1.8-2.14 3.33-3.42 5.04l-5.98 7.31-.04.09h6.87zM430.78 388.5l-3.6 7.52h-4.86l13.24-26.4h5.72l3.33 26.4h-4.78l-.74-7.52h-8.31zm8.03-3.53l-.74-6.58c-.12-1.41-.27-3.45-.39-5.01h-.08c-.71 1.57-1.41 3.45-2.15 5.01l-3.21 6.58h6.57zm18.94 11.05l1.37-7.14h-11.88l.64-3.33 13.93-17.31h5.9l-3.16 16.75H468l-.73 3.89h-3.46l-1.37 7.14h-4.69zm2.09-11.03l1.54-7.48c.34-1.62.81-3.38 1.2-4.96h-.17c-1.2 1.8-2.14 3.33-3.42 5.04L453 384.9l-.04.09h6.88zm150.11-249.25l-3.6 7.52h-4.86l13.24-26.4h5.72l3.33 26.4H619l-.74-7.52h-8.31zm8.03-3.53l-.74-6.58c-.12-1.41-.27-3.45-.39-5.01h-.08c-.71 1.57-1.41 3.45-2.15 5.01l-3.21 6.58h6.57zm18.94 11.05l1.37-7.14H626.4l.64-3.33 13.93-17.31h5.9l-3.16 16.75h3.46l-.73 3.89h-3.46l-1.37 7.14h-4.69zm2.09-11.03l1.54-7.48c.34-1.62.81-3.38 1.2-4.96h-.17c-1.2 1.8-2.14 3.33-3.42 5.04l-5.98 7.31-.04.09h6.87zm-29.06 201.08l-3.6 7.52h-4.86l13.24-26.4h5.72l3.33 26.4H619l-.74-7.52h-8.31zm8.03-3.53l-.74-6.58c-.12-1.41-.27-3.45-.39-5.01h-.08c-.71 1.57-1.41 3.45-2.15 5.01l-3.21 6.58h6.57zm28.98-12.46h-9.66l-1.71 5.56c.47-.09.81-.09 1.28-.09 1.67 0 3.68.38 5.34 1.54 2.09 1.28 3.16 3.63 3.16 6.15 0 6.84-5.64 10.81-12.18 10.81-3.08 0-5.64-.81-6.67-1.58l1.37-3.97c1.07.64 3.16 1.37 5.47 1.37 3.46 0 6.84-2.31 6.84-5.73 0-2.69-1.54-4.74-6.8-4.74-1.28 0-2.18.09-3.29.17l3.93-13.76h13.76l-.84 4.27zm-37.01 124.77l-3.6 7.52h-4.86l13.24-26.4h5.72l3.33 26.4H619l-.74-7.52h-8.31zm8.03-3.53l-.74-6.58c-.12-1.41-.27-3.45-.39-5.01h-.08c-.71 1.57-1.41 3.45-2.15 5.01l-3.21 6.58h6.57zm28.98-12.46h-9.66l-1.71 5.56c.47-.09.81-.09 1.28-.09 1.67 0 3.68.38 5.34 1.54 2.09 1.28 3.16 3.63 3.16 6.15 0 6.84-5.64 10.81-12.18 10.81-3.08 0-5.64-.81-6.67-1.58l1.37-3.97c1.07.64 3.16 1.37 5.47 1.37 3.46 0 6.84-2.31 6.84-5.73 0-2.69-1.54-4.74-6.8-4.74-1.28 0-2.18.09-3.29.17l3.93-13.76h13.76l-.84 4.27z" fill="#4d4d4d"/></svg>