<svg version="1.1" id="Слой_1" xmlns="http://www.w3.org/2000/svg" x="0" y="0" viewBox="0 0 437.2 143.09" xml:space="preserve"><style>.st2{fill:#fff}.st3{fill:#ededed}</style><path class="st2" d="M17.72 34.97h28.21v99.73H17.72V34.97zm120.46 29.77c5.84 5.7 8.76 14.3 8.76 25.79v44.17h-27.07V94.95c0-10.54-4.23-15.81-12.68-15.81-4.65 0-8.38 1.52-11.18 4.56-2.8 3.04-4.2 7.6-4.2 13.68v37.33H64.74V57.48h25.79v8.41c3.04-3.13 6.65-5.53 10.83-7.19 4.18-1.66 8.74-2.49 13.68-2.49 9.58-.02 17.3 2.83 23.14 8.53z"/><path class="st3" d="M162.04 83.69h41.6v20.8h-41.6v-20.8zm57.13-54.71h27.07v105.71h-27.07V28.98zm44.59 28.5h27.07v77.22h-27.07V57.48zm74.09 2.85h18.38v20.23h-17.67v54.14h-27.07V80.56h-11.25V60.33h11.25v-1.99c0-9.4 2.82-16.86 8.48-22.37 5.65-5.51 13.56-8.26 23.72-8.26 3.42 0 6.74.33 9.97 1 3.23.67 5.89 1.66 7.98 2.99l-6.7 19.09c-2.66-1.52-5.37-2.28-8.12-2.28-2.85 0-5.06.85-6.62 2.56-1.57 1.71-2.35 4.23-2.35 7.55v1.71z"/><path class="st3" d="M419.48 131.56c-2.28 1.42-5.06 2.52-8.33 3.28-3.28.76-6.77 1.14-10.47 1.14-10.07 0-17.81-2.47-23.22-7.41-5.41-4.94-8.12-12.3-8.12-22.08V80.56h-11.25V60.33h11.25V40.24h27.07v20.09h17.67v20.23H396.4v25.64c0 2.76.74 4.92 2.21 6.48 1.47 1.57 3.44 2.35 5.91 2.35 3.13 0 5.89-.81 8.26-2.42l6.7 18.95z"/><path class="st2" d="M277.3 8.4l-20.59 20.58h41.17z"/><path class="st3" d="M277.3 52.17l20.58-20.58h-41.17z"/></svg>