<svg version="1.1" id="Слой_1" xmlns="http://www.w3.org/2000/svg" x="0" y="0" viewBox="0 0 394 297" xml:space="preserve"><style>.st0{fill:#fff}</style><path class="st0" d="M127.5 138h-3.9l-2-5.5h-8.2l-2 5.5h-3.8l8-20.7h3.9l8 20.7zm-9.9-16.9l-3.2 8.7h6.3l-3.1-8.7zm19.6-3.6c5.9-.6 8.9 7.4 3.5 9.6 2.3.6 3.7 2.4 3.7 4.8.3 8.9-15.3 8.6-14.3-.6h3.2c-.5 5.4 7.7 5.8 7.6.6 0-3-2.7-3.6-5.1-3.4V126c10.8 0-.6-12.2-2-1.9h-3.2c.1-4.1 2.6-6.6 6.6-6.6zm30.3 14.1H159v-3.1h8.5v3.1zm89.2-.4v6.8h-1.8v-8.3h5.8v1.4l-4 .1zm7.9-.3c8.3-6.7 8.6 12.6.1 6.1v4.1h-1.8v-11.3h1.7v1.1zm0 3c-.2 3.8 4.8 3.9 4.6 0 .2-3.8-4.8-3.8-4.6 0zm9.1 4.1v-8.3h1.8v3.2h3.6v-3.2h1.8v8.3h-1.8v-3.6h-3.6v3.6h-1.8zm12.7 0h-2.2v-2.2h2.2v2.2zm-158.9 44.9h-3.9l-2-5.5h-8.2l-2 5.5h-3.8l8-20.7h3.9l8 20.7zm-9.9-16.9l-3.2 8.7h6.3l-3.1-8.7zm26.9 12.1h-2.6v4.8h-3.2v-4.8H130v-3.3l8.7-12.4h3.1v12.9h2.6v2.8zm-5.8-11.6l-6 8.8h6v-8.8zm28.8 10H159v-3.1h8.5v3.1zm89.2-.4v6.8h-1.8v-8.3h5.8v1.4l-4 .1zm7.9-.3c8.3-6.7 8.6 12.6.1 6.1v4.1h-1.8v-11.3h1.7v1.1zm0 3c-.2 3.8 4.8 3.9 4.6 0 .2-3.8-4.8-3.9-4.6 0zm9.1 4.1v-8.3h1.8v3.2h3.6v-3.2h1.8v8.3h-1.8v-3.6h-3.6v3.6h-1.8zm12.7 0h-2.2v-2.2h2.2v2.2zm-158.9 44.9h-3.9l-2-5.5h-8.2l-2 5.5h-3.8l8-20.7h3.9l8 20.7zm-9.9-16.9l-3.2 8.7h6.3l-3.1-8.7zm25.6-.4h-8.1l-.9 5.2c3.9-3.6 10.5-.3 10.1 5.2.6 8.8-14 9.9-14.2 1.1h3.3c.4 5 8 4.4 7.5-1 .4-4.4-5.1-5.8-7.2-2.4l-2.9-.1 1.9-11h10.5v3zm24.3 10.9H159v-3.1h8.5v3.1zm89.2-.4v6.8h-1.8v-8.3h5.8v1.4h-4zm7.9-.3c8.3-6.7 8.6 12.6.1 6.1v4.1h-1.8v-11.3h1.7v1.1zm0 3c-.2 3.8 4.8 3.9 4.6 0 .2-3.8-4.8-3.9-4.6 0zm9.1 4.1v-8.3h1.8v3.2h3.6v-3.2h1.8v8.3h-1.8v-3.6h-3.6v3.6h-1.8zm12.7 0h-2.2v-2.2h2.2v2.2zm-125-187.3c-2.7 0-4.1-1.2-4.2-3.2h2.1c1.8 4.6 7.5-1.7 1.1-1.2v-1.5c5.7.4.8-5-.8-1h-2.1c.4-5.7 11.8-2.1 6.1 1.5 3.5 1 1.2 5.9-2.2 5.4zm10.9-9.8c7-.4 1.7 8.3 4.8 8.2v1.4c-1.2.3-2.6.5-2.9-.9-5.4 4.4-9.9-4.5-2.2-4.6 5.8-.5-1.3-5.1-1.8-1h-1.9c.2-2.3 1.7-3.1 4-3.1zm-.3 5.4c-6.2 1.5 3 6.1 2.2-.5-.7.3-1.5.4-2.2.5zm19.6 4.1h-2.2v-8.7h-3.1V30c1.4 0 3.3-.2 3.7-2.5h1.7v12.7zm11.8 0v-9.3h2.7l2.6 7.4 2.5-7.4h2.7v9.3h-2V34l-2.2 6.2h-2.1l-2.2-6.2v6.2h-2zm16-10.8h-2.1v-2h2.1v2zm0 10.8h-2.1v-9.3h2.1v9.3zm7.7.3c-6.2.3-5.9-10.2.1-9.8 2.4 0 3.9 1.3 4.1 3.4h-2c-.8-3.2-5-1.9-4.6 1.5-.4 3.6 4.2 4.6 4.7 1.2h2c-.3 2.2-2 3.7-4.3 3.7zm9.7-.3h-2.4v-2.4h2.4v2.4z"/><path class="st0" d="M269 39.2v3h97.5v224.4h-339V42.2H125v-3H24.5v230.4h345V39.2z"/><path class="st0" d="M189.8 117.3c4.1 0 6.9 2.3 6.9 5.7 0 2-1.1 3.6-2.9 4.1 2.3.6 3.6 2.3 3.6 4.7 0 3.9-3.1 6.7-7.7 6.7-4.7 0-7.6-2.8-7.6-7.2v-.3h4c0 2.5 1.3 3.9 3.5 3.9 2.1 0 3.4-1.3 3.4-3.1 0-2.3-1.8-3.1-3.7-3.1h-1v-2.9h.7c2.4 0 3.6-.9 3.6-2.6 0-1.6-1.1-2.6-2.9-2.6-1.9 0-3.1 1.2-3.1 3.5h-4c.2-4.2 2.9-6.8 7.2-6.8zm25.3 20.8H200c.1-4.8 2.6-6.6 6.3-9.1 1.8-1.2 4.4-2.6 4.4-5.1 0-1.8-1.2-3-2.9-3-2.2 0-3.2 1.4-3.4 4.5h-4v-.4c0-4.7 2.9-7.7 7.5-7.7 4.2 0 7 2.6 7 6.3 0 3.3-1.8 4.8-4.3 6.5-1.8 1.2-4.2 2.6-5.4 4.4h9.7v3.6zm18.1-10.2c0 6.5-2.8 10.5-7.5 10.5-4.8 0-7.6-3.9-7.6-10.5 0-4.9 1.7-10.6 7.6-10.6 5.9 0 7.5 5.7 7.5 10.6zm-11 .2c0 4.7 1.1 6.9 3.5 6.9 2.3 0 3.4-2.3 3.4-7.1 0-4.9-1.1-7.1-3.4-7.1-3.5 0-3.5 4.9-3.5 7.3zm28.8-.2c0 6.5-2.8 10.5-7.5 10.5-4.8 0-7.6-3.9-7.6-10.5 0-4.9 1.7-10.6 7.6-10.6 5.9 0 7.5 5.7 7.5 10.6zm-11 .2c0 4.7 1.1 6.9 3.5 6.9 2.3 0 3.4-2.3 3.4-7.1 0-4.9-1.1-7.1-3.4-7.1-3.5 0-3.5 4.9-3.5 7.3zm-42.7 54.8h-15.1c.1-4.8 2.6-6.6 6.3-9.1 1.8-1.2 4.4-2.6 4.4-5.1 0-1.8-1.2-3-2.9-3-2.2 0-3.2 1.4-3.4 4.5h-4v-.4c0-4.7 2.9-7.7 7.5-7.7 4.2 0 7 2.6 7 6.3 0 3.3-1.8 4.8-4.3 6.5-1.8 1.2-4.2 2.6-5.4 4.4h9.7v3.6zm18.2-4.7h-2.8v4.7h-3.9v-4.7H200v-3.9l8.9-12.1h3.8v12.5h2.8v3.5zm-6.7-11.1l-5.5 7.7h5.5v-7.7zm24.4 5.7c0 6.5-2.8 10.5-7.5 10.5-4.8 0-7.6-3.9-7.6-10.5 0-4.9 1.7-10.6 7.6-10.6 5.9 0 7.5 5.7 7.5 10.6zm-11 .2c0 4.7 1.1 6.9 3.5 6.9 2.3 0 3.4-2.3 3.4-7.1 0-4.9-1.1-7.1-3.4-7.1-3.5 0-3.5 4.8-3.5 7.3zm28.8-.2c0 6.5-2.8 10.5-7.5 10.5-4.8 0-7.6-3.9-7.6-10.5 0-4.9 1.7-10.6 7.6-10.6 5.9 0 7.5 5.7 7.5 10.6zm-11 .2c0 4.7 1.1 6.9 3.5 6.9 2.3 0 3.4-2.3 3.4-7.1 0-4.9-1.1-7.1-3.4-7.1-3.5 0-3.5 4.8-3.5 7.3zm-46.6 54.8H189v-13.4h-5v-3.1h.5c2.9 0 4.9-1.1 5.5-4.1h3.4v20.6zm17.6-15.2c-.4-1.5-1.3-2.3-2.8-2.3-2.3 0-3.6 2-3.9 6.1 1.1-1.5 2.7-2.3 4.6-2.3 3.8 0 6.4 2.8 6.4 6.8 0 4.3-3.1 7.3-7.3 7.3-4.9 0-7.8-3.8-7.8-10.2 0-6.8 3-10.9 8-10.9 3.7 0 6.2 2 6.7 5.5H211zm-6.3 8.4c0 2.2 1.4 3.8 3.3 3.8s3.3-1.6 3.3-3.8c0-2.2-1.4-3.8-3.4-3.8-1.8 0-3.2 1.6-3.2 3.8zm28.5-3.3c0 6.5-2.8 10.5-7.5 10.5-4.8 0-7.6-3.9-7.6-10.5 0-4.9 1.7-10.6 7.6-10.6 5.9 0 7.5 5.7 7.5 10.6zm-11 .2c0 4.7 1.1 6.9 3.5 6.9 2.3 0 3.4-2.3 3.4-7.1 0-4.9-1.1-7.1-3.4-7.1-3.5-.1-3.5 4.8-3.5 7.3zm28.8-.2c0 6.5-2.8 10.5-7.5 10.5-4.8 0-7.6-3.9-7.6-10.5 0-4.9 1.7-10.6 7.6-10.6 5.9 0 7.5 5.7 7.5 10.6zm-11 .2c0 4.7 1.1 6.9 3.5 6.9 2.3 0 3.4-2.3 3.4-7.1 0-4.9-1.1-7.1-3.4-7.1-3.5-.1-3.5 4.8-3.5 7.3z"/></svg>