<svg xmlns="http://www.w3.org/2000/svg" viewBox="0 0 556 424"><path d="M121.82 171.32l6.73 8.56.74.95.96 1.23c4.81-25.75 15.7-49.36 31.14-69.32-5.13 9.9-7.36 20.28-6.49 30.62-10.51 12.17-18.55 25.69-23.54 40.11l3.16 4.04c5-12.91 12.3-25.25 21.56-36.58 3.35 14.59 12.81 28.8 28.53 41.02-6.63 12.87-11.97 26.07-15.86 39.2l8.82 11.26c3.62-14.74 8.9-29.7 15.66-44.38 17.49 11.25 38.88 18.85 61.63 22.72-3.18 20.86-5.52 41.63-6.77 61.11-1.72-.29-3.42-.66-5.12-.98 1.68.65 3.37 1.3 5.06 1.94 4.64 1.75 9.3 3.43 13.96 5.04 5.47 1.89 10.96 3.7 16.44 5.4 22.6 1.06 45.52-.78 67.16-5.65.44 7.33.65 14.45.62 21.28v.31c4.64.73 9.21 1.34 13.75 1.88.05-1.9.11-3.79.12-5.77.01-6.83-.25-13.94-.8-21.24 14.18-4.14 27.64-9.65 39.86-16.54 10.29-5.78 19.13-12.21 26.45-19.11 1.08 7.02 1.65 13.98 1.62 20.81-.05 10.9-1.51 20.91-4.29 29.9-5.34 5-11.47 9.74-18.38 14.17 1.36-.04 2.76-.01 4.09-.07.92-.04 1.78-.12 2.7-.17 3.37-2.57 6.57-5.2 9.48-7.92-1.04 2.6-2.18 5.1-3.42 7.51.05 0 .09-.01.13-.02.92-.07 1.79-.2 2.69-.29 4.06-.41 8-.93 11.77-1.58 19.55-28.04 31.07-62.07 31.07-98.77 0-95.42-77.64-173.05-173.07-173.05-32.43 0-62.79 8.99-88.76 24.57l3.27.26-25.72 15.77c-27.77 23.39-48.13 55.35-56.95 91.78zm47.42-68c3.68-4.08 7.54-7.98 11.62-11.68 10.24-6.73 22.19-11.53 35.49-14.11-6.58 8.11-9.54 17.14-8.77 26.09-18.32 8.93-34.39 20.48-47.35 33.91-.99-11.63 2.09-23.3 9.01-34.21zm19.53 80.89c-15.11-11.74-24.2-25.39-27.41-39.4 12.83-14.16 28.78-26.6 46.91-36.56 2.05 8.94 7.86 17.62 17.47 25.1-14.29 15.48-26.84 32.79-36.97 50.86zm67.52 27.66c-21.86-3.71-42.42-11.01-59.24-21.82 9.31-18.64 20.83-36.66 33.96-52.98 10.71 6.88 23.79 11.52 37.7 13.89-4.8 19.38-9.02 40.1-12.42 60.91zm19.67-59.9c14.18 1.58 28.94.85 42.68-2.24 6.23 19.1 11.68 39.58 16.07 60.2-21.6 4.86-44.75 6.01-67.05 3.53 2.28-20.97 5.1-41.87 8.3-61.49zm-13.81 131.86c.86-19.54 2.43-40.43 4.57-61.43 23.2 2.59 47.3 1.39 69.77-3.66 4.07 20.68 7.03 41.34 8.57 60.75-26.7 5.99-55.34 7.4-82.91 4.34zm63.46-135.89c7.23-2.12 14.08-4.92 20.32-8.42 5.24-2.95 9.75-6.24 13.48-9.74 15.24 14.7 28.58 31.32 39.33 48.82-5.87 5.52-12.94 10.66-21.18 15.3-9.78 5.51-20.55 9.92-31.91 13.24-5.46-20.37-12.26-40.48-20.04-59.2zm85.88-43.82c4.06 6.49 6.74 13.22 8.02 20.02-12.8-12.1-28.72-21.98-46.87-29.04-1.7-8.94-7.12-17.7-16.35-25.29 7.39.74 14.33 2.42 20.71 4.95a163.749 163.749 0 0134.49 29.36zm8.87 27.28c.63 14.06-4.56 28.16-15.46 40.78-11.35-16.86-25.46-32.69-41.57-46.49 6.93-8.04 10.24-17.01 9.84-25.97 18.28 8.08 34.3 18.86 47.19 31.68zm-22.31 128.22c-12.1 6.82-25.41 12.26-39.44 16.38-1.91-19.31-5.63-39.78-10.71-60.2 11.82-3.44 23.03-8.04 33.21-13.77 8.58-4.82 15.93-10.18 22.04-15.92 10.01 17.78 17.28 36.32 21.1 54.62-7.29 6.8-16.01 13.16-26.2 18.89zm11.51-80.19c11.34-13.14 16.75-27.81 16.09-42.45 9.68 10.81 17.19 22.9 22.14 35.87 1.31 5.25 2.35 10.58 3.12 16-.88 15.22-7.28 30.28-19.08 43.93-4.01-18.05-11.69-36.16-22.27-53.35zm25.19 106.46c-1.34 1.81-2.72 3.62-4.26 5.4 2.95-9.15 4.51-19.23 4.54-30.16.02-6.84-.56-13.76-1.71-20.7 10.82-12.52 17.05-26.22 18.8-40.13.28 3.87.47 7.76.47 11.7 0 26.6-6.47 51.7-17.84 73.89zm6.07-134.51c-4.36-7.85-9.74-15.21-16.05-21.95-1.02-5.43-2.95-10.83-5.68-16.1a162.796 162.796 0 0121.73 38.05zM296.25 80.37c.15.11.3.21.43.32 19.14-8.16 37.21-11.78 53.34-11.29 8.36 6.86 13.28 14.79 14.79 22.88-20.11-6.69-42.67-10-66.56-9.18.03.14.05.29.05.44 24.05.51 46.75 5.1 67 12.92.37 8.09-2.62 16.24-8.91 23.5-17.83-14.18-37.85-25.89-59.03-33.93-.12.13-.23.26-.37.38 20.05 9.24 38.98 22.07 55.87 37.24-3.41 3.18-7.46 6.14-12.2 8.82-5.63 3.18-11.84 5.7-18.38 7.61-8.61-19.62-18.28-37.41-28.51-51.93-.22.08-.45.12-.66.17 8.21 15.04 15.96 33.33 22.86 53.39-12.44 2.79-25.78 3.45-38.62 2.02 3.54-20.61 7.49-39.52 11.68-55.2-.24-.03-.46-.06-.71-.1-6.27 15.38-12.2 34.02-17.53 54.38-12.59-2.14-24.43-6.35-34.13-12.57 14.57-16.96 30.83-31.79 48.04-43.14-.04-.04-.13-.09-.2-.14-.09-.06-.19-.14-.29-.22-18.75 10.28-36.47 24.07-52.32 40.13-8.7-6.76-13.93-14.62-15.79-22.71 20.12-9.9 42.64-16.83 66.44-19.82-.02-.15-.05-.29-.08-.44-24.03 1.64-46.74 7.31-67.02 16.07-.68-8.1 2-16.25 7.96-23.6 18.14-2.39 38.43-.88 59.91 5.04.1-.13.21-.27.35-.4-20.4-7.12-39.68-9.74-56.89-8.36 3.59-3.56 7.99-6.87 13.25-9.82 5.14-2.9 10.72-5.26 16.65-7.11 9.12 3.21 19.33 10.96 30.14 23.51.21-.07.44-.13.67-.19-8.79-13.1-17.12-21.38-24.56-25.05 12.36-3 25.67-3.86 38.56-2.64-2.99 4.39-6.35 13.46-9.92 27.41.23.03.47.06.7.1 5.68-13.69 11.06-22.52 15.83-26.69 13.75 2.11 26.69 6.66 37.03 13.59 1.95-.06 3.88-.06 5.75.04-11.43-7.66-25.73-12.7-40.93-15.02.07-.03.11-.03.17-.07 20.59 2.55 40.02 8.92 57.51 18.46-19.61-5.91-44.32-2.67-71.37 11.2zm-18.04-30.46c-6.17.55-12.29 1.45-18.18 2.89-.4-.14-.81-.23-1.22-.34 6.34-1.23 12.82-2.07 19.4-2.55zm-27.63 4.39c.84.11 1.68.22 2.53.42-6.52 2.04-12.72 4.65-18.38 7.84-5.81 3.28-10.7 6.93-14.65 10.87-10.08 1.46-19.36 4.4-27.65 8.65 17.08-12.87 36.78-22.45 58.15-27.78zm93.84 310.87c4.75-4.51 8.59-11.64 11.27-21.35-3.95-.57-7.97-1.27-11.97-1.95-3.67-.62-7.35-1.3-11.06-2.01-23.01 3.94-47.12 4.6-70.45 2.01-.41-6.09-.65-12.97-.74-20.64-4.8-1.58-9.6-3.26-14.39-4.96.09 8.84.48 16.77 1.18 23.64-26.79-4.55-52-13.51-72.62-26.76-2.3-8.65-3.52-18.41-3.5-29.25-1.64-.83-3.27-1.71-4.9-2.57l-5.45-.52c.3 9.13 1.53 17.58 3.71 25.18-8.3-6.46-15.11-13.38-20.46-20.61-1.09-2.13-2.14-4.29-3.13-6.49l-1.28-.12-1.2-.12-9.46-.91c25.95 62.9 87.9 107.29 160.05 107.29 40.44 0 77.66-13.98 107.16-37.31-5.34-.23-10.73-.58-16.22-1.05a160.688 160.688 0 01-36.54 18.5zm-.88-22.18c-2.27 12.28-5.87 20.89-10.51 25.65-21.03 4.73-43.57 5.83-65.26 3.41-2.3-4.39-4.07-12.72-5.13-24.82 26.88 2.99 54.85 1.61 80.9-4.24zm-94.64 2.32c1.65 12.18 4.3 20.64 7.79 25.21-4.57-.78-9.09-1.76-13.53-2.86-20.52-6.2-39.35-16.34-55.59-29.55-4.17-5.42-7.61-11.79-10.15-19.14 20.3 13.05 45.11 21.86 71.48 26.34zm-97.75-48.85c4.58 5.36 9.96 10.56 16.27 15.46 2.02 5.49 4.63 10.4 7.61 14.9a164.15 164.15 0 01-23.88-30.36z" fill="#878787"/><path d="M503.65 232.14l5.71-10.22 7.62-13.65-52-33.24v.01c5.92 12.78 10.05 27.65 12.92 41.63v.09c.01.01.01.02.03.03 5.44 26.57 6.35 49.96 6.35 49.96l9.66-17.28c8.11 29.59-4.45 53.46-36.29 65.31-4.41 1.67-9.25 3.09-14.32 4.3-6.69 1.6-13.61 2.88-20.69 3.91-4.08.61-8.22 1.11-12.44 1.54-.21.02-.43.06-.65.07l-2.71.27c-5.12.44-10.35.7-15.64.85-3.48.11-7 .18-10.55.15-7.05-.04-14.26-.38-21.58-.95-4.38-.34-8.81-.79-13.29-1.32-26.67-3.19-54.89-9.92-84.24-20.62a508.9 508.9 0 01-14.21-5.49c-8.12-3.28-16.27-6.79-24.53-10.7l-18.99.88c14.07 6.99 28.6 13.23 43.3 18.84 4.77 1.81 9.54 3.55 14.34 5.22 27.87 9.67 56.19 16.8 83.51 21.2 4.27.69 8.54 1.37 12.74 1.92 3.4.45 6.75.78 10.11 1.13 8.46.91 16.78 1.58 24.91 1.93 5.26.21 10.43.32 15.51.29 19.79-.07 38.16-1.94 54.29-5.76 5.67-1.35 11-2.98 15.92-4.82 46.56-17.33 53.18-53.95 25.21-95.48zm-368.53 35.68l2.28.21 7.29.71 17.21 1.67 8.47.81h.01l2.33.23 15.36 1.47-2.66-3.39-4.44-5.65-6.26-8-9.3-11.85-1.42-1.82-32.88-41.94-.53-.68-2.4-3.04-.33-.44-.3-.39-3.97-5.05-3.12 20.76-1.81 12.06c-.48-.38-.89-.76-1.36-1.14-2.83-2.28-5.62-4.57-8.23-6.86-58.48-51.05-65.69-101.61-10.7-122.09 4.42-1.66 9.25-3.09 14.33-4.31 12.02-2.84 25.53-4.33 40.06-4.64 4.7-3.47 11.34-8.16 19.01-12.86-29.21-2.31-55.98-1.12-78.26 4.16-5.69 1.35-11.06 2.94-15.98 4.78-66.41 24.78-51.5 88.79 29.24 150.38 3.12 2.38 6.39 4.76 9.71 7.14v.01l-1.74 11.55-2.41 16 13.62 1.32 9.14.88.04.01z" fill="#128cb9"/></svg>