<svg version="1.1" id="Слой_1" xmlns="http://www.w3.org/2000/svg" x="0" y="0" viewBox="0 0 938 683" xml:space="preserve"><style>.st1{fill:#128cb9}.st7{fill:#4d4d4d}.st8{fill:#fea77c}.st9{fill:#20140f}.st10{fill:#fff}.st11{fill:#bf453f}</style><path class="st7" d="M759.5 598.7l-1.61-57.15c-1.33-.71-2.25-2.07-2.27-3.66-.03-2.34 1.87-4.26 4.24-4.28.39 0 .76.06 1.12.15l78.85-80.62c-.24-.53-.4-1.11-.4-1.73-.01-.92.28-1.77.78-2.46L725.42 298.02c1.19-.62 2.37-1.22 3.56-1.86l114.83 150.96c2.3.05 4.17 1.89 4.19 4.18.03 2.33-1.87 4.26-4.24 4.28-.24 0-.48-.03-.72-.07l-79.1 80.89c.16.44.26.89.27 1.38.02 1.66-.94 3.09-2.34 3.8l1.61 57.07.1 3.64.11 3.96c.03 1.09-.83 2-1.93 2.04h-.03c-1.08.01-1.97-.84-2-1.92l-.11-4.05-.12-3.62z"/><path class="st7" d="M763.57 602.3c18.94 0 33.93 2.52 33.97 5.81.04 3.43-16.2 6.39-36.26 6.61-20.07.22-36.37-2.38-36.41-5.8-.04-3.34 15.39-6.23 34.74-6.59l.11 4.05c.03 1.08.93 1.93 2 1.92h.03c1.1-.03 1.96-.94 1.93-2.04l-.11-3.96z"/><path class="st1" d="M682.49 295.01c9.7 15.01 11.79 30.92 4.67 35.52-7.12 4.6-20.76-3.84-30.46-18.86s-11.79-30.92-4.67-35.52c7.12-4.6 20.76 3.84 30.46 18.86z"/><path class="st7" d="M624.6 598.28l-3.76 18.33a5.533 5.533 0 01-5.32 4.41l-257.92 2.36c-2.1.04-3.62-1.98-3-3.99.73-2.36 2.9-3.99 5.38-4.01l91.64-1.02 29.82-140.67c1.08-5.08 5.51-8.76 10.71-8.87l152.5-3.43c4.14-.09 7.29 3.68 6.45 7.74l-26.5 129.15z"/><path class="st8" d="M427.19 115.27c.66 4.82-.45 10.11-3.94 13.51-1.08 1.05-2.41 1.85-3.83 2.36-3.19 1.14-6.88.84-9.41-1.38l-.02-.04c1.98-.99 3.74-2.5 4.97-4.32 3.1-4.6 3.42-10.58 2.48-16.05-.29-1.65-.7-3.31-1.32-4.87 2.81-.51 5.77.78 7.7 2.89 1.96 2.14 2.97 5.02 3.37 7.9zm-38.59 12.58c1.9-.47 3.83-1.05 5.61-1.88l.06.12c-.09 1.75-.78 3.44-1.89 4.8-.71.87-1.59 1.6-2.59 2.11h-.03c-.14-1.76-.52-3.5-1.16-5.15z"/><path class="st8" d="M405.42 114.92c.34 4.21.04 8.7-2.31 12.22-.71 1.07-1.66 2.01-2.74 2.74-2.4 1.63-5.44 2.23-8 1.01 1.11-1.36 1.8-3.05 1.89-4.8l-.06-.12c1.42-.67 2.73-1.52 3.86-2.61 2.53-2.48 3.76-6.59 1.99-9.64-.57-.99-1.48-1.83-2.59-2.06-1-.2-2.02.11-2.99.42-1.15.37-2.31.73-3.46 1.11-.94-3.45-1.97-6.91-3.93-9.88-1.37-2.07-3.27-3.88-5.49-4.93v-.01l.06-.11c3.51-3.01 7.98-5.74 12.48-4.72 2.98.68 5.2 2.8 6.82 5.44 1.07 1.73 1.87 3.67 2.46 5.56a47.06 47.06 0 012.01 10.38z"/><path class="st8" d="M416.12 104.48c.61 1.56 1.03 3.23 1.32 4.87.95 5.47.63 11.44-2.48 16.05-1.23 1.82-2.99 3.33-4.97 4.32-3.01 1.51-6.54 1.85-9.52.31l-.1-.14c1.08-.73 2.03-1.67 2.74-2.74 2.35-3.51 2.64-8 2.31-12.22-.28-3.52-.95-7.01-2-10.38-.59-1.89-1.4-3.84-2.46-5.56l.54-.34c2.78-2.84 7.79-2.33 10.82.23 1.75 1.47 2.96 3.44 3.8 5.6z"/><path class="st8" d="M391.02 113.19c1.15-.37 2.31-.73 3.46-1.11.97-.31 1.99-.62 2.99-.42 1.11.23 2.02 1.08 2.59 2.06 1.77 3.05.54 7.17-1.99 9.64-1.12 1.09-2.44 1.94-3.86 2.61-1.77.84-3.71 1.41-5.61 1.88.64 1.65 1.02 3.39 1.16 5.15h.03c1-.51 1.88-1.24 2.59-2.11 2.56 1.22 5.6.62 8-1.01l.1.14c2.97 1.54 6.5 1.21 9.52-.31l.02.04c2.53 2.22 6.21 2.52 9.41 1.38l.04.11c.54 2.94.31 6.03-.64 8.86-1.34 3.97-4.05 7.4-5.2 11.43-.76 2.66-.79 5.5-.17 8.58-13.58 1.49-27.42.54-40.67-2.78l.01-.06c-1.38-7.3-5.1-13.9-8.15-20.68-3.05-6.77-5.5-14.24-4.11-21.55.99-5.21 3.92-9.96 7.86-13.51 2.58-2.33 5.81-4.24 9.29-4.15 1.37.03 2.69.39 3.92.97v.01c2.21 1.05 4.12 2.87 5.49 4.93 1.94 2.99 2.98 6.45 3.92 9.9zm-262.05 17.4c-.98 1.86-1.7 3.86-2.16 5.91a7.404 7.404 0 01-5.17-2.4l-.11-.06c.37-.67.69-1.37.96-2.08 2.22-.18 4.43-.85 6.48-1.37zm-29.7-21.05c.55.23 1.08.53 1.56.89 1.49 1.16 2.45 2.86 3.31 4.54 2.12 4.21 3.82 8.64 5.07 13.19.92 3.37 1.49 7.32-.65 10.08-.02.03-.05.06-.08.1-2.17 2.68-6.05 3.09-9.53 3.14.15-.23.27-.49.37-.76.49-1.31.4-2.75.21-4.14-.8-6.17-3.3-12.12-7.15-17.02-.86-1.09-1.86-2.18-3.09-2.75l.14-.27c.33-2.88 1.33-5.57 4.13-6.89 1.78-.84 3.9-.85 5.71-.11z"/><path class="st9" d="M344.09 312.92a3.389 3.389 0 013.43 3.36c.02 1.87-1.48 3.4-3.36 3.43a3.4 3.4 0 01-3.43-3.35c-.01-1.88 1.49-3.42 3.36-3.44z"/><path class="st8" d="M127.37 104.55c4.38 4.07 7.08 8.4 9.01 14.05v.01c-1.02-.01-2.04.1-3.06.2l-11.5 1.17c-.5.05-1 .11-1.52.19-.91-3.41-2.38-6.67-4.34-9.61-.69-1.03-1.44-2.04-2.3-2.93l.25-.25c1.77-2.59 4.66-4.37 7.76-4.81 1.01-.15 2.06-.15 3.03.19 1.03.34 1.88 1.06 2.67 1.79z"/><path class="st7" d="M304.38 290.62c.89.68 1.43 1.92.97 2.93-.32.7-1.04 1.14-1.78 1.33-.74.19-1.52.17-2.28.21-2.08.08-4.19.54-5.9 1.72-.9.62-1.67 1.42-2.61 1.95-.95.53-2.21.72-3.1.09-.85-.61-1.09-1.83-.8-2.85.3-1.01 1.03-1.83 1.82-2.53 3.14-2.79 7.52-4.13 11.68-3.57-.01-.19 1.12.04 2 .72z"/><path class="st8" d="M118.66 131.68c1.26.33 2.55.39 3.82.28-.27.71-.59 1.41-.96 2.08-1.19 2.15-2.87 4.02-5.08 5.05-2.5 1.18-5.7 1-7.84-.64l-.14-.11c.03-.03.06-.06.08-.1 2.14-2.76 1.58-6.71.65-10.08a71.434 71.434 0 00-5.07-13.19c-.85-1.68-1.81-3.39-3.31-4.54-.48-.36-1.01-.67-1.56-.89 1.23-1.88 2.58-3.82 4.62-4.74 2.21-1.02 4.89-.61 7 .6 1.04.59 1.95 1.35 2.77 2.22.86.89 1.61 1.9 2.3 2.93 1.96 2.94 3.43 6.21 4.34 9.61-2.57.39-5.2 1.2-6.34 3.45-1.59 3.18 1.27 7.16 4.72 8.07z"/><path class="st8" d="M98.95 141.48c3.48-.04 7.36-.45 9.53-3.14l.14.11c2.15 1.65 5.35 1.82 7.84.64 2.2-1.03 3.89-2.9 5.08-5.05l.11.06c1.3 1.45 3.22 2.33 5.17 2.4.45-2.05 1.18-4.05 2.16-5.91-2.05.52-4.26 1.18-6.48 1.36-1.28.11-2.57.05-3.82-.28-3.45-.92-6.31-4.89-4.7-8.08 1.14-2.25 3.76-3.06 6.34-3.45.51-.07 1.02-.14 1.52-.19l11.5-1.17c1.02-.1 2.04-.2 3.06-.2s2.03.11 3 .42c3.9 1.27 6.04 5.65 6.23 9.75.2 4.1-1.1 8.1-1.92 12.12-1.89 9.28-1.24 19.06 1.85 28.01-15.36 4.53-29.37 7.95-45.23 7.91-.09-.46-.19-.93-.31-1.39v-.01c-.97-3.97-2.71-7.75-5.11-11.07-2.22-3.07-4.98-5.72-7.31-8.71-7.08-9.1-9.85-21.41-7.34-32.67.33-1.94 1.69-3.95 3.56-5.28 1.31-.94 2.97-1.53 4.55-1.19.33.07.64.18.94.32 1.23.57 2.23 1.66 3.09 2.75 3.84 4.9 6.34 10.85 7.15 17.02.18 1.38.28 2.83-.21 4.14a6.3 6.3 0 01-.39.78z"/><path class="st10" d="M338.74 341.02c.04 2.77-1.57 5.31-3.55 7.24-3.19 3.1-7.49 5.03-11.94 5.43-4.44.39-8.98-.72-12.78-3.05-1.7-1.05-3.28-2.36-4.3-4.08-1.01-1.72-1.39-3.89-.65-5.74 1.29-3.25 5.33-4.44 8.83-4.31 3.49.13 7 1.13 10.43.47 3.22-.62 6.45-2.67 9.52-1.54 2.08.77 4.41 2.82 4.44 5.58z"/><path class="st7" d="M228.46 540.41c-10.58-32.65-29.81-61.15-49.34-89.61l-.13.09c-4.31 4.17-6.36 7.82-8.42 13.46-4.11 11.28-3.77 23.7-2.12 35.59 3.36 24.13 11.82 47.21 20.23 70.08 3.4 9.22 6.78 18.45 10.18 27.67l35.5.05h11.71l-17.61-57.33z"/><path class="st9" d="M300.74 313.4c1.87-.02 3.4 1.48 3.43 3.36a3.4 3.4 0 01-3.35 3.43 3.387 3.387 0 01-3.43-3.35 3.383 3.383 0 013.35-3.44z"/><path class="st7" d="M352.17 295.3c.32 1.01.11 2.24-.73 2.86-.88.65-2.13.48-3.1-.02-.97-.51-1.75-1.29-2.66-1.89-1.74-1.14-3.86-1.56-5.94-1.59-.77-.02-1.54.02-2.29-.16s-1.47-.6-1.81-1.29c-.48-1 .04-2.25.91-2.95.86-.69 1.99-.95 1.99-.76 4.15-.65 8.56.6 11.76 3.31.8.68 1.55 1.49 1.87 2.49zm-1.91-36.23c-7.94 4.91-18.2 6.83-28.15 7.19-6.18.22-12.36-.09-18.53-.38-2.81-.13-5.87-.58-8.65-.36-2.29.18-18.72 2.8-29.33 19.58-.36.57-.75 1.12-1.1 1.69-6.77 10.95-9.66 24.72-6.25 37.13.14.52-.07 1.09-.44 1.49-.37.4-.88.64-1.39.82-1.01.36-2.15.47-3.17.14-1.03-.33-1.92-1.17-2.13-2.23-1.9-2.92-4.91-5.1-8.23-5.63-1.19-.19-2.42-.17-3.61.05-.35-.72-.69-1.44-1.04-2.15-6.81-16.5-10.02-35.45-1.79-50.67 6.44-11.91 18.81-19.48 31.47-24.3 12.65-4.82 26.08-7.44 38.61-12.59 7.94-5.22 17.04-9.97 26.9-10.6 6.14-.39 12.38.89 17.87 3.66 2.49 1.25 4.85 2.82 6.68 4.91 3.7 4.22 4.91 10.3 3.81 15.81-1.1 5.5-4.32 10.44-8.43 14.27-.98.79-2.02 1.5-3.1 2.17z"/><path class="st8" d="M249.82 344.17c-4.66 1.96-10.4 1.39-14.44-1.7-4.96-3.79-6.92-11.04-4.56-16.81.64-1.58 1.58-3.04 2.8-4.23 1.55-1.5 3.55-2.49 5.67-2.87 1.19-.22 2.42-.24 3.61-.05 3.32.53 6.33 2.71 8.23 5.63.21 1.06 1.11 1.9 2.13 2.23 1.02.33 2.15.22 3.17-.14.51-.18 1.02-.42 1.39-.82.37-.4.58-.97.44-1.49-3.41-12.41-.52-26.18 6.25-37.13.36-.57.74-1.13 1.1-1.69 10.61-16.78 27.04-19.4 29.33-19.58 2.78-.23 5.84.23 8.65.36 6.17.28 12.35.6 18.53.38 9.95-.36 20.21-2.28 28.15-7.19 2.22 8.11 4.45 16.21 6.68 24.32 8.55 31.15 10.32 55.36 5.07 71.96-3.03 9.57-8.39 16.61-16.14 21-8.59 4.86-18.24 7.66-28.07 8.42.55 2.4 1.25 4.77 2.06 7.09.86 2.43 1.91 4.89 3.76 6.69.2.19.41.37.62.55-6.32 7.93-17.26 11.37-27.33 10.12-10.19-1.28-19.48-6.82-26.88-13.95l-.62-.14c.36-2.09-.23-4.27-.86-6.32-4.69-15.35-11.42-29.98-18.13-44.55l-.61-.09zm101.62-46.01c.84-.62 1.05-1.86.73-2.86-.32-1-1.07-1.81-1.87-2.49-3.2-2.72-7.6-3.96-11.76-3.31 0-.19-1.12.07-1.99.76-.87.7-1.39 1.95-.91 2.95.33.69 1.07 1.12 1.81 1.29s1.52.14 2.29.16c2.08.03 4.2.45 5.94 1.59.91.6 1.69 1.38 2.66 1.89.96.51 2.22.67 3.1.02zm-3.92 18.12a3.395 3.395 0 00-3.43-3.36 3.393 3.393 0 00-3.35 3.43 3.393 3.393 0 003.43 3.35c1.87-.02 3.38-1.55 3.35-3.42zm-12.33 31.98c1.99-1.93 3.59-4.48 3.55-7.24-.04-2.76-2.36-4.81-4.44-5.57-3.07-1.13-6.3.92-9.52 1.54-3.43.66-6.94-.34-10.43-.47-3.5-.13-7.54 1.06-8.83 4.31-.73 1.85-.36 4.02.65 5.74 1.02 1.72 2.6 3.03 4.3 4.08 3.8 2.33 8.34 3.45 12.78 3.05 4.45-.41 8.75-2.34 11.94-5.44zm-29.83-54.71c.46-1.01-.09-2.25-.97-2.93-.88-.67-2.01-.91-2-.72-4.17-.56-8.54.79-11.68 3.57-.79.7-1.52 1.52-1.82 2.53-.3 1.01-.06 2.24.8 2.85.89.63 2.14.43 3.1-.09.95-.53 1.72-1.33 2.61-1.95 1.71-1.18 3.83-1.64 5.9-1.72.77-.03 1.54-.02 2.28-.21.74-.19 1.46-.63 1.78-1.33zm-1.19 23.21a3.395 3.395 0 10-6.79.07 3.393 3.393 0 003.43 3.35 3.387 3.387 0 003.36-3.42z"/><circle transform="rotate(-9.213 684.168 296.043)" class="st10" cx="684.21" cy="296.13" r="14.62"/><path class="st7" d="M725.42 298.02c-5.06 2.58-10.13 5.08-15.59 8.24-3.07 1.77-6.17 3.58-8.66 6.09-5.42 5.47-7.61 13.91-13.97 18.21l-.03-.04c7.12-4.6 5.03-20.5-4.67-35.52-9.7-15.02-23.34-23.46-30.46-18.86 4.45-4.11 10.84-4.22 16.83-5.14 15.03-2.29 27.89-11.55 40.84-19.51 3.18-1.95 6.63-3.9 10.35-3.79 3.98.11 7.5 2.55 10.43 5.24 5.74 5.28 13.81 17.08 13.95 30.3-.28 3.22-2.06 5.03-5.33 7.1-3.48 2.2-6.82 4.07-10.13 5.82-1.19.64-2.38 1.25-3.56 1.86zm-7.4-2.49a2.3 2.3 0 001.01-3.1 2.313 2.313 0 00-3.11-1.02l-8.25 4.19a2.31 2.31 0 00-1.01 3.11 2.31 2.31 0 003.11 1.01l8.25-4.19zm-4.1-10a2.31 2.31 0 001.01-3.11 2.31 2.31 0 00-3.11-1.01l-8.24 4.19c-1.14.58-1.6 1.97-1.02 3.1.58 1.14 1.98 1.6 3.11 1.01l8.25-4.18zm-5.9-8.89a2.3 2.3 0 001.01-3.1 2.313 2.313 0 00-3.11-1.02l-8.25 4.19a2.31 2.31 0 00-1.01 3.11 2.31 2.31 0 003.11 1.01l8.25-4.19zm-6.55-8.18c1.14-.58 1.6-1.97 1.01-3.11a2.3 2.3 0 00-3.1-1.01l-8.25 4.19a2.3 2.3 0 00-1.01 3.1c.58 1.14 1.97 1.6 3.1 1.02l8.25-4.19z"/><path class="st1" d="M719.04 292.43c.58 1.14.12 2.53-1.01 3.1l-8.25 4.19c-1.14.58-2.53.12-3.11-1.01a2.318 2.318 0 011.01-3.11l8.25-4.19c1.14-.58 2.53-.12 3.11 1.02zm-4.11-10.01c.58 1.14.12 2.53-1.01 3.11l-8.25 4.18a2.31 2.31 0 01-3.11-1.01 2.299 2.299 0 011.02-3.1l8.24-4.19c1.14-.59 2.54-.13 3.11 1.01zm-5.89-8.88c.58 1.14.12 2.53-1.01 3.1l-8.25 4.19c-1.14.58-2.53.12-3.11-1.01a2.318 2.318 0 011.01-3.11l8.25-4.19c1.14-.58 2.53-.12 3.11 1.02zm-6.56-8.19a2.31 2.31 0 01-1.01 3.11l-8.25 4.19c-1.14.58-2.53.12-3.1-1.02a2.304 2.304 0 011.01-3.1l8.25-4.19c1.13-.58 2.53-.13 3.1 1.01zM412.24 501.51c-.86-3.56-1.71-7.13-2.55-10.71 2.85-51.08 28.61-134.8 28-186.99-.62-52.19-8.89-90.95-23.56-141.04-.28-.9-.5-1.79-.68-2.65-13.58 1.49-27.42.54-40.67-2.78-.09-.02-.2-.05-.29-.07 5.39 43.47 4.89 87.26 1.43 130.66-1.82 22.8-4.54 45.87-11.47 67.55-1.89 5.91-4.09 11.7-6.67 17.37-5.3 11.65-13.06 23.34-25.09 27.6-2.15.82-4.64.1-6.45-1.35-6.32 7.93-17.26 11.37-27.33 10.12-10.19-1.28-19.48-6.82-26.88-13.95l-.62-.14c-.02.16-.06.31-.1.47-.55 2.25-2.71 4.26-4.97 3.81l-.24.07c-27.62-15.69-38.85-33.26-52.06-55.06-13.21-21.81-22.7-45.64-31.53-69.56a1527.466 1527.466 0 01-34.78-105.99l-.19.05c-15.36 4.53-29.37 7.95-45.23 7.91-.09-.46-.19-.93-.31-1.39.34 3.08 6.94 149.49 40.47 214.05 11.1 21.37 24.95 41.34 38.65 61.32 19.53 28.46 38.76 56.96 49.34 89.61v.07s.01.01.02.01l17.59 57.24 34.39.06 154.93.21v-.22c-7.71-32.1-15.43-64.19-23.15-96.28z"/><ellipse transform="rotate(-43.465 560.009 536.401)" class="st10" cx="559.97" cy="536.38" rx="15.49" ry="13.92"/><path class="st11" d="M236.3 330.52a.63.63 0 01-.53-.97 5.92 5.92 0 013.59-2.55c1.47-.35 3.06-.1 4.35.68.3.18.39.56.22.86-.18.3-.56.39-.86.22-1.02-.61-2.26-.8-3.42-.53-1.16.27-2.19 1-2.82 2-.12.19-.32.29-.53.29zm89.94-.75a.629.629 0 01-.08-1.25c2.04-.26 4.41-1.55 5.13-3.82.82-2.59-.84-5.24-1.59-6.26-.74-1-1.63-1.93-2.49-2.83-.79-.83-1.61-1.68-2.33-2.61-.93-1.2-1.76-2.59-2.55-4.26a.636.636 0 01.3-.84c.31-.15.69-.01.84.3.75 1.59 1.54 2.9 2.41 4.03.68.88 1.48 1.71 2.25 2.51.89.93 1.81 1.89 2.59 2.96 1.83 2.48 2.47 5.17 1.77 7.38-.77 2.42-3.25 4.31-6.17 4.69h-.08zm64.75-215.95a.63.63 0 01-.61-.46c-.95-3.47-1.95-6.82-3.85-9.7-1.38-2.09-3.24-3.76-5.24-4.71a.633.633 0 01-.3-.84c.15-.31.52-.44.84-.3 2.2 1.05 4.24 2.88 5.74 5.15 2 3.03 3.04 6.49 4.02 10.06.09.33-.11.68-.44.77-.05.03-.11.03-.16.03z"/><path class="st11" d="M386.34 146.08a.6.6 0 01-.36-.12.625.625 0 01-.14-.88c3.44-4.81 4.29-11.49 2.16-17.01a.67.67 0 01.03-.52c.08-.16.23-.28.41-.32 3.15-.79 6.71-1.92 9.18-4.33 2.18-2.13 3.57-5.96 1.88-8.88-.55-.95-1.34-1.59-2.17-1.76-.87-.17-1.83.13-2.68.4l-13.51 4.32c-2.54.81-5.16 1.65-7.38 3.13-2.4 1.6-3.98 3.82-4.32 6.1a.63.63 0 01-.71.53.63.63 0 01-.53-.71c.4-2.62 2.17-5.16 4.87-6.95 2.37-1.58 5.08-2.45 7.69-3.28l13.51-4.32c.95-.3 2.12-.68 3.31-.44 1.18.24 2.27 1.1 3.01 2.36 2.03 3.5.49 7.88-2.09 10.41-2.5 2.45-5.93 3.66-9.08 4.48 1.97 5.77 1 12.57-2.55 17.53-.14.17-.33.26-.53.26z"/><path class="st11" d="M376.64 118.55c-.26 0-.51-.17-.6-.43-.72-2.17-1.83-4.16-3.29-5.93a.63.63 0 01.08-.88.63.63 0 01.88.08c1.56 1.88 2.74 4.01 3.51 6.33.11.33-.07.68-.4.79-.05.03-.12.04-.18.04zm13.12 15.09c-.23 0-.45-.12-.56-.34a.616.616 0 01.27-.84c2.38-1.21 4-3.72 4.14-6.38.02-.35.32-.61.66-.59.35.02.61.31.59.66-.16 3.1-2.05 6.02-4.82 7.43-.09.04-.19.06-.28.06z"/><path class="st11" d="M395.29 132.15c-1.12 0-2.17-.21-3.09-.63a.614.614 0 01-.31-.83c.14-.32.51-.46.83-.31 3.55 1.6 7.88-.61 9.85-3.58 1.89-2.84 2.61-6.71 2.2-11.82a47.27 47.27 0 00-1.98-10.25c-.64-2.06-1.45-3.88-2.4-5.42-.18-.3-.09-.68.2-.86.3-.18.68-.09.86.2 1.01 1.63 1.86 3.55 2.53 5.71 1.06 3.42 1.75 6.96 2.03 10.52.43 5.41-.36 9.53-2.41 12.62-2.11 3.19-5.4 4.65-8.31 4.65z"/><path class="st11" d="M404.7 131.68c-1.54 0-3.08-.33-4.54-1.09a.63.63 0 11.58-1.12c3.81 1.97 10.12.84 13.68-4.43 3.34-4.95 3.13-11.21 2.37-15.59-.37-2.13-.92-4.02-1.63-5.59a.63.63 0 01.31-.83c.32-.14.69 0 .83.31.76 1.7 1.33 3.62 1.72 5.89.8 4.61 1 11.21-2.57 16.5-2.25 3.36-6.48 5.95-10.75 5.95z"/><path class="st11" d="M415.71 132.43c-2.32 0-4.5-.75-6.14-2.19a.632.632 0 01.83-.95c2.2 1.93 5.57 2.41 8.78 1.26.33-.12.69.05.8.38.12.33-.05.69-.38.8-1.29.47-2.61.7-3.89.7z"/><path class="st7" d="M412.94 176.78c-1.8-.04-3.51-.05-5.17-.07-7.63-.07-14.23-.14-24.54-1.93l.32-1.85c10.16 1.77 16.68 1.83 24.23 1.91 1.67.02 3.39.03 5.19.07l-.03 1.87z"/><path class="st11" d="M127.64 150.73c-.26 0-.5-.16-.59-.41-2.2-6.01-1.91-12.91.73-18.74-2.9.76-6.16 1.58-9.3.74-2.17-.57-4.16-2.27-5.09-4.33-.72-1.59-.72-3.24-.01-4.64 1.46-2.9 5.04-3.63 8.35-3.97l11.5-1.17c.96-.1 2.05-.19 3.13-.2.35 0 .63.28.63.63s-.28.63-.63.63h-.05c-1 0-2.04.11-2.95.2l-11.5 1.17c-2.97.3-6.17.93-7.36 3.29-.68 1.35-.36 2.68.04 3.56.78 1.73 2.45 3.15 4.26 3.63 2.9.77 5.93-.03 8.87-.8.38-.1.75-.2 1.12-.29.24-.06.49.03.65.22.15.19.18.46.06.68-3.03 5.76-3.51 12.85-1.27 18.96.12.33-.05.69-.37.8a.57.57 0 01-.22.04z"/><path class="st11" d="M120.27 120.83a.64.64 0 01-.61-.47 31.63 31.63 0 00-4.25-9.44c-.74-1.12-1.47-2.04-2.21-2.82a.63.63 0 01.02-.89.63.63 0 01.89.02c.79.83 1.56 1.81 2.35 2.99 2 3.02 3.49 6.32 4.42 9.81a.63.63 0 01-.45.77c-.05.03-.1.03-.16.03zm-7.29 19.69c-1.75 0-3.45-.52-4.77-1.53a.634.634 0 01-.12-.88c.21-.28.61-.33.88-.12 1.88 1.44 4.84 1.68 7.19.57 2.4-1.13 4.41-3.48 5.65-6.62a.623.623 0 111.16.46c-1.35 3.44-3.59 6.03-6.28 7.3-1.17.55-2.45.82-3.71.82z"/><path class="st11" d="M98.69 142.15c-.34 0-.62-.28-.63-.62 0-.35.27-.63.62-.63 3.5-.03 7.35-.42 9.35-2.99 2.09-2.69 1.31-6.73.54-9.53-1.23-4.5-2.92-8.89-5.03-13.07-.77-1.51-1.7-3.22-3.13-4.33-.45-.35-.96-.63-1.51-.85a.636.636 0 01-.36-.81c.13-.32.49-.48.81-.36.66.26 1.27.6 1.82 1.02 1.64 1.27 2.66 3.12 3.48 4.76 2.14 4.25 3.86 8.72 5.12 13.3.84 3.06 1.67 7.5-.76 10.63-2.31 3-6.52 3.44-10.32 3.48z"/><path class="st11" d="M93.63 144.82c-1.16 0-2.31-.25-3.3-.74-2.82-1.38-5.01-4.39-6.16-8.48-.09-.33.1-.68.43-.77.33-.09.68.1.77.43.61 2.17 2.14 6.04 5.51 7.69 1.54.75 3.52.81 5.16.16 1.3-.52 2.24-1.43 2.66-2.57.44-1.19.35-2.55.18-3.84-.8-6.1-3.23-11.88-7.03-16.72-.7-.89-1.65-1.98-2.8-2.54a.632.632 0 01-.29-.84c.15-.31.53-.44.84-.29 1.38.67 2.46 1.9 3.24 2.89a35.533 35.533 0 017.28 17.33c.19 1.45.29 2.99-.25 4.43-.55 1.48-1.75 2.65-3.37 3.3-.9.38-1.89.56-2.87.56zm33-7.65h-.04a7.994 7.994 0 01-5.44-2.6.64.64 0 01.04-.89.64.64 0 01.89.04 6.74 6.74 0 004.59 2.19c.35.02.61.32.59.66-.02.34-.3.6-.63.6z"/><path class="st7" d="M296.73 420.06c-2.61 0-5.22-.22-7.79-.8-6-1.36-11.27-4.51-16.38-7.56l.97-1.62c4.97 2.98 10.12 6.05 15.82 7.34 6.07 1.37 12.53.62 18.63-.26l.27 1.86c-3.74.55-7.64 1.04-11.52 1.04zM120.1 198.59l-.31-1.86a54.657 54.657 0 0020.48-7.87l1.01 1.59a56.516 56.516 0 01-21.18 8.14zm20.36 398.22h93.91v1.88h-93.91zm140.01.09h538.95v1.88H280.47z"/><path class="st7" d="M234.36 596.83h46.11v1.88h-46.11z"/><path class="st10" d="M280.97 614.6c-.54 2.33-1.12 4.68-1.75 7.05l-.08.29-40.45.06c-1.4-2.17-2.67-4.7-3.82-7.47-2.36-5.63-4.23-12.28-5.71-19-.41-1.83-.79-3.67-1.13-5.49-1.19-6.22-2.06-12.3-2.69-17.49-.31-2.57-.56-4.93-.76-6.97-.49-5-.67-8.16-.67-8.16l5.06-.14 58.64-1.66s.82 26.88-6.64 58.98z"/><path class="st10" d="M228.02 590.05c.35 1.82.72 3.66 1.13 5.49-7.33 1.96-15.8-.35-20.65-6.2-4.95-5.96-5.43-15.41-.62-21.48 2.13-2.7 5.31-4.72 8.76-4.84 2.83-.1 5.49 1.06 7.93 2.57.2 2.04.45 4.4.76 6.97-2.85-2.75-7.7-3.17-10.97-.91-3.16 2.19-4.55 6.48-3.62 10.21.93 3.72 3.95 6.76 7.55 8.09 3.1 1.12 6.56 1.06 9.73.1z"/><path transform="translate(-1.017 .424)" class="st7" d="M238.69 621.03h40.45v1.88h-40.45z"/><path class="st7" d="M669.36 606.35a119.56 119.56 0 01-6.39-39.87v-.11l17.97-.33 13.9-.25 18.85-.34.01.46c.56 16.78-2.47 33.67-8.83 49.2l-31.98.36c-1.3-2.99-2.47-6.03-3.53-9.12z"/><path class="st1" d="M692.53 510.19c.56 18.4 2.26 40.62 2.32 55.49v.13l-13.9.25V566c-.31-3.42-.63-6.84-.95-10.27-.24-2.61-.54-5.38-2.17-7.42-1.86-2.5-6.12-4.49-9.97-6.93-1.9-1.2-3.77-2.6-4.81-4.58-1.04-1.99-1-4.71.66-6.23 1.09-1.01 2.71-1.32 4.17-1.04s2.77 1.1 3.88 2.09c1.05.95 1.94 2.07 3.1 2.88.94.65 2.6 1.43 3.4.14.28-.45.35-1.01.36-1.54.01-.22.01-.44.01-.65.04-2.13-.41-4.38-.57-6.51-.19-2.4-.35-4.8-.47-7.2-.24-4.82-.28-9.65.07-14.46.19-2.74.67-5.77 2.84-7.45 2.97-2.29 7.6-.56 9.67 2.56 2.04 3.1 2.25 7.05 2.36 10.8z"/></svg>