<svg version="1.1" id="Слой_1" xmlns="http://www.w3.org/2000/svg" x="0" y="0" viewBox="0 0 394 297" xml:space="preserve"><style>.st0{fill:#fff}.st1{fill:#fd0}</style><path class="st0" d="M147.6 126.7c0 .6-.1 1.2-.1 1.9-.2 1.4-.3 2.4-.5 3.1-.6 2.3-1.1 6-1.7 11.3-.1.5 0 1 .3 1.3.2.4.3.9.3 1.4 0 .9-.4 1.4-1.2 1.4-1.8.1-2.7-.8-2.7-2.6 0-.2 0-.6.1-1.1.1-2 .4-3.6.7-4.8-1.1.6-2.3.9-3.7 1-.5 0-1 .1-1.4.1-1.9 0-3.6-.6-5-1.8-.9-.7-1.3-2-1.3-3.8v-.8c.1-1.2.7-2.4 1.8-3.8 1.5-1.9 3.5-3.2 6.1-3.8.7-.2 1.5-.3 2.3-.3 1.2 0 2.1.2 2.9.5.2-.7.7-1 1.4-1 .4 0 .7.1 1 .4s.6.6.7 1.4zM144 129c-.6-.3-1.5-.4-2.6-.4-1.3 0-2.5.2-3.4.7-1.9 1-3.2 2.3-3.7 3.7-.1.2-.1.5-.1.7 0 .7.4 1.2 1.2 1.7.7.4 1.6.6 2.7.6 2.2 0 3.9-.7 5.1-2.2 0-.2.1-.3.2-.5 0-.4.2-1 .4-1.8.2-.7.3-1.3.3-1.7 0-.3 0-.6-.1-.8zm21.2 12c-1.2 1.5-2.7 2.8-4.7 3.9s-4 1.6-5.9 1.6-3.3-.6-4.3-1.8c-.9-1.1-1.3-2.6-1.3-4.5 0-2.3.3-4.1.9-5.4 1.1-2.4 2.6-4.6 4.5-6.4 2.1-2.1 4.4-3.4 6.7-3.8.2 0 .3-.1.5-.1.7 0 1.4.2 2 .7s.9 1 .9 1.7-.1 1.2-.2 1.5c-.2.4-.6.6-1.2.6-.4 0-.8-.1-1.3-.2-.4-.1-.7-.2-.9-.2-.3 0-.7.1-1.1.2-.9.3-1.8.9-2.8 1.7s-1.6 1.6-2.1 2.4c1.8-.2 3.2-.3 4.2-.3 1.5 0 3 .2 4.4.7 2.1.7 3.2 1.9 3.2 3.7-.1 1.5-.6 2.7-1.5 4zm-1.7-3.7c-.3-.4-1.1-.7-2.5-.9-1-.1-1.9-.2-2.9-.1-1.7.1-3.5.3-5.2.7-.7.7-1.1 1.6-1.1 2.7 0 .4.1.9.2 1.3.4 1 1.4 1.5 3 1.5.9 0 2-.2 3.4-.7 2-.7 3.6-1.6 4.7-2.7.3-.3.5-.7.5-1.1.1-.3 0-.5-.1-.7zm25.1-2.5c0 .6-.1 1.1-.2 1.8-.6 2.9-1.9 5.1-3.8 6.7-1.6 1.4-3.9 2.5-7 3.3-.8.2-1.7.3-2.5.3-2.2 0-3.9-.7-5.2-2.1-1.2-1.3-1.7-3.1-1.7-5.3 0-2.3.5-4.5 1.4-6.5 1-2.2 2.3-4 4-5.2 1.9-1.4 3.4-2.1 4.6-2.1 1.2 0 2.3.2 3.5.6 1.3.4 2.4 1 3.1 1.7 1.2 1.2 2 2.2 2.6 3.2.8 1 1.2 2.3 1.2 3.6zm-3 0c0-1.5-.6-2.8-1.7-3.9s-2.4-1.6-3.9-1.6c-.6 0-1.2.2-1.9.5s-1.2.5-1.4.5-.4-.1-.6-.2c-1.4.5-2.7 1.6-3.9 3.2s-1.7 3.2-1.7 4.8c0 3.2 1.7 4.9 5.2 4.9 2.8 0 5.2-.9 7.1-2.8 1.9-2 2.8-3.7 2.8-5.4zm24.9 0c0 .6-.1 1.1-.2 1.8-.6 2.9-1.9 5.1-3.8 6.7-1.6 1.4-3.9 2.5-7 3.3-.8.2-1.7.3-2.5.3-2.2 0-3.9-.7-5.2-2.1-1.2-1.3-1.7-3.1-1.7-5.3 0-2.3.5-4.5 1.4-6.5 1-2.2 2.3-4 4-5.2 1.9-1.4 3.4-2.1 4.6-2.1 1.2 0 2.3.2 3.5.6 1.3.4 2.4 1 3.1 1.7 1.2 1.2 2 2.2 2.6 3.2.8 1 1.2 2.3 1.2 3.6zm-3 0c0-1.5-.6-2.8-1.7-3.9s-2.4-1.6-3.9-1.6c-.6 0-1.2.2-1.9.5s-1.2.5-1.4.5-.4-.1-.6-.2c-1.4.5-2.7 1.6-3.9 3.2s-1.7 3.2-1.7 4.8c0 3.2 1.7 4.9 5.2 4.9 2.8 0 5.2-.9 7.1-2.8 1.9-2 2.8-3.7 2.8-5.4zm-58.2 37.7c-.4 1-1.1 2-2 2.9-1.2 1.2-2.1 2.3-2.7 3.2-1.1 1.7-1.8 2.8-2.1 3.3-.8 1.3-1.3 2.5-1.5 3.6v.3c0 .4.2.6.7.7.5.1.7.3.7.5 0 .1-.1.3-.2.5-.3.5-.9 1.2-1.8 2-1 1-1.8 1.4-2.3 1.4s-.9-.3-1.1-.9c-.2-.5-.3-1-.2-1.5.1-1 .3-1.9.7-2.9 1-2.5 2.1-4.7 3.2-6.7 1.1-1.8 2.3-3.6 3.7-5.4-.1-.1-.2-.2-.3-.4-.1 0-.4-.1-.9-.1-1.1 0-2.3.1-3.6.2-1.6.2-2.7.4-3.3.7-.3.1-.7.4-1.1.8-.3.3-.6.4-.8.4s-.5-.1-.7-.3c-.4-.2-.7-.7-1.1-1.4-.4-.7-.6-1.2-.6-1.6 0-.7.6-1.1 1.8-1.3 1.7-.3 2.7-.5 3-.5 1.1-.2 2.5-.3 4.3-.5 2.7-.2 4.2-.4 4.5-.4.9 0 1.6.1 2.2.3.5.2.9.5 1.2.9.3.5.5.9.5 1.4-.1.4-.1.6-.2.8zm17.7.9c-.2 1.4-1.5 2.9-3.8 4.7-.3.3-1.1.9-2.3 2s-1.9 1.8-2.3 2.1l-2.1 2.1c-.8.8-1.4 1.6-1.8 2.4 1.7-.6 3.3-1.1 4.9-1.4 1.1-.2 2.2-.4 3.2-.4s2 0 3-.1c.7 0 1.1.3 1.1 1.1 0 .5-.2 1-.6 1.5-.6.8-1.3 1.2-2 1.2-2-.1-4.1.1-6 .6-1.5.4-3.5 1.1-5.8 2.2 0 0-.2-.1-.8-.1-.6-.1-1-.4-1.4-1-.3-.5-.4-1.1-.4-1.7.1-1.4.5-2.5 1.2-3.3.9-1.1 2.1-2.5 3.7-4.1 1-1 2.1-2 3.5-3.2 1.8-1.5 3-2.6 3.7-3.2.8-.7 1.1-1.3 1.1-1.8 0-.8-.8-1.2-2.4-1.1-1.3.1-2.6.3-4.1.7-2.3.6-3.4 1.5-3.3 2.4.1.9-.2 1.4-.8 1.4-.2 0-.4 0-.6-.1-.5-.1-.9-.4-1.2-1s-.5-1.1-.4-1.6c.1-.7.2-1.2.3-1.4.2-.4.8-.9 1.6-1.6.9-.7 2.4-1.3 4.4-1.7 1.7-.4 3.4-.6 5.2-.6 1.1 0 1.9.1 2.6.3.6.2 1.2.5 1.7 1.1.6.7.9 1.6.9 2.7.1.4.1.6 0 .9zm22.5 5.6c0 .6-.1 1.1-.2 1.8-.6 2.9-1.9 5.1-3.8 6.7-1.6 1.4-3.9 2.5-7 3.3-.8.2-1.7.3-2.5.3-2.2 0-3.9-.7-5.2-2.1-1.2-1.3-1.7-3.1-1.7-5.3 0-2.3.5-4.5 1.4-6.5 1-2.2 2.3-4 4-5.2 1.9-1.4 3.4-2.1 4.6-2.1 1.2 0 2.3.2 3.5.6 1.3.4 2.4 1 3.1 1.7 1.2 1.2 2 2.2 2.6 3.2.8 1 1.2 2.3 1.2 3.6zm-3-.1c0-1.5-.6-2.8-1.7-3.9s-2.4-1.6-3.9-1.6c-.6 0-1.2.2-1.9.5s-1.2.5-1.4.5-.4-.1-.6-.2c-1.4.5-2.7 1.6-3.9 3.2-1.1 1.6-1.7 3.2-1.7 4.8 0 3.2 1.7 4.9 5.2 4.9 2.8 0 5.2-.9 7.1-2.8 1.9-1.9 2.8-3.6 2.8-5.4zm24.8.1c0 .6-.1 1.1-.2 1.8-.6 2.9-1.9 5.1-3.8 6.7-1.6 1.4-3.9 2.5-7 3.3-.8.2-1.7.3-2.5.3-2.2 0-3.9-.7-5.2-2.1-1.2-1.3-1.7-3.1-1.7-5.3 0-2.3.5-4.5 1.4-6.5 1-2.2 2.3-4 4-5.2 1.9-1.4 3.4-2.1 4.6-2.1 1.2 0 2.3.2 3.5.6 1.3.4 2.4 1 3.1 1.7 1.2 1.2 2 2.2 2.6 3.2.8 1 1.2 2.3 1.2 3.6zm-2.9-.1c0-1.5-.6-2.8-1.7-3.9s-2.4-1.6-3.9-1.6c-.6 0-1.2.2-1.9.5s-1.2.5-1.4.5-.4-.1-.6-.2c-1.4.5-2.7 1.6-3.9 3.2-1.1 1.6-1.7 3.2-1.7 4.8 0 3.2 1.7 4.9 5.2 4.9 2.8 0 5.2-.9 7.1-2.8 1.8-1.9 2.8-3.6 2.8-5.4zm-58.1 45.3c0 .2-.3.5-.8.9-.6.4-.8.7-.8.9s-.1 1-.2 2.5-.2 2.4-.2 2.5c0 .8.1 1.5.4 2.1.3.6.4 1 .4 1.3 0 1.2-.6 1.8-1.7 1.8-.3 0-.5 0-.7-.1-.7-.2-1.2-.7-1.4-1.4-.1-.4-.2-1.1-.2-2 0-2 .2-4.1.6-6.4-.2 0-.3-.1-.4-.1-1.1 0-2.5.3-4.4 1-1.4.5-2.9 1.1-4.3 1.6-2.2-.9-3.4-2.3-3.4-4.5 0-.4.4-1.1 1.1-2.2 1.2-1.9 1.9-2.9 2.1-3.2.8-1.3 1.2-2.4 1.3-3.4s.6-1.5 1.5-1.5c1.3 0 2 .5 2 1.5 0 .5-.1 1-.4 1.6-.4.8-1 1.9-1.9 3.2-.6.9-1 1.6-1.2 2-.3.7-.5 1.5-.5 2.2 2-.6 4.9-1.3 8.7-2.2.1-.9.1-2.2.1-3.8 0-.3-.1-.8-.3-1.4-.2-.6-.3-1.1-.3-1.4 0-.4.2-.7.7-.9.4-.2.8-.3 1.2-.3.9 0 1.4.5 1.6 1.4.1.3.1 1.2.1 2.6 0 .5 0 1.1-.1 1.8s-.1 1.3-.1 1.8c.6.2 1 .3 1.1.4.2.4.4.9.4 1.7zm19.4 5.3c-.7 1.3-1.6 2.4-2.9 3.3-.8.5-2.1 1.2-4 2-1.4.6-3.2.9-5.3.9-1 0-2.1-.2-3.1-.7-1.7-.8-2.6-2-2.6-3.8 0-1.5.4-2.9 1.3-4.2.5-.7.9-1.3 1.4-1.7.3-.2.7-.5 1-.6s.4-.2.4-.2-.3-.3-1-.7c-.8-.4-1.4-.9-1.8-1.4-.6-.7-.9-1.5-.7-2.4.2-1.4.7-2.6 1.7-3.6s2.1-1.7 3.5-2.1c1.4-.4 3.2-.5 5.7-.5 2.8 0 4.7.9 5.5 2.8.2.5.3 1 .3 1.4s-.1.8-.3 1.1c-.5.8-1 1.4-1.4 1.8-.1.1-.7.5-1.8 1.4.6.2 1.1.3 1.7.5.5.2 1 .5 1.5 1 1.1 1 1.6 2.1 1.6 3.3-.2 1-.3 1.7-.7 2.4zm-2.1-2.2c0-.7-.8-1.2-2.5-1.4-.6-.1-1.7-.1-3.3-.1-2.4 0-4.3.7-5.6 2.1-.9.8-1.3 1.5-1.3 2.2s.3 1.1 1 1.4c.9.3 1.9.5 3 .5.3 0 .6 0 .8-.1 1.4-.2 2.9-.7 4.4-1.5.7-.4 1.5-.8 2.1-1.3.9-.6 1.4-1.2 1.4-1.8zm-1.8-9c0-.5-.4-.8-1.3-1.1-.6-.2-1.3-.3-1.9-.3-1 0-1.9.1-2.9.3s-1.7.5-2 .8c-1.4.9-2 1.5-2 2 0 .1 0 .2.1.3.1.2.2.4.4.6.2.2.9.3 2.1.3.6 0 1.1.1 1.5.1 1.1 0 2.1-.2 2.8-.6 2.1-1 3.2-1.8 3.2-2.4zm26.1 6c0 .6-.1 1.1-.2 1.8-.6 2.9-1.9 5.1-3.8 6.7-1.6 1.4-3.9 2.5-7 3.3-.8.2-1.7.3-2.5.3-2.2 0-3.9-.7-5.2-2.1-1.2-1.3-1.7-3.1-1.7-5.3 0-2.3.5-4.5 1.4-6.5 1-2.2 2.3-4 4-5.2 1.9-1.4 3.4-2.1 4.6-2.1 1.2 0 2.3.2 3.5.6 1.3.4 2.4 1 3.1 1.7 1.2 1.2 2 2.2 2.6 3.2.8 1 1.2 2.3 1.2 3.6zm-2.9-.1c0-1.5-.6-2.8-1.7-3.9s-2.4-1.6-3.9-1.6c-.6 0-1.2.2-1.9.5s-1.2.5-1.4.5-.4-.1-.6-.2c-1.4.5-2.7 1.6-3.9 3.2-1.1 1.6-1.7 3.2-1.7 4.8 0 3.2 1.7 4.9 5.2 4.9 2.8 0 5.2-.9 7.1-2.8 1.8-1.9 2.8-3.6 2.8-5.4zm24.8.1c0 .6-.1 1.1-.2 1.8-.6 2.9-1.9 5.1-3.8 6.7-1.6 1.4-3.9 2.5-7 3.3-.8.2-1.7.3-2.5.3-2.2 0-3.9-.7-5.2-2.1-1.2-1.3-1.7-3.1-1.7-5.3 0-2.3.5-4.5 1.4-6.5 1-2.2 2.3-4 4-5.2 1.9-1.4 3.4-2.1 4.6-2.1 1.2 0 2.3.2 3.5.6 1.3.4 2.4 1 3.1 1.7 1.2 1.2 2 2.2 2.6 3.2.8 1 1.2 2.3 1.2 3.6zm-3-.1c0-1.5-.6-2.8-1.7-3.9s-2.4-1.6-3.9-1.6c-.6 0-1.2.2-1.9.5s-1.2.5-1.4.5-.4-.1-.6-.2c-1.4.5-2.7 1.6-3.9 3.2-1.1 1.6-1.7 3.2-1.7 4.8 0 3.2 1.7 4.9 5.2 4.9 2.8 0 5.2-.9 7.1-2.8 1.9-1.9 2.8-3.6 2.8-5.4z"/><path class="st0" d="M269 46.7v3h97.5v224.5h-339V49.7H125v-3H24.5v230.5h345V46.7z"/><path class="st0" d="M77.4 145.6h-3.9l-2-5.5h-8.2l-2 5.5h-3.8l8-20.7h3.9l8 20.7zm-9.9-16.9l-3.2 8.7h6.3l-3.1-8.7zm19.7-3.6c3.8 0 6.3 2.2 6.3 5.5 0 2-1.1 3.6-2.8 4.2 2.3.6 3.7 2.4 3.7 4.8 0 3.9-3 6.6-7.2 6.6s-7.1-2.7-7.1-6.7v-.4h3.2c.1 2.9 1.4 4.3 4 4.3 2.2 0 3.7-1.4 3.7-3.6 0-2.5-1.9-3.4-4.1-3.4h-1.1v-2.5h.2c2 0 4.2-.3 4.2-2.9 0-1.8-1.2-3-3.1-3-2.1 0-3.3 1.4-3.4 4h-3.2c.2-4.4 2.7-6.9 6.7-6.9zm30.3 14.1H109v-3.1h8.5v3.1z"/><path class="st1" d="M306.5 138.8v6.8h-1.8v-8.3h5.8v1.4l-4 .1zm7.8-.3c.6-.9 1.6-1.3 2.7-1.3 2.3 0 3.8 1.7 3.8 4.4 0 2.6-1.4 4.3-3.7 4.3-1.1 0-2-.4-2.7-1.3v4.1h-1.8v-11.3h1.7v1.1zm.1 3c0 1.8.9 2.9 2.3 2.9s2.3-1.1 2.3-2.9c0-1.8-.9-2.9-2.3-2.9-1.5 0-2.3 1.1-2.3 2.9zm9.1 4.1v-8.3h1.8v3.2h3.6v-3.2h1.8v8.3h-1.8V142h-3.6v3.6h-1.8zm12.6 0H334v-2.2h2.2v2.2h-.1z"/><path class="st0" d="M77.4 190.5h-3.9l-2-5.5h-8.2l-2 5.5h-3.8l8-20.7h3.9l8 20.7zm-9.9-16.9l-3.2 8.7h6.3l-3.1-8.7zm26.9 12.1h-2.6v4.8h-3.2v-4.8H80v-3.3l8.7-12.4h3.1v12.9h2.6v2.8zm-5.7-11.6l-6 8.8h6v-8.8zm28.8 10H109V181h8.5v3.1z"/><path class="st1" d="M306.8 183.7v6.8H305v-8.3h5.8v1.4l-4 .1zm7.8-.3c.6-.9 1.6-1.3 2.7-1.3 2.3 0 3.8 1.7 3.8 4.4 0 2.6-1.4 4.3-3.7 4.3-1.1 0-2-.4-2.7-1.3v4.1h-1.8v-11.3h1.7v1.1zm0 3c0 1.8.9 2.9 2.3 2.9s2.3-1.1 2.3-2.9c0-1.8-.9-2.9-2.3-2.9s-2.3 1.1-2.3 2.9zm9.2 4.1v-8.3h1.8v3.2h3.6v-3.2h1.8v8.3h-1.8v-3.6h-3.6v3.6h-1.8zm12.6 0h-2.2v-2.2h2.2v2.2z"/><path class="st0" d="M156.2 55.8v-9.3h2.1v3.6h4.1v-3.6h2.1v9.3h-2.1v-4h-4.1v4h-2.1zm15.6-9.6c2.2 0 3.8.8 3.8 2.8v4.7c0 .5.1.7.5.7h.5v1.4c-.6.2-.9.2-1.3.2-.8 0-1.4-.3-1.5-1.1-.9.8-2 1.1-3.3 1.1-1.9 0-3.1-1.1-3.1-2.8 0-2.5 2.3-2.7 4.2-2.9 1.4-.2 1.8-.3 2-.5.1-.1.1-.3.1-.7 0-1-.6-1.4-1.9-1.4-1.3 0-1.9.5-2.1 1.7h-1.9c.2-2.3 1.7-3.2 4-3.2zm-.3 5.5c-.9.1-2 .3-2 1.5 0 .9.6 1.4 1.7 1.4.9 0 1.6-.3 2.1-.7.4-.4.4-1 .4-1.6v-1.1c-.7.3-1.5.4-2.2.5zm17.7-8.6c2.3 0 3.9 1.4 3.9 3.4 0 1.2-.7 2.2-1.8 2.6 1.4.4 2.3 1.5 2.3 3 0 2.4-1.8 4.1-4.5 4.1s-4.4-1.7-4.4-4.1v-.3h2c.1 1.8.9 2.7 2.4 2.7 1.4 0 2.3-.9 2.3-2.2 0-1.5-1.2-2.1-2.5-2.1h-.6v-1.5h.2c1.3 0 2.6-.2 2.6-1.8 0-1.1-.8-1.8-1.9-1.8-1.3 0-2.1.9-2.1 2.5h-2c0-2.9 1.6-4.5 4.1-4.5zm13.7 12.7v-9.3h2.7l2.6 7.4 2.5-7.4h2.7v9.3h-2v-6.2l-2.2 6.2h-2.1l-2.2-6.2v6.2h-2zm16-10.8h-2.1v-2h2.1v2zm0 10.8h-2.1v-9.3h2.1v9.3zm7.7.3c-2.8 0-4.6-2-4.6-4.8 0-3.1 1.8-5 4.6-5 2.4 0 3.9 1.3 4.1 3.4h-2c-.2-1.2-1-1.8-2.1-1.8-1.6 0-2.6 1.3-2.6 3.3s.9 3.3 2.5 3.3c1.2 0 2-.8 2.2-2.1h2c-.1 2.2-1.8 3.7-4.1 3.7zm9.7-.3h-2.4v-2.4h2.4v2.4zM99 28.8h-5.3v-1.9H99v1.9zm10.7-6.7h-5l-.6 3.2c.7-.7 1.4-.9 2.4-.9 2.3 0 3.9 1.7 3.9 4.1 0 2.7-1.8 4.5-4.5 4.5-2.5 0-4.2-1.5-4.3-3.8h2c.1 1.3 1 2.1 2.3 2.1 1.5 0 2.3-1 2.3-2.7s-.9-2.6-2.4-2.6c-.9 0-1.6.3-2.1 1.1h-1.8l1.2-6.8h6.5l.1 1.8zm10.1 1.4c0 2.4-1 3.7-2.9 3.7S114 26 114 23.6c0-2.2 1.1-3.5 3-3.5 1.8 0 2.8 1.2 2.8 3.4zm-4.3.2c0 1.6.4 2.3 1.3 2.3 1.3 0 1.4-1.5 1.4-2.5 0-.9-.1-2.3-1.3-2.3-.9 0-1.4.8-1.4 2.5zm2.9 9.7H117l7.1-13.6h1.4l-7.1 13.6zm10.5-4c0 2.4-1 3.7-2.9 3.7s-2.9-1.2-2.9-3.6c0-2.2 1.1-3.5 3-3.5 1.8 0 2.8 1.2 2.8 3.4zm-4.3.2c0 1.6.4 2.3 1.3 2.3 1.3 0 1.4-1.5 1.4-2.5 0-.9-.1-2.3-1.3-2.3-1 0-1.4.8-1.4 2.5zm14.4 3.2v-9.3h8.2v9.3h-2.1v-7.7H141v7.7h-2zm13.5-8c.6-1 1.8-1.5 3-1.5 2.6 0 4.2 1.9 4.2 4.9 0 2.9-1.6 4.8-4.1 4.8-1.3 0-2.3-.4-3-1.5v4.7h-2V23.5h1.9v1.3zm.1 3.4c0 2 1 3.2 2.6 3.2s2.5-1.2 2.5-3.2-1-3.3-2.6-3.3-2.5 1.2-2.5 3.3zm10.2 4.6v-9.3h2.1v6.8h.1l3.5-6.8h2.6v9.3H169V26h-.1l-3.5 6.8h-2.6zm21.5.3c-2.7 0-4.1-1.2-4.2-3.2h2.1c.2 1.3 1.2 1.6 2.1 1.6 1.1 0 1.9-.5 1.9-1.4 0-.8-.4-1.4-1.8-1.4h-1.1v-1.5h.8c1.1 0 1.9-.3 1.9-1.2 0-.7-.5-1.2-1.7-1.2-1.1 0-1.6.6-1.8 1.4h-2.1c.2-2.4 2.2-3 4.1-3 1.9 0 3.5.7 3.5 2.5 0 1.1-.7 1.8-1.5 2 .9.2 1.8.9 1.8 2.3 0 2.1-2 3.1-4 3.1zm10.9-9.9c2.2 0 3.8.8 3.8 2.8v4.7c0 .5.1.7.5.7h.5v1.4c-.6.2-.9.2-1.3.2-.8 0-1.4-.3-1.5-1.1-.9.8-2 1.1-3.3 1.1-1.9 0-3.1-1.1-3.1-2.8 0-2.5 2.3-2.7 4.2-2.9 1.4-.2 1.8-.3 2-.5.1-.1.1-.3.1-.7 0-1-.6-1.4-1.9-1.4-1.3 0-1.9.5-2.1 1.7h-1.9c.2-2.3 1.8-3.2 4-3.2zm-.3 5.5c-.9.1-2 .3-2 1.5 0 .9.6 1.4 1.7 1.4.9 0 1.6-.3 2.1-.7.4-.4.4-1 .4-1.6v-1.1c-.7.3-1.4.4-2.2.5zm7.6 4.1v-9.3h2.7l2.6 7.4 2.5-7.4h2.7v9.3h-2v-6.2l-2.2 6.2h-2.1l-2.2-6.2v6.2h-2zm22.9-4.6c0 3-1.8 4.9-4.6 4.9-2.9 0-4.7-1.9-4.7-4.9s1.9-4.9 4.7-4.9c2.8 0 4.6 1.9 4.6 4.9zm-7.3 0c0 2.1 1 3.3 2.6 3.3s2.6-1.3 2.6-3.4c0-2-1-3.3-2.6-3.3s-2.6 1.3-2.6 3.4zm15.2 4.6h-4.9v-9.3h5.1c1.7 0 2.8.8 2.8 2.3 0 1-.4 1.5-1.3 2 1.2.3 1.8 1.1 1.8 2.4-.1 1.7-1.3 2.6-3.5 2.6zm-2.9-7.7v2.1h2.6c.8 0 1.2-.4 1.2-1.1s-.4-1-1.2-1h-2.6zm0 3.6v2.6h2.8c.9 0 1.4-.4 1.4-1.3 0-.8-.5-1.3-1.4-1.3h-2.8zm15.1 4.1v-7.7h-2.8l-.1 4.1c-.1 2.4-1.1 3.8-2.8 3.8-.4 0-1-.1-1.3-.2v-1.6c.1.1.5.1.7.1.6 0 1.2-.4 1.3-2.3l.2-5.5h6.9v9.3h-2.1zm9.5.3c-2.9 0-4.6-2.1-4.6-4.8 0-2.9 1.9-5 4.5-5 2.7 0 4.4 2 4.4 5.2v.2h-6.9c.1 1.9 1 2.9 2.6 2.9 1.1 0 1.8-.5 2.2-1.7h2c-.4 2.1-2.1 3.2-4.2 3.2zm-.1-8.3c-1.4 0-2.2.9-2.4 2.5h4.8c-.1-1.6-1-2.5-2.4-2.5zm7.3 8v-9.3h2v3.6h4.1v-3.6h2v9.3h-2v-4h-4.1v4h-2zm11.6 0v-9.3h2v3.6h4.1v-3.6h2v9.3h-2v-4h-4.1v4h-2zM287.5 22h-2v-2h2v2zm0 10.8h-2v-9.3h2v9.3zM77.4 235.4h-3.9l-2-5.5h-8.2l-2 5.5h-3.8l8-20.7h3.9l8 20.7zm-9.9-16.9l-3.2 8.7h6.3l-3.1-8.7zm25.6-.4H85l-.9 5.2c1.1-1.1 2.3-1.4 3.8-1.4 3.8 0 6.3 2.7 6.3 6.7 0 4.3-3 7.3-7.3 7.3-4 0-6.7-2.4-6.9-6.2h3.3c.2 2.1 1.6 3.4 3.7 3.4 2.4 0 3.8-1.6 3.8-4.4 0-2.7-1.4-4.3-3.8-4.3-1.5 0-2.5.5-3.4 1.8l-2.9-.1 1.9-11h10.5v3zm24.4 10.9H109v-3.1h8.5v3.1z"/><path class="st1" d="M306.9 228.6v6.8h-1.8v-8.3h5.8v1.4l-4 .1zm7.8-.3c.6-.9 1.6-1.3 2.7-1.3 2.3 0 3.8 1.7 3.8 4.4 0 2.6-1.4 4.3-3.7 4.3-1.1 0-2-.4-2.7-1.3v4.1H313v-11.3h1.7v1.1zm.1 3c0 1.8.9 2.9 2.3 2.9s2.3-1.1 2.3-2.9c0-1.8-.9-2.9-2.3-2.9-1.5 0-2.3 1.1-2.3 2.9zm9.1 4.1v-8.3h1.8v3.2h3.6v-3.2h1.8v8.3h-1.8v-3.6h-3.6v3.6h-1.8zm12.6 0h-2.2v-2.2h2.2v2.2zM135.3 147c17.6-5.6 35-11.8 52.9-16.1 5.4-1.3 10.9-2.5 16.4-3.5 1.4-.3.8-2.4-.6-2.2-18.2 3.4-35.8 8.7-53.4 14.5-5.3 1.7-10.6 3.5-16 5.2-1.3.3-.7 2.5.7 2.1z"/><path class="st1" d="M136.8 132.8c18.3 1.2 36.6 1.7 54.8 4.1 5.6.7 11.1 1.6 16.6 2.7 1.4.3 2-1.9.6-2.2-18.2-3.4-36.6-4.8-55.1-5.8-5.6-.3-11.3-.6-16.9-1-1.5-.1-1.5 2.1 0 2.2zm-1.5 59.2c17.6-5.6 35-11.8 52.9-16.1 5.4-1.3 10.9-2.5 16.4-3.5 1.4-.3.8-2.4-.6-2.2-18.2 3.4-35.8 8.7-53.4 14.5-5.3 1.7-10.6 3.5-16 5.2-1.3.3-.7 2.5.7 2.1z"/><path class="st1" d="M136.8 177.8c18.3 1.2 36.6 1.7 54.8 4.1 5.6.7 11.1 1.6 16.6 2.7 1.4.3 2-1.9.6-2.2-18.2-3.4-36.6-4.8-55.1-5.8-5.6-.3-11.3-.6-16.9-1-1.5-.1-1.5 2.1 0 2.2zm-1.5 59.2c17.6-5.6 35-11.8 52.9-16.1 5.4-1.3 10.9-2.5 16.4-3.5 1.4-.3.8-2.4-.6-2.2-18.2 3.4-35.8 8.7-53.4 14.5-5.3 1.7-10.6 3.5-16 5.2-1.3.3-.7 2.5.7 2.1z"/><path class="st1" d="M136.8 222.8c18.3 1.2 36.6 1.7 54.8 4.1 5.6.7 11.1 1.6 16.6 2.7 1.4.3 2-1.9.6-2.2-18.2-3.4-36.6-4.8-55.1-5.8-5.6-.3-11.3-.6-16.9-1-1.5-.1-1.5 2.1 0 2.2zm95.2-82.1c.3 1.7 1.4 2.5 3.1 2.5 3.3 0 3.9-4.1 4.1-6.7-1.2 1.7-2.6 2.6-4.8 2.6-4.1 0-7.1-3.1-7.1-7.4 0-4.6 3.4-8 8-8 6.2 0 8.3 5.6 8.3 10.9 0 5.4-2.1 12-8.6 12-4.1 0-6.9-2.3-7.4-6h4.4zm-.3-9c0 2.4 1.5 4.1 3.5 4.1s3.5-1.7 3.5-4c0-2.4-1.5-4.1-3.6-4.1-1.9-.1-3.4 1.6-3.4 4zm26.3 14.7h-4.8v-14.5h-5.4v-3.3h.6c3.1 0 5.3-1.2 5.9-4.5h3.7v22.3zm22.9 0h-16.3c.1-5.2 2.8-7.1 6.9-9.8 2-1.3 4.8-2.8 4.8-5.5 0-1.9-1.3-3.2-3.2-3.2-2.4 0-3.5 1.6-3.6 4.8h-4.3v-.5c0-5.1 3.2-8.3 8.1-8.3 4.5 0 7.6 2.8 7.6 6.8 0 3.6-2 5.2-4.6 7-1.9 1.3-4.5 2.8-5.8 4.7H281v4zm18.9-11c0 7.1-3.1 11.4-8.1 11.4-5.2 0-8.3-4.2-8.3-11.4 0-5.3 1.9-11.4 8.2-11.4 6.4-.1 8.2 6.1 8.2 11.4zm-11.9.2c0 5.1 1.2 7.5 3.8 7.5 2.5 0 3.7-2.5 3.7-7.7 0-5.3-1.1-7.7-3.7-7.7-3.8 0-3.8 5.2-3.8 7.9zm-48.2 40.3c-.4-1.7-1.4-2.5-3-2.5-2.5 0-3.9 2.1-4.2 6.6 1.2-1.7 2.9-2.5 5-2.5 4.1 0 7 3.1 7 7.4 0 4.6-3.3 7.9-7.9 7.9-5.3 0-8.4-4.1-8.4-11.1 0-7.3 3.3-11.8 8.7-11.8 4 0 6.7 2.2 7.2 6h-4.4zm-6.8 9.1c0 2.4 1.5 4.1 3.5 4.1 2.1 0 3.6-1.8 3.6-4.1s-1.5-4.1-3.6-4.1-3.5 1.7-3.5 4.1zm14.4-9.1c0-3.5 3.2-6 7.5-6s7.5 2.5 7.5 6c0 2.3-1.1 3.9-3.2 4.6 2.6.6 4.2 2.7 4.2 5.4 0 4.1-3.3 6.8-8.4 6.8-5.1 0-8.4-2.7-8.4-6.8 0-2.8 1.6-4.8 4.2-5.4-2.2-.7-3.4-2.3-3.4-4.6zm3.7 9.8c0 2.2 1.6 3.6 3.9 3.6s3.9-1.4 3.9-3.6c0-2.1-1.6-3.6-4-3.6-2.3.1-3.8 1.5-3.8 3.6zm.5-9.5c0 1.8 1.3 3 3.4 3 2.1 0 3.4-1.2 3.4-3s-1.3-2.9-3.4-2.9c-2.1 0-3.4 1.2-3.4 2.9zm30.3 11.1h-3v5.1h-4.2v-5.1H265v-4.2l9.7-13.1h4.1v13.5h3v3.8zm-7.2-12.1l-5.9 8.3h5.9v-8.3zm25.7 6.2c0 7.1-3.1 11.4-8.1 11.4-5.2 0-8.3-4.2-8.3-11.4 0-5.3 1.9-11.4 8.2-11.4 6.5 0 8.2 6.2 8.2 11.4zm-11.9.2c0 5.1 1.2 7.5 3.8 7.5 2.5 0 3.7-2.5 3.7-7.7 0-5.3-1.1-7.7-3.7-7.7-3.8 0-3.8 5.3-3.8 7.9zm-43.9 48.7h-3v5.1h-4.2v-5.1h-9.6v-4.2l9.7-13.1h4.1v13.5h3v3.8zm-7.2-12.1l-5.9 8.3h5.9v-8.3zm24.3-1.1h-9.1l-.9 4.8c1.1-1.1 2.3-1.6 4.1-1.6 4.3 0 7.1 2.9 7.1 7.3 0 4.7-3.5 8-8.4 8-4.5 0-7.9-2.4-8.1-6.9h4.5c.2 1.9 1.7 3.3 3.7 3.3 2.3 0 3.9-1.8 3.9-4.3s-1.5-4.1-3.9-4.1c-1.5 0-2.5.5-3.3 1.8h-4l2.2-12.3h12.5v4zm15.4 1.8c-.4-1.7-1.4-2.5-3-2.5-2.5 0-3.9 2.1-4.2 6.6 1.2-1.7 2.9-2.5 5-2.5 4.1 0 7 3.1 7 7.4 0 4.6-3.3 7.9-7.9 7.9-5.3 0-8.4-4.1-8.4-11.1 0-7.3 3.3-11.8 8.7-11.8 4 0 6.7 2.2 7.2 6H277zm-6.8 9.1c0 2.4 1.5 4.1 3.5 4.1 2.1 0 3.6-1.8 3.6-4.1s-1.5-4.1-3.6-4.1c-2 0-3.5 1.7-3.5 4.1zm30.1-3.6c0 7.1-3.1 11.4-8.1 11.4-5.2 0-8.3-4.2-8.3-11.4 0-5.3 1.9-11.4 8.2-11.4 6.5 0 8.2 6.2 8.2 11.4zm-11.9.2c0 5.1 1.2 7.5 3.8 7.5 2.5 0 3.7-2.5 3.7-7.7 0-5.3-1.1-7.7-3.7-7.7-3.8 0-3.8 5.3-3.8 7.9z"/></svg>