<svg xmlns="http://www.w3.org/2000/svg" viewBox="0 0 556 424"><path fill="none" stroke="#878787" stroke-width="8.772" stroke-miterlimit="10" d="M189.97 147.62h174.3v128.75h-174.3z"/><path d="M360.73 144.95l93.24-103.82 16.78 16.78-103.82 93.25zm6.2 127.44l104.61 92.45-18.36 18.37-92.45-104.62zm-172.11 6.2l-92.96 104.1-17.34-17.33 104.1-92.97zm-6.2-127.43L84.46 58.25l17.46-17.46 92.9 104.16z" fill="#878787"/><path d="M311.55 239.41h-68.87c-3.82 0-6.91-3.09-6.91-6.91v-41c0-3.82 3.09-6.91 6.91-6.91h68.87c3.82 0 6.91 3.09 6.91 6.91v41c0 3.81-3.09 6.91-6.91 6.91z" fill="#128cb9"/><path d="M349.48 307.39H204.76c-25.74 0-46.61-20.87-46.61-46.61v-97.57c0-25.74 20.87-46.61 46.61-46.61h144.72c25.74 0 46.61 20.87 46.61 46.61v97.57c0 25.74-20.87 46.61-46.61 46.61z" fill="none" stroke="#878787" stroke-width=".822" stroke-miterlimit="10"/><path d="M367.19 321.59H187.05c-25.74 0-46.61-20.87-46.61-46.61V149.01c0-25.74 20.87-46.61 46.61-46.61h180.14c25.74 0 46.61 20.87 46.61 46.61v125.97c0 25.74-20.87 46.61-46.61 46.61z" fill="none" stroke="#878787" stroke-width="1.097" stroke-miterlimit="10"/><path d="M387.99 338.27H166.24c-25.74 0-46.61-20.87-46.61-46.61V132.33c0-25.74 20.87-46.61 46.61-46.61h221.75c25.74 0 46.61 20.87 46.61 46.61v159.34c0 25.73-20.86 46.6-46.61 46.6z" fill="none" stroke="#878787" stroke-width="2.193" stroke-miterlimit="10"/><path d="M419.93 363.88H134.3c-25.74 0-46.61-20.87-46.61-46.61V106.71c0-25.74 20.87-46.61 46.61-46.61h285.63c25.74 0 46.61 20.87 46.61 46.61v210.56c0 25.75-20.86 46.61-46.61 46.61z" fill="none" stroke="#878787" stroke-width="3.29" stroke-miterlimit="10"/></svg>