<svg version="1.1" id="Слой_1" xmlns="http://www.w3.org/2000/svg" x="0" y="0" viewBox="0 0 556 424" xml:space="preserve"><style>.st0{fill:#878787}</style><path class="st0" d="M249.74 224.35c-12.38.31-22.17-2.67-30.57-9.84-8.49-7.24-9.95-16.73-2.62-24.95 13.63-15.28 27.37-30.51 41.97-44.85 12.14-11.93 27.33-15.35 44.08-11.23 16.9 4.16 33.94 7.76 50.74 12.29 8.99 2.42 17.48 2.99 26.24-.46 4.03-1.59 8.3-2.65 12.55-3.53 5.25-1.09 7.7-3.25 7.17-9.32-.6-6.96 3.23-12.42 9.78-15.08 14.94-6.07 29.9-12.12 45.07-17.56 9.74-3.49 17.95.16 22.05 9.86 12.26 29 24.09 58.18 36.06 87.3 1.67 4.07 2.46 8.54-2.43 10.59-5.44 2.28-7.81-2.05-9.55-6.25-11.23-27.21-22.58-54.38-33.46-81.73-2.79-7-6.3-9.06-13.38-6.12-11.58 4.82-23.32 9.25-35.08 13.6-5.82 2.16-7.22 5.51-4.91 11.29 17.1 42.78 34.1 85.6 51.01 128.45 2.05 5.18 4.9 6.49 10.06 4.3 12.96-5.5 25.98-10.85 39.09-16 5.2-2.04 6.52-5.28 4.57-10.23-1.41-3.57-2.92-7.1-4.28-10.69-1.38-3.63-.48-6.73 3.04-8.43 3.66-1.77 6.67-.17 8.23 3.27 2.43 5.34 5.04 10.73 6.49 16.38 2.23 8.64-1.26 15.93-9.57 19.57-15.47 6.77-31.16 13.07-46.85 19.31-7.39 2.94-13.99.35-18.46-5.56-3.38-4.46-6.49-5.77-11.62-3.84-4.21 1.58-9.18 2.57-10.89-3.17-1.85-6.22 3.23-8.03 7.84-8.99 5.3-1.11 5.8-3.62 3.97-8.18-12.85-32.08-25.63-64.18-38.23-96.35-2.14-5.45-5.16-7.21-10.55-4.8-20.74 9.26-41.5 7.94-62.7 1.14-12.15-3.9-24.85-6.07-37.3-9-11.08-2.61-21.21-.11-29.1 7.75-13.78 13.73-26.85 28.16-40.26 42.26-4.05 4.25-3 7.56 1.45 10.69 11.2 7.89 27.89 7.05 39.44-1.97 9.28-7.25 18.67-14.35 28.01-21.52 3.53-2.71 7.4-4.56 10.76-.29 3.41 4.34.55 7.58-2.99 10.27-10.8 8.21-21.5 16.56-32.47 24.54-7.03 5.1-15.05 7.61-22.4 7.08zm-11.24-80.16c-7.48-.64-14.11 1.69-20.39 5.55-9.38 5.77-19 11.16-28.21 17.18-5.36 3.5-10 3.53-15.69.69-17.09-8.52-16.98-8.22-25.42 9.03-12.72 25.98-25.5 51.94-38.85 77.6-3.67 7.06-2.25 10.54 4.44 13.51 3.25 1.44 6.21 3.58 9.17 5.59 3.08 2.09 4.75 4.95 2.56 8.51-2.29 3.71-5.66 4-9.34 1.99-1.12-.61-2.25-1.24-3.29-1.98-6.6-4.65-12.5-8.78-19.99-.17-4 4.6-11.05 3.62-16.64.88-14.49-7.1-28.97-14.22-43.2-21.81-9.82-5.24-12.38-14.11-7.7-24.21 1.83-3.94 3.92-7.78 6.11-11.53 1.96-3.37 4.78-5.8 8.83-3.65 4.31 2.27 4.14 6.05 2.2 9.93-1.49 2.97-3.13 5.88-4.66 8.83-2.45 4.7-1.6 8.24 3.4 10.71 12.62 6.25 25.2 12.6 37.74 18.99 4.88 2.49 8.12 1.33 10.55-3.62 20.44-41.58 40.95-83.13 61.51-124.66 2.32-4.68 1.22-7.75-3.37-9.95-12.7-6.07-25.41-12.16-38.06-18.33-5.76-2.81-7.74 1.03-9.83 5.15-12.9 25.33-25.77 50.67-38.83 75.91-2.54 4.91-4.45 13.33-11.94 9.68-7.9-3.85-1.72-10.24.71-15.08 12.87-25.63 25.96-51.15 38.97-76.7 6.85-13.45 14.67-16.12 28.12-9.63 12.22 5.9 24.49 11.7 36.66 17.7 10.78 5.31 13.79 11.63 10.66 22.98-.94 3.41-.24 4.96 2.7 6.75 8.66 5.28 16.68 7.74 25.82.2 6.25-5.16 13.88-8.66 20.91-12.86 8.67-5.18 18.12-6.83 28.07-6 4.59.39 9.43 1.5 9.2 7.08-.24 5.87-5.3 5.93-9.86 5.74-1.02-.04-2.05 0-3.06 0z"/><path class="st0" d="M366.82 345.54c-8.69-4.93-12.39 1.03-16.72 9.07-4.88 9.06-16.51 12.48-26.93 9.35-4.42-1.33-6.43-1.26-8.58 3.56-7.15 16.09-23.03 20.9-38.28 12.16-3.99-2.29-7.95-4.67-11.73-7.3-3.01-2.09-4.58-5.05-2.28-8.57 2.18-3.34 5.34-3.75 8.72-1.85 4.24 2.38 8.29 5.11 12.62 7.3 6.86 3.47 13.7 1.82 17.75-3.91 4.02-5.68 3.28-12.72-2.53-17.92-6.1-5.45-12.61-10.45-18.98-15.59-3.78-3.04-7.7-6.48-3.73-11.41 4.24-5.27 8.29-1.09 11.81 1.71 10.61 8.45 21.02 17.16 31.67 25.56 7.97 6.29 15.46 6.07 20.33-.18 4.79-6.14 2.52-14.34-5.55-20.22-8.69-6.33-17.38-12.67-26.05-19.02-3.34-2.44-6.07-5.5-3.35-9.66 3-4.59 7.11-3.09 10.7-.51 12.27 8.81 24.46 17.73 36.67 26.61 2.28 1.66 4.47 3.44 6.84 4.95 7.08 4.51 14.97 3.54 19.32-2.26 3.97-5.3 3.07-13.58-2.81-18.65-9.88-8.52-20.15-16.6-30.25-24.87-1.58-1.3-3.22-2.55-4.69-3.96-2.65-2.54-4.03-5.53-1.45-8.82 2.78-3.54 6.19-3.21 9.43-.63 10.42 8.28 20.78 16.65 31.16 24.98 2.99 2.4 5.87 4.97 9.01 7.17 8.71 6.11 19.18 4.87 25.51-2.86 5.99-7.31 5.55-18.04-2.07-24.97-12.68-11.54-25.89-22.49-38.89-33.67-17.27-14.84-34.54-29.68-51.83-44.49-3.54-3.03-6.82-6.4-2.79-10.9 3.62-4.04 7.4-1.74 10.74 1.12 29.52 25.33 59 50.71 88.57 75.98 11.19 9.56 16.2 21.12 11.16 35.5-4.87 13.92-15.46 20.55-29.91 21-4.42.14-5.26 2.47-6.2 6.08-3.12 12.05-13.25 19.95-26.41 20.12zm-217.7-72.93c9.37.06 15.62 3.32 19.54 9.91 2.39 4.02 5.02 5.81 9.76 5.52 8.72-.53 15.37 3.61 19.78 10.88 2.21 3.65 4.67 4.54 8.77 4.19 11.83-.99 20.49 4.4 24.51 15.43 1.49 4.09 3.27 5.96 7.78 6.82 18.49 3.51 25.62 22.23 14.62 37.62-3.12 4.37-6.16 8.84-9.72 12.83-10.86 12.15-26.33 11.7-36.16-1.37-3.04-4.04-5.7-5.21-10.72-4.61-11.68 1.39-21.97-6.17-25.13-18.02-.96-3.61-1.87-5.8-6.14-6.24-9.32-.98-15.47-6.53-18.25-15.31-1.25-3.95-3.05-5.54-7.24-6.34-15.91-3-23.02-19.31-14.32-33.02 5.72-9.04 11.61-18.52 22.92-18.29zm59.85 43.05c-2.04.35-4.91.42-6.59 2.48-6.14 7.53-12.59 14.94-16.98 23.61-2.48 4.9-1.14 10.2 3.99 13.45 5.28 3.34 10.72 2.84 14.47-2.02 5.47-7.07 10.63-14.48 15-22.26 3.87-6.87-1.64-15.15-9.89-15.26zm18.67 55.53c.75-.18 2.58-.09 3.63-.95 6.77-5.58 12.11-12.42 14.91-20.73 1.3-3.85-1.02-7.47-4.48-9.75-3.76-2.47-8.06-2.86-11.38.13-5.69 5.12-10.51 11.26-13.06 18.5-2.49 7.07 2.39 13 10.38 12.8zm-38.99-60.34c.1-4.27-1.66-7.65-5.61-9.17-4.28-1.64-8.85-1.53-12.01 2.25-3.76 4.49-7.16 9.32-10.29 14.27-2.42 3.83-1.79 7.94 1.01 11.44 2.95 3.7 7.1 3.83 11.22 2.76 4.84-1.26 15.65-16.4 15.68-21.55zm-44.74.45c7.62-.18 17.26-13.18 15.07-19.66-1.62-4.78-5.35-6.63-10.24-5.84-5.55.89-13.94 12.38-13.13 17.99.74 5.08 4.06 7.33 8.3 7.51z"/><path d="M284.44 68.26c0 7.15.08 14.3-.03 21.45-.06 3.97-1.71 7.28-6.08 7.44-4.42.16-6.42-3.14-6.47-7.04-.19-14.55-.18-29.11-.03-43.67.04-3.93 1.97-7.19 6.43-7.04 4.42.14 6.03 3.49 6.11 7.41.16 7.15.04 14.3.04 21.45h.03zm-78.6-15.51c2.85-.2 4.77 1.48 6.6 3.31 9.56 9.54 19.13 19.07 28.65 28.64 3.11 3.13 5.31 6.81 1.68 10.69-3.92 4.18-7.35 1.29-10.39-1.75-9.91-9.91-19.82-19.82-29.69-29.76-2.05-2.06-3.58-4.41-2.23-7.52 1.02-2.33 2.84-3.52 5.38-3.61zm111.61 44.61c-2.24-.06-3.96-1.1-5.01-3.02-1.53-2.8-1.06-5.58 1.01-7.82 3.81-4.13 7.81-8.09 11.78-12.08 6.14-6.16 12.26-12.34 18.49-18.41 3.19-3.11 7-5.05 10.72-1.21 3.62 3.74 1.03 7.04-1.83 9.91-9.75 9.78-19.53 19.54-29.3 29.3-1.64 1.65-3.36 3.18-5.86 3.33zM74.29 248.96c-7.76.04-14.56-5.07-15.74-11.93-.67-3.86.23-7.29 3.97-9.08 3.89-1.86 6.36.47 7.95 3.73 2.87 5.87 5.17 4.46 7.58-.32 1.36-2.69 3.52-4.69 6.74-3.74 3.39 1.01 4.41 3.9 4.52 7.23.23 7.62-6.6 14.07-15.02 14.11zm408.61 1.53c-8.59-.06-15.13-6.26-15.58-14.66-.19-3.5 1.22-6.02 4.47-7.15 3.43-1.19 6.26.25 7.43 3.5 2.37 6.54 4.97 6.54 8.4.84 1.63-2.71 4.03-4.03 7.1-2.76 3.26 1.35 4.25 4.08 3.86 7.5-.83 7.26-7.59 12.79-15.68 12.73z" fill="#128cb9"/></svg>