<svg version="1.1" id="Слой_1" xmlns="http://www.w3.org/2000/svg" x="0" y="0" viewBox="0 0 556 424" xml:space="preserve"><style>.st0{fill:#878787}</style><path class="st0" d="M314.88 209.9l-3.63 6.54 5.95-2.31c-.68-1.46-1.47-2.87-2.32-4.23zm24.26-132.4l-11.07 22.44 9.16 15.09-66.38 119.46c-.56.72-1.01 1.5-1.32 2.34l-.02.09c-.64 1.76-.7 3.71-.02 5.55 1.25 3.23 4.42 5.18 7.84 5.18 1.1 0 2.23-.21 3.33-.62a8.818 8.818 0 003.74-2.76l.03.02.05-.1a8.29 8.29 0 001.34-2.39l66.42-119.51 17.31-1.88 11.06-22.45-17.28 1.87 4.14-8.43 17.43-1.88 11.08-22.45-17.43 1.89 4.17-8.44 17.56-1.91 11.05-22.45-17.54 1.9.47-.95-14.96-7.37-.41.82-9.02-14.87-11.08 22.45 9.04 14.87-4.22 8.55-9.1-14.97-11.08 22.46 9.09 14.97-4.21 8.55-9.17-15.07z"/><path d="M343.43 69.05l11.08-22.46 9.1 14.97 4.22-8.55-9.04-14.87 11.08-22.45 9.02 14.87.41-.82 14.96 7.37-.47.95 17.54-1.9-11.06 22.44-17.56 1.91-4.17 8.44 17.43-1.89L384.9 89.5l-17.43 1.88-4.14 8.43 17.28-1.87-11.06 22.45-17.31 1.88-66.42 119.51a8.29 8.29 0 01-1.34 2.39l-.05.1-.03-.02a8.737 8.737 0 01-3.74 2.76c-1.1.42-2.23.62-3.33.62-3.42 0-6.59-1.95-7.84-5.18-.69-1.84-.62-3.79.02-5.55l.02-.09c.31-.84.76-1.62 1.32-2.34l66.38-119.46-9.16-15.09 11.07-22.44 9.18 15.08 4.21-8.55-9.1-14.96z" fill="#128cb9"/><path class="st0" d="M447.46 181.39l-16.81 6.48c4.17 14.22 6.42 29.26 6.42 44.82 0 87.81-71.19 159-159 159s-159-71.19-159-159 71.19-159 159-159c16.81 0 33.01 2.62 48.22 7.45l3.97-8.04 4.38-8.88c-37.81-12.84-80.14-13.06-120.25 2.41-90.91 35.08-136.36 137.59-101.26 228.52 35.06 90.93 137.6 136.38 228.5 101.3 86.49-33.36 131.76-127.69 105.83-215.06z"/><path class="st0" d="M376.72 208.69l-8.96 3.46a92.22 92.22 0 012.31 20.56c0 50.81-41.19 92-92 92s-92-41.19-92-92 41.19-92 92-92c10.75 0 21.06 1.85 30.65 5.24l4.63-8.34c-22.48-8.41-47.95-9.06-72.05.24-52.36 20.2-78.52 79.23-58.32 131.56 20.21 52.38 79.22 78.53 131.58 58.34 48.22-18.61 74.12-70.13 62.16-119.06z"/><path class="st0" d="M321.38 230.03l-7.36 2.84c.03.61.05 1.21.05 1.83 0 19.33-15.67 35-35 35s-35-15.67-35-35c0-19.25 15.54-34.87 34.77-34.99l5.51-9.91c-7.2-1.09-14.77-.42-22.07 2.39-22.42 8.65-33.6 33.83-24.94 56.26 8.65 22.43 33.84 33.59 56.25 24.94 18.17-7 28.94-24.89 27.79-43.36zm41.33-33.44l8.85-3.41c-6.2-14.65-15.54-27.07-26.86-36.92l-4.68 8.43a91.998 91.998 0 0122.69 31.9zm62.54-24.13l16.87-6.51c-11.08-27.68-28.43-51.05-49.79-69.11l-.96 1.93-.13.01-1.74 3.56-5.73 11.61c17.94 15.96 32.23 35.93 41.48 58.51z"/></svg>