<svg width="46" height="66" fill="none" xmlns="http://www.w3.org/2000/svg"><path d="M43.075 58.567v1.554c0 1.51.002 3.022 0 4.533-.002.566-.168.728-.744.728H9.405c-.624 0-.762-.15-.762-.849-.002-7.925.018-15.85-.03-23.775-.005-.974-.337-1.955-.573-2.919C5.72 28.353 3.387 18.87 1.058 9.387c-.148-.602-.033-.79.582-.942 2.197-.541 4.393-1.091 6.595-1.612.345-.08.416-.23.414-.55-.015-1.41-.009-2.821-.005-4.233.002-.665.147-.806.804-.806h32.84c.646 0 .787.146.787.813 0 15.294-.01 30.59.023 45.884.002.918.312 1.843.527 2.753.52 2.189 1.068 4.37 1.603 6.555.143.583.03.776-.552.923-.522.132-1.047.258-1.6.395zm-1.133 5.7V2.364H9.797v61.901h32.145zM2.205 9.445L8.55 35.263l.06-.017V7.87L2.204 9.446zm41.874 47.738l-.915-3.718-.07.011v3.932l.985-.225z" fill="#A7A5A5" stroke="#A7A5A5" stroke-width=".5" stroke-linejoin="round"/><path d="M13.04 32.47V17.974c0-.688.133-.82.824-.82H37.81c.765 0 .892.128.892.891v28.864c0 .758-.114.875-.856.875l-23.989.001c-.701 0-.818-.117-.818-.82V32.47zm15.016 3.27c.675-.56 1.267-1.052 1.857-1.544.486-.406.65-.407 1.139.018l6.165 5.357c.1.087.21.165.358.281v-21.57h-23.4v21.345c.146-.153.244-.252.337-.355 2.548-2.788 5.095-5.579 7.645-8.365.423-.463.662-.465 1.102-.025.848.846 1.697 1.69 2.54 2.542.75.76 1.49 1.529 2.257 2.316zM37.6 46.665c0-1.735.007-3.415-.012-5.095-.002-.15-.148-.327-.275-.437-1.584-1.392-3.178-2.774-4.77-4.157-.686-.597-1.374-1.193-2.072-1.798l-1.895 1.57c-.442.364-.65.353-1.058-.053l-4.45-4.439c-.107-.106-.22-.206-.331-.31-.057.048-.094.07-.122.102-2.767 3.03-5.536 6.06-8.293 9.1-.116.127-.17.353-.172.534-.013 1.51-.008 3.021-.006 4.532 0 .15.012.3.018.45l23.438.001zM26.035 57.003h12.159c.134 0 .271-.01.403.009.253.037.392.203.403.47.01.27-.134.438-.374.499-.116.03-.243.016-.365.016H13.76c-.05 0-.098.002-.147 0-.382-.006-.616-.199-.613-.504.004-.312.223-.49.62-.49h12.415zm-.055 3.983l-12.246-.001c-.122 0-.282.044-.36-.018-.157-.125-.36-.301-.373-.472-.012-.145.193-.336.34-.458.077-.064.237-.026.36-.026h24.601c.098 0 .199-.01.294.01.262.051.414.218.404.499-.01.26-.157.418-.407.456-.12.018-.245.009-.368.009-4.082.002-8.164 0-12.246 0zm.026-8.997H13.763c-.544 0-.765-.142-.763-.487.002-.345.233-.497.764-.497 8.162 0 16.323.001 24.485.003.147 0 .33-.035.43.042.147.112.327.314.32.47-.005.157-.204.33-.355.445-.08.063-.237.022-.36.022-4.093.002-8.186.002-12.278.002zm.03 2.011l12.201.001c.122 0 .247-.006.367.01.255.035.433.208.39.464-.032.179-.191.354-.333.48-.075.068-.235.039-.357.039H13.718c-.11 0-.225.014-.33-.013-.256-.065-.408-.247-.386-.53.02-.26.172-.421.429-.444.122-.01.245-.006.367-.006h12.238zM39 12.995c-.419 0-.75.016-1.077-.01-.09-.006-.217-.115-.251-.206-.11-.286-.19-.585-.27-.882-.207-.765-.394-.897-1.241-.822v1.902H35V8.105c.937-.09 1.875-.205 2.805.055.57.16.926.531.975 1.14.045.577-.23.981-.719 1.258l-.177.096c.828.56.718 1.523 1.116 2.341zm-2.834-2.754c.52-.014 1.043.109 1.352-.414.144-.243.124-.522-.078-.727-.366-.372-.822-.266-1.274-.23v1.371zM32.897 8v.891h-1.816v1.064h1.699v.923h-1.695v1.207H33V13h-3V8h2.897zM13 8h4v.892h-2.497v1.171h2.334v.914h-2.369V13H13V8zm15 .007c-.484.936-.94 1.798-1.377 2.672-.08.159-.125.362-.13.547-.016.585-.006 1.17-.006 1.774H25.45c0-.573.012-1.135-.006-1.696a1.634 1.634 0 00-.139-.615C24.892 9.81 24.46 8.947 24 8.01c.396 0 .752-.012 1.106.011.062.004.135.147.173.242.243.61.478 1.226.736 1.89.25-.654.492-1.255.71-1.866.076-.215.17-.301.37-.285.281.022.564.005.905.005zM19 8h1.06v4.072H22V13h-3V8z" fill="#A7A5A5" stroke="#A7A5A5" stroke-width=".5" stroke-linejoin="round"/><path d="M32.128 30.592a3.059 3.059 0 01-.034-6.117 3.06 3.06 0 11.034 6.117zm.01-1.101a1.97 1.97 0 001.95-1.962 1.973 1.973 0 00-1.962-1.952 1.97 1.97 0 00-1.97 1.984 1.97 1.97 0 001.981 1.93z" fill="#A7A5A5" stroke="#A7A5A5" stroke-width=".5" stroke-linejoin="round"/></svg>