<svg width="43" height="57" fill="none" xmlns="http://www.w3.org/2000/svg"><g clip-path="url(#clip0)" fill="#A7A5A5"><path d="M43 28.585c0 8.48.003 16.96 0 25.44C43 56.243 42.249 57 40.062 57c-12.349 0-24.696 0-37.045-.002-2.28 0-2.98-.71-2.98-3.01 0-6.202 0-12.403.003-18.605 0-.315-.086-.687.049-.934.173-.313.516-.704.811-.727.303-.023.734.29.93.579.171.249.12.668.12 1.012.006 6.201.025 12.403-.019 18.604-.006.94.292 1.152 1.179 1.15 12.285-.024 24.57-.024 36.856 0 .864.002 1.118-.239 1.116-1.118-.025-16.99-.025-33.982.002-50.971.002-.864-.273-1.045-1.08-1.045-12.317.023-24.634.023-36.95-.003-.854-.002-1.125.208-1.12 1.103.033 8.13.02 16.262.02 24.395 0 .315.097.712-.055.928-.235.34-.65.779-.976.767-.301-.01-.667-.512-.847-.877-.139-.281-.036-.682-.036-1.031v-24.3C.039.72.736 0 2.914 0c12.411-.003 24.823-.003 37.235 0 2.1 0 2.848.743 2.85 2.86.006 8.575.002 17.15.002 25.724z"/><path d="M21.495 33.207H9.47c-1.508 0-1.654-.14-1.654-1.599-.002-8.064-.002-16.126 0-24.19 0-1.555.106-1.655 1.683-1.655h24.144c1.426 0 1.554.13 1.554 1.59.002 8.095 0 16.19 0 24.286 0 1.424-.15 1.568-1.582 1.568-4.04.002-8.081 0-12.12 0zM33.228 7.734H9.788v23.483h23.44V7.734zm-11.63 40.788c2.84 0 5.683-.002 8.524 0 .252 0 .582-.083.741.044.336.27.764.63.804.991.03.283-.42.697-.747.913-.227.15-.612.082-.925.082-5.684.004-11.367.004-17.049 0-.282 0-.635.066-.832-.072-.326-.232-.788-.625-.764-.913.033-.36.455-.739.796-.993.186-.14.55-.052.834-.052h8.618zm-.108-2.47c-2.873 0-5.747 0-8.62-.002-.252 0-.587.086-.739-.044-.33-.275-.75-.647-.78-1.008-.023-.283.443-.672.77-.896.2-.137.552-.063.835-.063 5.713-.002 11.43-.002 17.143 0 .158 0 .317-.004.474.002.654.02 1.136.308 1.134 1-.002.683-.457 1-1.124 1.01-.252.003-.506.003-.758.003-2.779-.002-5.557-.002-8.335-.002zm.028-8.168c1.262 0 2.524.011 3.785-.004.703-.01 1.216.264 1.237.993.021.754-.538 1.025-1.209 1.029-2.555.011-5.11.01-7.666 0-.682-.002-1.217-.3-1.184-1.048.03-.733.55-.986 1.25-.974 1.264.019 2.527.004 3.787.004z"/></g><defs><clipPath id="clip0"><path fill="#fff" d="M0 0h43v57H0z"/></clipPath></defs></svg>