<svg width="38" height="38" fill="none" xmlns="http://www.w3.org/2000/svg"><g clip-path="url(#clip0)"><path d="M0 18.998V1.443C0 .344.349 0 1.462 0h35.09c1.09 0 1.43.338 1.43 1.417-.002 5.321.057 10.643-.023 15.963-.079 5.197-1.888 9.761-5.378 13.64-3.08 3.424-6.87 5.624-11.38 6.525-1.305.26-2.653.415-3.983.427-5.286.048-10.573.02-15.86.02-.983 0-1.356-.366-1.356-1.345C0 30.763 0 24.88 0 18.998zm2.056 16.963h.496c3.292 0 6.581.006 9.873-.005a24.311 24.311 0 002.238-.103c2.894-.28 4.771-2.022 5.15-4.903.174-1.322.151-2.674.17-4.013.026-1.904.001-3.807.009-5.711.004-.852.367-1.208 1.222-1.233.188-.005.374 0 .562-.002 2.82-.02 5.644.003 8.464-.077 1.424-.04 2.764-.482 3.848-1.473 1.363-1.245 1.8-2.903 1.827-4.65.056-3.76.024-7.522.026-11.282 0-.15-.015-.299-.022-.444H2.057v33.896zM21.993 22.04v.534c-.005 2.402.025 4.803-.025 7.204-.039 1.867-.5 3.632-1.621 5.172-.189.26-.404.5-.671.828 4.874-.748 8.768-3.013 11.908-6.652 2.055-2.38 4.326-7.494 4.1-9.379-.059.044-.109.075-.154.115-1.699 1.534-3.754 2.083-5.974 2.115-2.352.036-4.706.025-7.058.036-.152.003-.304.017-.505.027z" fill="#A7A5A5"/></g><defs><clipPath id="clip0"><path fill="#fff" d="M0 0h38v38H0z"/></clipPath></defs></svg>