<?xml version="1.0" encoding="utf-8"?>
<!-- Generator: Adobe Illustrator 24.3.0, SVG Export Plug-In . SVG Version: 6.00 Build 0)  -->
<svg version="1.1" id="Слой_1" xmlns="http://www.w3.org/2000/svg" xmlns:xlink="http://www.w3.org/1999/xlink" x="0px" y="0px"
	 viewBox="0 0 724 517" style="enable-background:new 0 0 724 517;" xml:space="preserve">
<style type="text/css">
	.st0{fill:#00A99D;}
	.st1{fill:none;stroke:#FFFFFF;stroke-width:4.8492;stroke-miterlimit:10;}
	.st2{opacity:0.4;}
	.st3{fill:none;}
	.st4{fill:#FF0000;}
	.st5{fill:#097A70;}
	.st6{fill:#FFFFFF;stroke:#1D1D1B;stroke-width:7.9986;stroke-miterlimit:10;}
	.st7{fill:#FFFFFF;stroke:#1D1D1B;stroke-width:1.5997;stroke-miterlimit:10;}
	.st8{fill:none;stroke:#1D1D1B;stroke-width:1.5997;stroke-miterlimit:10;}
	.st9{fill:#4D4D4D;}
	.st10{fill:#FFFFFF;}
	.st11{opacity:0.2;fill:#097A70;}
	.st12{fill:#FF8264;}
	.st13{fill:#705165;}
	.st14{fill:#524966;}
	.st15{opacity:0.1;fill:#FFFFFF;}
	.st16{fill:#FFB819;}
	.st17{opacity:0.4;fill:#524966;}
	.st18{opacity:0.5;fill:#524966;}
	.st19{fill:#A2E6DF;}
	.st20{fill:#8D8B81;}
	.st21{fill:none;stroke:#FFFFFF;stroke-width:5;stroke-miterlimit:10;}
	.st22{fill:none;stroke:#FFFFFF;stroke-width:3;stroke-miterlimit:10;}
	.st23{fill:#FFDD00;}
</style>
<g>
	<rect x="8.98" y="8.16" class="st8" width="353.54" height="249.98"/>
	<rect x="8.98" y="258.14" class="st8" width="353.54" height="249.98"/>
	<rect x="539.26" y="258.14" class="st8" width="176.77" height="124.99"/>
	<rect x="539.26" y="383.12" class="st8" width="176.77" height="124.99"/>
	
		<rect x="325.94" y="294.75" transform="matrix(-1.836970e-16 1 -1 -1.836970e-16 834.0529 -67.8053)" class="st8" width="249.98" height="176.75"/>
	
		<rect x="325.94" y="44.77" transform="matrix(-1.836970e-16 1 -1 -1.836970e-16 584.0753 -317.7828)" class="st8" width="249.98" height="176.75"/>
	
		<rect x="502.66" y="44.77" transform="matrix(-1.836970e-16 1 -1 -1.836970e-16 760.791 -494.4985)" class="st8" width="249.98" height="176.75"/>
	<g>
		<path class="st9" d="M169.22,135.74l-3.6,7.52h-4.86l13.24-26.4h5.72l3.33,26.4h-4.78l-0.74-7.52H169.22z M177.25,132.21
			l-0.74-6.58c-0.12-1.41-0.27-3.45-0.39-5.01h-0.08c-0.71,1.57-1.41,3.45-2.15,5.01l-3.21,6.58H177.25z"/>
		<path class="st9" d="M187.26,138c1.11,0.6,3.12,1.5,5.77,1.5c4.02,0,6.15-2.39,6.15-4.92c0-2.91-2.35-4.23-5.81-4.23h-1.24
			l0.77-3.85h1.15c2.78,0,6.5-1.41,6.5-4.4c0-1.75-1.15-2.91-3.68-2.91c-2.22,0-4.23,0.64-5.51,1.45l-0.81-3.76
			c1.92-1.11,4.66-1.88,7.31-1.88c4.66,0,7.95,2.44,7.95,6.28c0,3.55-2.82,6.11-6.15,7.01l-0.04,0.09c2.99,0.64,4.79,3.12,4.79,6.15
			c0,5.6-5.43,9.19-11.5,9.19c-3.29,0-6.11-0.9-7.22-1.84L187.26,138z"/>
	</g>
	<g>
		<path class="st9" d="M169.22,388.5l-3.6,7.52h-4.86l13.24-26.4h5.72l3.33,26.4h-4.78l-0.74-7.52H169.22z M177.25,384.97
			l-0.74-6.58c-0.12-1.41-0.27-3.45-0.39-5.01h-0.08c-0.71,1.57-1.41,3.45-2.15,5.01l-3.21,6.58H177.25z"/>
		<path class="st9" d="M187.26,390.76c1.11,0.6,3.12,1.5,5.77,1.5c4.02,0,6.15-2.39,6.15-4.92c0-2.91-2.35-4.23-5.81-4.23h-1.24
			l0.77-3.85h1.15c2.78,0,6.5-1.41,6.5-4.4c0-1.75-1.15-2.91-3.68-2.91c-2.22,0-4.23,0.64-5.51,1.45l-0.81-3.76
			c1.92-1.11,4.66-1.88,7.31-1.88c4.66,0,7.95,2.44,7.95,6.28c0,3.55-2.82,6.11-6.15,7.01l-0.04,0.09c2.99,0.64,4.79,3.12,4.79,6.15
			c0,5.6-5.43,9.19-11.5,9.19c-3.29,0-6.11-0.9-7.22-1.84L187.26,390.76z"/>
	</g>
	<g>
		<path class="st9" d="M430.78,135.74l-3.6,7.52h-4.86l13.24-26.4h5.72l3.33,26.4h-4.78l-0.74-7.52H430.78z M438.81,132.21
			l-0.74-6.58c-0.12-1.41-0.27-3.45-0.39-5.01h-0.08c-0.71,1.57-1.41,3.45-2.15,5.01l-3.21,6.58H438.81z"/>
		<path class="st9" d="M457.75,143.26l1.37-7.14h-11.88l0.64-3.33l13.93-17.31h5.9l-3.16,16.75H468l-0.73,3.89h-3.46l-1.37,7.14
			H457.75z M459.84,132.23l1.54-7.48c0.34-1.62,0.81-3.38,1.2-4.96h-0.17c-1.2,1.8-2.14,3.33-3.42,5.04l-5.98,7.31l-0.04,0.09
			H459.84z"/>
	</g>
	<g>
		<path class="st9" d="M430.78,388.5l-3.6,7.52h-4.86l13.24-26.4h5.72l3.33,26.4h-4.78l-0.74-7.52H430.78z M438.81,384.97
			l-0.74-6.58c-0.12-1.41-0.27-3.45-0.39-5.01h-0.08c-0.71,1.57-1.41,3.45-2.15,5.01l-3.21,6.58H438.81z"/>
		<path class="st9" d="M457.75,396.02l1.37-7.14h-11.88l0.64-3.33l13.93-17.31h5.9l-3.16,16.75H468l-0.73,3.89h-3.46l-1.37,7.14
			H457.75z M459.84,384.99l1.54-7.48c0.34-1.62,0.81-3.38,1.2-4.96h-0.17c-1.2,1.8-2.14,3.33-3.42,5.04L453,384.9l-0.04,0.09H459.84
			z"/>
	</g>
	<g>
		<path class="st9" d="M609.95,135.74l-3.6,7.52h-4.86l13.24-26.4h5.72l3.33,26.4H619l-0.74-7.52H609.95z M617.98,132.21l-0.74-6.58
			c-0.12-1.41-0.27-3.45-0.39-5.01h-0.08c-0.71,1.57-1.41,3.45-2.15,5.01l-3.21,6.58H617.98z"/>
		<path class="st9" d="M636.92,143.26l1.37-7.14H626.4l0.64-3.33l13.93-17.31h5.9l-3.16,16.75h3.46l-0.73,3.89h-3.46l-1.37,7.14
			H636.92z M639.01,132.23l1.54-7.48c0.34-1.62,0.81-3.38,1.2-4.96h-0.17c-1.2,1.8-2.14,3.33-3.42,5.04l-5.98,7.31l-0.04,0.09
			H639.01z"/>
	</g>
	<g>
		<path class="st9" d="M609.95,333.31l-3.6,7.52h-4.86l13.24-26.4h5.72l3.33,26.4H619l-0.74-7.52H609.95z M617.98,329.78l-0.74-6.58
			c-0.12-1.41-0.27-3.45-0.39-5.01h-0.08c-0.71,1.57-1.41,3.45-2.15,5.01l-3.21,6.58H617.98z"/>
		<path class="st9" d="M646.96,317.32h-9.66l-1.71,5.56c0.47-0.09,0.81-0.09,1.28-0.09c1.67,0,3.68,0.38,5.34,1.54
			c2.09,1.28,3.16,3.63,3.16,6.15c0,6.84-5.64,10.81-12.18,10.81c-3.08,0-5.64-0.81-6.67-1.58l1.37-3.97
			c1.07,0.64,3.16,1.37,5.47,1.37c3.46,0,6.84-2.31,6.84-5.73c0-2.69-1.54-4.74-6.8-4.74c-1.28,0-2.18,0.09-3.29,0.17l3.93-13.76
			h13.76L646.96,317.32z"/>
	</g>
	<g>
		<path class="st9" d="M609.95,442.09l-3.6,7.52h-4.86l13.24-26.4h5.72l3.33,26.4H619l-0.74-7.52H609.95z M617.98,438.56l-0.74-6.58
			c-0.12-1.41-0.27-3.45-0.39-5.01h-0.08c-0.71,1.57-1.41,3.45-2.15,5.01l-3.21,6.58H617.98z"/>
		<path class="st9" d="M646.96,426.1h-9.66l-1.71,5.56c0.47-0.09,0.81-0.09,1.28-0.09c1.67,0,3.68,0.38,5.34,1.54
			c2.09,1.28,3.16,3.63,3.16,6.15c0,6.84-5.64,10.81-12.18,10.81c-3.08,0-5.64-0.81-6.67-1.58l1.37-3.97
			c1.07,0.64,3.16,1.37,5.47,1.37c3.46,0,6.84-2.31,6.84-5.73c0-2.69-1.54-4.74-6.8-4.74c-1.28,0-2.18,0.09-3.29,0.17l3.93-13.76
			h13.76L646.96,426.1z"/>
	</g>
</g>
</svg>
