<?xml version="1.0" encoding="utf-8"?>
<!-- Generator: Adobe Illustrator 24.3.0, SVG Export Plug-In . SVG Version: 6.00 Build 0)  -->
<svg version="1.1" id="Слой_1" xmlns="http://www.w3.org/2000/svg" xmlns:xlink="http://www.w3.org/1999/xlink" x="0px" y="0px"
	 viewBox="0 0 437.2 143.09" style="enable-background:new 0 0 437.2 143.09;" xml:space="preserve">
<style type="text/css">
	.st0{fill:#128CB9;}
	.st1{fill:#878787;}
	.st2{fill:#FFFFFF;}
	.st3{fill:#EDEDED;}
</style>
<g>
	<path class="st0" d="M17.72,34.97h28.21v99.73H17.72V34.97z"/>
	<path class="st0" d="M138.18,64.74c5.84,5.7,8.76,14.3,8.76,25.79v44.17h-27.07V94.95c0-10.54-4.23-15.81-12.68-15.81
		c-4.65,0-8.38,1.52-11.18,4.56c-2.8,3.04-4.2,7.6-4.2,13.68v37.33H64.74V57.48h25.79v8.41c3.04-3.13,6.65-5.53,10.83-7.19
		c4.18-1.66,8.74-2.49,13.68-2.49C124.62,56.19,132.34,59.04,138.18,64.74z"/>
	<path class="st1" d="M162.04,83.69h41.6v20.8h-41.6V83.69z"/>
	<path class="st1" d="M219.17,28.98h27.07v105.71h-27.07V28.98z"/>
	<path class="st1" d="M263.76,57.48h27.07v77.22h-27.07V57.48z"/>
	<path class="st1" d="M337.85,60.33h18.38v20.23h-17.67v54.14h-27.07V80.56h-11.25V60.33h11.25v-1.99c0-9.4,2.82-16.86,8.48-22.37
		c5.65-5.51,13.56-8.26,23.72-8.26c3.42,0,6.74,0.33,9.97,1c3.23,0.67,5.89,1.66,7.98,2.99l-6.7,19.09
		c-2.66-1.52-5.37-2.28-8.12-2.28c-2.85,0-5.06,0.85-6.62,2.56c-1.57,1.71-2.35,4.23-2.35,7.55V60.33z"/>
	<path class="st1" d="M419.48,131.56c-2.28,1.42-5.06,2.52-8.33,3.28c-3.28,0.76-6.77,1.14-10.47,1.14
		c-10.07,0-17.81-2.47-23.22-7.41c-5.41-4.94-8.12-12.3-8.12-22.08V80.56h-11.25V60.33h11.25V40.24h27.07v20.09h17.67v20.23H396.4
		v25.64c0,2.76,0.74,4.92,2.21,6.48c1.47,1.57,3.44,2.35,5.91,2.35c3.13,0,5.89-0.81,8.26-2.42L419.48,131.56z"/>
</g>
<polygon class="st0" points="277.3,8.4 256.71,28.98 297.88,28.98 "/>
<polygon class="st1" points="277.3,52.17 297.88,31.59 256.71,31.59 "/>
</svg>
