<?xml version="1.0" encoding="utf-8"?>
<!-- Generator: Adobe Illustrator 24.3.0, SVG Export Plug-In . SVG Version: 6.00 Build 0)  -->
<svg version="1.1" id="Слой_1" xmlns="http://www.w3.org/2000/svg" xmlns:xlink="http://www.w3.org/1999/xlink" x="0px" y="0px"
	 viewBox="0 0 394 297" style="enable-background:new 0 0 394 297;" xml:space="preserve">
<style type="text/css">
	.st0{fill:#FFFFFF;}
</style>
<g>
	<g>
		<g>
			<path class="st0" d="M127.5,138h-3.9l-2-5.5h-8.2l-2,5.5h-3.8l8-20.7h3.9L127.5,138z M117.6,121.1l-3.2,8.7h6.3L117.6,121.1z"/>
			<path class="st0" d="M137.2,117.5c5.9-0.6,8.9,7.4,3.5,9.6c2.3,0.6,3.7,2.4,3.7,4.8c0.3,8.9-15.3,8.6-14.3-0.6h3.2
				c-0.5,5.4,7.7,5.8,7.6,0.6c0-3-2.7-3.6-5.1-3.4v-2.5c10.8,0-0.6-12.2-2-1.9h-3.2C130.7,120,133.2,117.5,137.2,117.5z"/>
			<path class="st0" d="M167.5,131.6H159v-3.1h8.5V131.6z"/>
			<path class="st0" d="M256.7,131.2v6.8h-1.8v-8.3h5.8v1.4L256.7,131.2L256.7,131.2z"/>
			<path class="st0" d="M264.6,130.9c8.3-6.7,8.6,12.6,0.1,6.1v4.1h-1.8v-11.3h1.7V130.9z M264.6,133.9c-0.2,3.8,4.8,3.9,4.6,0
				C269.4,130.1,264.4,130.1,264.6,133.9z"/>
			<path class="st0" d="M273.7,138v-8.3h1.8v3.2h3.6v-3.2h1.8v8.3h-1.8v-3.6h-3.6v3.6H273.7z"/>
			<path class="st0" d="M286.4,138h-2.2v-2.2h2.2V138z"/>
		</g>
	</g>
	<g>
		<g>
			<path class="st0" d="M127.5,182.9h-3.9l-2-5.5h-8.2l-2,5.5h-3.8l8-20.7h3.9L127.5,182.9z M117.6,166l-3.2,8.7h6.3L117.6,166z"/>
			<path class="st0" d="M144.5,178.1h-2.6v4.8h-3.2l0-4.8H130v-3.3l8.7-12.4h3.1v12.9h2.6V178.1z M138.7,166.5l-6,8.8h6V166.5z"/>
			<path class="st0" d="M167.5,176.5H159v-3.1h8.5V176.5z"/>
			<path class="st0" d="M256.7,176.1v6.8h-1.8v-8.3h5.8v1.4L256.7,176.1L256.7,176.1z"/>
			<path class="st0" d="M264.6,175.8c8.3-6.7,8.6,12.6,0.1,6.1v4.1h-1.8v-11.3h1.7V175.8z M264.6,178.8c-0.2,3.8,4.8,3.9,4.6,0
				C269.4,175,264.4,174.9,264.6,178.8z"/>
			<path class="st0" d="M273.7,182.9v-8.3h1.8v3.2h3.6v-3.2h1.8v8.3h-1.8v-3.6h-3.6v3.6H273.7z"/>
			<path class="st0" d="M286.4,182.9h-2.2v-2.2h2.2V182.9z"/>
		</g>
	</g>
	<g>
		<g>
			<path class="st0" d="M127.5,227.8h-3.9l-2-5.5h-8.2l-2,5.5h-3.8l8-20.7h3.9L127.5,227.8z M117.6,210.9l-3.2,8.7h6.3L117.6,210.9z
				"/>
			<path class="st0" d="M143.2,210.5h-8.1l-0.9,5.2c3.9-3.6,10.5-0.3,10.1,5.2c0.6,8.8-14,9.9-14.2,1.1h3.3c0.4,5,8,4.4,7.5-1
				c0.4-4.4-5.1-5.8-7.2-2.4l-2.9-0.1l1.9-11h10.5L143.2,210.5L143.2,210.5z"/>
			<path class="st0" d="M167.5,221.4H159v-3.1h8.5V221.4z"/>
			<path class="st0" d="M256.7,221v6.8h-1.8v-8.3h5.8v1.4H256.7z"/>
			<path class="st0" d="M264.6,220.7c8.3-6.7,8.6,12.6,0.1,6.1v4.1h-1.8v-11.3h1.7V220.7z M264.6,223.7c-0.2,3.8,4.8,3.9,4.6,0
				C269.4,219.9,264.4,219.8,264.6,223.7z"/>
			<path class="st0" d="M273.7,227.8v-8.3h1.8v3.2h3.6v-3.2h1.8v8.3h-1.8v-3.6h-3.6v3.6H273.7z"/>
			<path class="st0" d="M286.4,227.8h-2.2v-2.2h2.2V227.8z"/>
		</g>
	</g>
	<g>
		<g>
			<path class="st0" d="M161.4,40.5c-2.7,0-4.1-1.2-4.2-3.2h2.1c1.8,4.6,7.5-1.7,1.1-1.2v-1.5c5.7,0.4,0.8-5-0.8-1h-2.1
				c0.4-5.7,11.8-2.1,6.1,1.5v0C167.1,36.1,164.8,41,161.4,40.5z"/>
			<path class="st0" d="M172.3,30.7c7-0.4,1.7,8.3,4.8,8.2v1.4c-1.2,0.3-2.6,0.5-2.9-0.9c-5.4,4.4-9.9-4.5-2.2-4.6
				c5.8-0.5-1.3-5.1-1.8-1h-1.9C168.5,31.5,170,30.7,172.3,30.7z M172,36.1c-6.2,1.5,3,6.1,2.2-0.5C173.5,35.9,172.7,36,172,36.1z"
				/>
			<path class="st0" d="M191.6,40.2h-2.2v-8.7h-3.1V30c1.4,0,3.3-0.2,3.7-2.5h1.7V40.2z"/>
			<path class="st0" d="M203.4,40.2v-9.3h2.7l2.6,7.4h0l2.5-7.4h2.7v9.3h-2v-6.2h0l-2.2,6.2h-2.1l-2.2-6.2h0v6.2H203.4z"/>
			<path class="st0" d="M219.4,29.4h-2.1v-2h2.1V29.4z M219.4,40.2h-2.1v-9.3h2.1V40.2z"/>
			<path class="st0" d="M227.1,40.5c-6.2,0.3-5.9-10.2,0.1-9.8c2.4,0,3.9,1.3,4.1,3.4h-2c-0.8-3.2-5-1.9-4.6,1.5
				c-0.4,3.6,4.2,4.6,4.7,1.2h2C231.1,39,229.4,40.5,227.1,40.5z"/>
			<path class="st0" d="M236.8,40.2h-2.4v-2.4h2.4V40.2z"/>
		</g>
	</g>
	<polygon class="st0" points="269,39.2 269,42.2 366.5,42.2 366.5,266.6 27.5,266.6 27.5,42.2 125,42.2 125,39.2 24.5,39.2 
		24.5,269.6 369.5,269.6 369.5,39.2 	"/>
</g>
<g>
	<path class="st0" d="M189.8,117.3c4.1,0,6.9,2.3,6.9,5.7c0,2-1.1,3.6-2.9,4.1c2.3,0.6,3.6,2.3,3.6,4.7c0,3.9-3.1,6.7-7.7,6.7
		c-4.7,0-7.6-2.8-7.6-7.2V131h4c0,2.5,1.3,3.9,3.5,3.9c2.1,0,3.4-1.3,3.4-3.1c0-2.3-1.8-3.1-3.7-3.1c-0.4,0-0.6,0-1,0v-2.9
		c0.3,0,0.4,0,0.7,0c2.4,0,3.6-0.9,3.6-2.6c0-1.6-1.1-2.6-2.9-2.6c-1.9,0-3.1,1.2-3.1,3.5h-4C182.8,119.9,185.5,117.3,189.8,117.3z"
		/>
	<path class="st0" d="M215.1,138.1H200c0.1-4.8,2.6-6.6,6.3-9.1c1.8-1.2,4.4-2.6,4.4-5.1c0-1.8-1.2-3-2.9-3c-2.2,0-3.2,1.4-3.4,4.5
		h-4V125c0-4.7,2.9-7.7,7.5-7.7c4.2,0,7,2.6,7,6.3c0,3.3-1.8,4.8-4.3,6.5c-1.8,1.2-4.2,2.6-5.4,4.4h9.7V138.1z"/>
	<path class="st0" d="M233.2,127.9c0,6.5-2.8,10.5-7.5,10.5c-4.8,0-7.6-3.9-7.6-10.5c0-4.9,1.7-10.6,7.6-10.6
		C231.6,117.3,233.2,123,233.2,127.9z M222.2,128.1c0,4.7,1.1,6.9,3.5,6.9c2.3,0,3.4-2.3,3.4-7.1c0-4.9-1.1-7.1-3.4-7.1
		C222.2,120.8,222.2,125.7,222.2,128.1z"/>
	<path class="st0" d="M251,127.9c0,6.5-2.8,10.5-7.5,10.5c-4.8,0-7.6-3.9-7.6-10.5c0-4.9,1.7-10.6,7.6-10.6
		C249.4,117.3,251,123,251,127.9z M240,128.1c0,4.7,1.1,6.9,3.5,6.9c2.3,0,3.4-2.3,3.4-7.1c0-4.9-1.1-7.1-3.4-7.1
		C240,120.8,240,125.7,240,128.1z"/>
</g>
<g>
	<path class="st0" d="M197.3,182.9h-15.1c0.1-4.8,2.6-6.6,6.3-9.1c1.8-1.2,4.4-2.6,4.4-5.1c0-1.8-1.2-3-2.9-3
		c-2.2,0-3.2,1.4-3.4,4.5h-4v-0.4c0-4.7,2.9-7.7,7.5-7.7c4.2,0,7,2.6,7,6.3c0,3.3-1.8,4.8-4.3,6.5c-1.8,1.2-4.2,2.6-5.4,4.4h9.7
		V182.9z"/>
	<path class="st0" d="M215.5,178.2h-2.8v4.7h-3.9v-4.7H200v-3.9l8.9-12.1h3.8v12.5h2.8V178.2z M208.8,167.1l-5.5,7.7h5.5V167.1z"/>
	<path class="st0" d="M233.2,172.8c0,6.5-2.8,10.5-7.5,10.5c-4.8,0-7.6-3.9-7.6-10.5c0-4.9,1.7-10.6,7.6-10.6
		C231.6,162.2,233.2,167.9,233.2,172.8z M222.2,173c0,4.7,1.1,6.9,3.5,6.9c2.3,0,3.4-2.3,3.4-7.1c0-4.9-1.1-7.1-3.4-7.1
		C222.2,165.7,222.2,170.5,222.2,173z"/>
	<path class="st0" d="M251,172.8c0,6.5-2.8,10.5-7.5,10.5c-4.8,0-7.6-3.9-7.6-10.5c0-4.9,1.7-10.6,7.6-10.6
		C249.4,162.2,251,167.9,251,172.8z M240,173c0,4.7,1.1,6.9,3.5,6.9c2.3,0,3.4-2.3,3.4-7.1c0-4.9-1.1-7.1-3.4-7.1
		C240,165.7,240,170.5,240,173z"/>
</g>
<g>
	<path class="st0" d="M193.4,227.8H189v-13.4h-5v-3.1h0.5c2.9,0,4.9-1.1,5.5-4.1h3.4V227.8z"/>
	<path class="st0" d="M211,212.6c-0.4-1.5-1.3-2.3-2.8-2.3c-2.3,0-3.6,2-3.9,6.1c1.1-1.5,2.7-2.3,4.6-2.3c3.8,0,6.4,2.8,6.4,6.8
		c0,4.3-3.1,7.3-7.3,7.3c-4.9,0-7.8-3.8-7.8-10.2c0-6.8,3-10.9,8-10.9c3.7,0,6.2,2,6.7,5.5H211z M204.7,221c0,2.2,1.4,3.8,3.3,3.8
		s3.3-1.6,3.3-3.8c0-2.2-1.4-3.8-3.4-3.8C206.1,217.2,204.7,218.8,204.7,221z"/>
	<path class="st0" d="M233.2,217.7c0,6.5-2.8,10.5-7.5,10.5c-4.8,0-7.6-3.9-7.6-10.5c0-4.9,1.7-10.6,7.6-10.6
		C231.6,207.1,233.2,212.8,233.2,217.7z M222.2,217.9c0,4.7,1.1,6.9,3.5,6.9c2.3,0,3.4-2.3,3.4-7.1c0-4.9-1.1-7.1-3.4-7.1
		C222.2,210.5,222.2,215.4,222.2,217.9z"/>
	<path class="st0" d="M251,217.7c0,6.5-2.8,10.5-7.5,10.5c-4.8,0-7.6-3.9-7.6-10.5c0-4.9,1.7-10.6,7.6-10.6
		C249.4,207.1,251,212.8,251,217.7z M240,217.9c0,4.7,1.1,6.9,3.5,6.9c2.3,0,3.4-2.3,3.4-7.1c0-4.9-1.1-7.1-3.4-7.1
		C240,210.5,240,215.4,240,217.9z"/>
</g>
</svg>
