<?xml version="1.0" encoding="utf-8"?>
<!-- Generator: Adobe Illustrator 24.3.0, SVG Export Plug-In . SVG Version: 6.00 Build 0)  -->
<svg version="1.1" id="Слой_1" xmlns="http://www.w3.org/2000/svg" xmlns:xlink="http://www.w3.org/1999/xlink" x="0px" y="0px"
	 viewBox="0 0 394 297" style="enable-background:new 0 0 394 297;" xml:space="preserve">
<style type="text/css">
	.st0{fill:#FFFFFF;}
	.st1{fill:#FFDD00;}
</style>
<g>
	<path class="st0" d="M139,126.2c-0.3,2-0.7,3.9-1,5.9c-0.4,2.4-0.6,5.1-0.5,8.1c0,0.5,0.1,1.3,0.3,2.3c0.2,1,0.3,1.7,0.3,2
		c0,0.6-0.1,0.9-0.4,1.1c-0.2,0.2-0.7,0.2-1.3,0.2c-0.8,0-1.4-0.4-1.7-1.2c-0.1-0.4-0.3-1.1-0.4-2.2c-0.1-0.6-0.1-1.3-0.1-1.9
		c0-1,0.1-2.3,0.3-3.9c0.3-2.5,0.5-4.2,0.6-5c0.1-0.3,0.2-1.1,0.3-2.3c-0.4,0.2-0.8,0.3-1.1,0.3c-0.8,0-1.2-0.4-1.2-1.1
		c0-0.4,0.2-0.8,0.5-1.3c0.3-0.4,0.9-1,1.9-1.8c1.1-0.9,1.7-1.4,2-1.4c1,0,1.5,0.5,1.5,1.4C139.1,125.5,139.1,125.8,139,126.2z"/>
	<path class="st0" d="M156.5,126c0,0.6-0.1,1.2-0.1,1.9c-0.2,1.4-0.3,2.4-0.5,3.1c-0.6,2.3-1.1,6-1.7,11.2c-0.1,0.5,0,1,0.3,1.3
		c0.2,0.4,0.3,0.9,0.3,1.4c0,0.9-0.4,1.4-1.2,1.4c-1.8,0.1-2.7-0.8-2.7-2.6c0-0.2,0-0.6,0.1-1.1c0.1-2,0.4-3.6,0.7-4.8
		c-1.1,0.6-2.3,0.9-3.7,1c-0.5,0-1,0.1-1.4,0.1c-1.9,0-3.6-0.6-5-1.8c-0.9-0.7-1.3-2-1.3-3.8c0-0.3,0-0.5,0-0.8
		c0.1-1.2,0.7-2.4,1.8-3.8c1.5-1.9,3.5-3.2,6.1-3.8c0.7-0.2,1.5-0.3,2.3-0.3c1.2,0,2.1,0.2,2.9,0.5c0.2-0.7,0.7-1,1.4-1
		c0.4,0,0.7,0.1,1,0.4C156,124.8,156.3,125.3,156.5,126z M152.8,128.3c-0.6-0.3-1.5-0.4-2.6-0.4c-1.3,0-2.5,0.2-3.4,0.7
		c-1.9,1-3.2,2.2-3.7,3.7c-0.1,0.2-0.1,0.5-0.1,0.7c0,0.7,0.4,1.2,1.2,1.7c0.7,0.4,1.6,0.6,2.7,0.6c2.2,0,3.9-0.7,5.1-2.2
		c0-0.2,0.1-0.3,0.2-0.5c0-0.4,0.2-1,0.4-1.8c0.2-0.7,0.3-1.3,0.3-1.7C152.9,128.8,152.9,128.6,152.8,128.3z"/>
	<path class="st0" d="M174.9,128.5c-0.2,1.4-1.5,2.9-3.8,4.7c-0.3,0.3-1.1,0.9-2.3,2c-1.2,1.1-1.9,1.8-2.3,2.1
		c-0.7,0.7-1.4,1.4-2.1,2.1c-0.8,0.8-1.4,1.6-1.8,2.4c1.7-0.6,3.3-1.1,4.9-1.4c1.1-0.2,2.1-0.4,3.1-0.4c1,0,2,0,3-0.1
		c0.7,0,1.1,0.3,1.1,1.1c0,0.5-0.2,1-0.6,1.5c-0.6,0.8-1.3,1.2-2,1.2c-2-0.1-4,0.1-6,0.6c-1.5,0.4-3.4,1.1-5.8,2.2
		c0,0-0.2-0.1-0.8-0.1c-0.6-0.1-1-0.4-1.3-1c-0.3-0.5-0.4-1.1-0.4-1.7c0.1-1.4,0.5-2.5,1.2-3.3c0.9-1.1,2.1-2.5,3.7-4.1
		c1-1,2.1-2,3.5-3.1c1.8-1.5,3-2.6,3.7-3.2c0.8-0.7,1.1-1.3,1.1-1.8c0-0.8-0.8-1.2-2.4-1.1c-1.3,0.1-2.6,0.3-4.1,0.7
		c-2.3,0.6-3.4,1.4-3.3,2.4c0.1,0.9-0.2,1.4-0.8,1.4c-0.2,0-0.4,0-0.6-0.1c-0.5-0.1-0.9-0.4-1.2-1c-0.3-0.6-0.5-1.1-0.4-1.6
		c0.1-0.7,0.2-1.2,0.3-1.4c0.2-0.4,0.8-0.9,1.6-1.6c0.9-0.7,2.4-1.3,4.3-1.7c1.7-0.4,3.4-0.6,5.1-0.6c1.1,0,1.9,0.1,2.5,0.3
		c0.6,0.2,1.2,0.5,1.7,1.1c0.6,0.7,0.9,1.6,0.9,2.7C175,128,174.9,128.3,174.9,128.5z"/>
	<path class="st0" d="M197.3,134.1c0,0.6-0.1,1.1-0.2,1.8c-0.6,2.8-1.9,5.1-3.8,6.6c-1.6,1.4-3.9,2.4-7,3.3
		c-0.8,0.2-1.7,0.3-2.5,0.3c-2.2,0-3.9-0.7-5.1-2.1c-1.2-1.3-1.7-3.1-1.7-5.3c0-2.3,0.5-4.5,1.4-6.5c1-2.2,2.3-3.9,4-5.2
		c1.9-1.4,3.4-2.1,4.6-2.1c1.2,0,2.3,0.2,3.5,0.6c1.3,0.4,2.4,1,3.1,1.7c1.2,1.2,2,2.2,2.6,3.1C196.9,131.5,197.3,132.8,197.3,134.1
		z M194.3,134.1c0-1.5-0.6-2.8-1.7-3.9c-1.1-1.1-2.4-1.6-3.9-1.6c-0.6,0-1.2,0.2-1.9,0.5c-0.7,0.3-1.2,0.5-1.4,0.5
		c-0.2,0-0.4-0.1-0.6-0.2c-1.4,0.5-2.7,1.6-3.9,3.2c-1.1,1.6-1.7,3.2-1.7,4.7c0,3.2,1.7,4.9,5.2,4.9c2.8,0,5.2-0.9,7.1-2.8
		C193.4,137.6,194.3,135.8,194.3,134.1z"/>
	<path class="st0" d="M219.1,134.1c0,0.6-0.1,1.1-0.2,1.8c-0.6,2.8-1.9,5.1-3.8,6.6c-1.6,1.4-3.9,2.4-7,3.3
		c-0.8,0.2-1.7,0.3-2.5,0.3c-2.2,0-3.9-0.7-5.1-2.1c-1.2-1.3-1.7-3.1-1.7-5.3c0-2.3,0.5-4.5,1.4-6.5c1-2.2,2.3-3.9,4-5.2
		c1.9-1.4,3.4-2.1,4.6-2.1c1.2,0,2.3,0.2,3.5,0.6c1.3,0.4,2.4,1,3.1,1.7c1.2,1.2,2,2.2,2.6,3.1C218.7,131.5,219.1,132.8,219.1,134.1
		z M216.1,134.1c0-1.5-0.6-2.8-1.7-3.9c-1.1-1.1-2.4-1.6-3.9-1.6c-0.6,0-1.2,0.2-1.9,0.5c-0.7,0.3-1.2,0.5-1.4,0.5
		c-0.2,0-0.4-0.1-0.6-0.2c-1.4,0.5-2.7,1.6-3.9,3.2c-1.1,1.6-1.7,3.2-1.7,4.7c0,3.2,1.7,4.9,5.2,4.9c2.8,0,5.2-0.9,7.1-2.8
		C215.2,137.6,216.1,135.8,216.1,134.1z"/>
</g>
<g>
	<path class="st0" d="M139,171.7c-0.3,2-0.7,3.9-1,5.9c-0.4,2.4-0.6,5.1-0.5,8.1c0,0.5,0.1,1.3,0.3,2.3c0.2,1,0.3,1.7,0.3,2
		c0,0.6-0.1,0.9-0.4,1.1c-0.2,0.2-0.7,0.2-1.3,0.2c-0.8,0-1.4-0.4-1.7-1.2c-0.1-0.4-0.3-1.1-0.4-2.2c-0.1-0.6-0.1-1.3-0.1-1.9
		c0-1,0.1-2.3,0.3-3.9c0.3-2.5,0.5-4.2,0.6-5c0.1-0.3,0.2-1.1,0.3-2.3c-0.4,0.2-0.8,0.3-1.1,0.3c-0.8,0-1.2-0.4-1.2-1.1
		c0-0.4,0.2-0.8,0.5-1.3c0.3-0.4,0.9-1,1.9-1.8c1.1-0.9,1.7-1.4,2-1.4c1,0,1.5,0.5,1.5,1.4C139.1,171.1,139.1,171.4,139,171.7z"/>
	<path class="st0" d="M158,179.6c0,0.2-0.3,0.5-0.8,0.9c-0.6,0.4-0.8,0.7-0.8,0.9c0,0.2-0.1,1-0.2,2.5c-0.1,1.5-0.2,2.4-0.2,2.5
		c0,0.8,0.1,1.5,0.4,2.1c0.3,0.6,0.4,1,0.4,1.3c0,1.2-0.6,1.8-1.7,1.8c-0.3,0-0.5,0-0.7-0.1c-0.7-0.2-1.2-0.7-1.4-1.4
		c-0.1-0.4-0.2-1-0.2-2c0-2,0.2-4.1,0.6-6.4c-0.2,0-0.3-0.1-0.4-0.1c-1.1,0-2.5,0.3-4.4,1c-1.4,0.5-2.8,1.1-4.3,1.6
		c-2.2-0.9-3.4-2.3-3.4-4.5c0-0.4,0.4-1.1,1.1-2.2c1.2-1.9,1.9-2.9,2.1-3.2c0.8-1.3,1.2-2.4,1.3-3.4c0.1-1,0.6-1.5,1.5-1.5
		c1.3,0,1.9,0.5,1.9,1.5c0,0.5-0.1,1-0.4,1.6c-0.4,0.8-1,1.9-1.9,3.2c-0.6,0.9-1,1.6-1.2,2c-0.3,0.7-0.5,1.5-0.5,2.2
		c2-0.6,4.9-1.3,8.7-2.2c0.1-0.9,0.1-2.2,0.1-3.8c0-0.3-0.1-0.8-0.3-1.4c-0.2-0.6-0.3-1.1-0.3-1.4c0-0.4,0.2-0.7,0.7-0.9
		c0.4-0.2,0.8-0.3,1.2-0.3c0.9,0,1.4,0.5,1.6,1.4c0.1,0.3,0.1,1.2,0.1,2.6c0,0.5,0,1.1-0.1,1.8s-0.1,1.3-0.1,1.8
		c0.6,0.2,1,0.3,1.1,0.4C157.8,178.3,158,178.8,158,179.6z"/>
	<path class="st0" d="M176.9,179.6c0,0.2-0.3,0.5-0.8,0.9c-0.6,0.4-0.8,0.7-0.8,0.9c0,0.2-0.1,1-0.2,2.5c-0.1,1.5-0.2,2.4-0.2,2.5
		c0,0.8,0.1,1.5,0.4,2.1c0.3,0.6,0.4,1,0.4,1.3c0,1.2-0.6,1.8-1.7,1.8c-0.3,0-0.5,0-0.7-0.1c-0.7-0.2-1.2-0.7-1.4-1.4
		c-0.1-0.4-0.2-1-0.2-2c0-2,0.2-4.1,0.6-6.4c-0.2,0-0.3-0.1-0.4-0.1c-1.1,0-2.5,0.3-4.4,1c-1.4,0.5-2.8,1.1-4.3,1.6
		c-2.2-0.9-3.4-2.3-3.4-4.5c0-0.4,0.4-1.1,1.1-2.2c1.2-1.9,1.9-2.9,2.1-3.2c0.8-1.3,1.2-2.4,1.3-3.4c0.1-1,0.6-1.5,1.5-1.5
		c1.3,0,1.9,0.5,1.9,1.5c0,0.5-0.1,1-0.4,1.6c-0.4,0.8-1,1.9-1.9,3.2c-0.6,0.9-1,1.6-1.2,2c-0.3,0.7-0.5,1.5-0.5,2.2
		c2-0.6,4.9-1.3,8.7-2.2c0.1-0.9,0.1-2.2,0.1-3.8c0-0.3-0.1-0.8-0.3-1.4c-0.2-0.6-0.3-1.1-0.3-1.4c0-0.4,0.2-0.7,0.7-0.9
		c0.4-0.2,0.8-0.3,1.2-0.3c0.9,0,1.4,0.5,1.6,1.4c0.1,0.3,0.1,1.2,0.1,2.6c0,0.5,0,1.1-0.1,1.8s-0.1,1.3-0.1,1.8
		c0.6,0.2,1,0.3,1.1,0.4C176.7,178.3,176.9,178.8,176.9,179.6z"/>
	<path class="st0" d="M198.8,179.7c0,0.6-0.1,1.1-0.2,1.8c-0.6,2.8-1.9,5.1-3.8,6.6c-1.6,1.4-3.9,2.4-7,3.3
		c-0.8,0.2-1.7,0.3-2.5,0.3c-2.2,0-3.9-0.7-5.1-2.1c-1.2-1.3-1.7-3.1-1.7-5.3c0-2.3,0.5-4.5,1.4-6.5c1-2.2,2.3-3.9,4-5.2
		c1.9-1.4,3.4-2.1,4.6-2.1c1.2,0,2.3,0.2,3.5,0.6c1.3,0.4,2.4,1,3.1,1.7c1.2,1.2,2,2.2,2.6,3.1C198.4,177.1,198.8,178.4,198.8,179.7
		z M195.9,179.6c0-1.5-0.6-2.8-1.7-3.9s-2.4-1.6-3.9-1.6c-0.6,0-1.2,0.2-1.9,0.5c-0.7,0.3-1.2,0.5-1.4,0.5c-0.2,0-0.4-0.1-0.6-0.2
		c-1.4,0.5-2.7,1.6-3.9,3.2c-1.1,1.6-1.7,3.2-1.7,4.7c0,3.2,1.7,4.9,5.2,4.9c2.8,0,5.2-0.9,7.1-2.8
		C194.9,183.1,195.9,181.4,195.9,179.6z"/>
	<path class="st0" d="M220.6,179.7c0,0.6-0.1,1.1-0.2,1.8c-0.6,2.8-1.9,5.1-3.8,6.6c-1.6,1.4-3.9,2.4-7,3.3
		c-0.8,0.2-1.7,0.3-2.5,0.3c-2.2,0-3.9-0.7-5.1-2.1c-1.2-1.3-1.7-3.1-1.7-5.3c0-2.3,0.5-4.5,1.4-6.5c1-2.2,2.3-3.9,4-5.2
		c1.9-1.4,3.4-2.1,4.6-2.1c1.2,0,2.3,0.2,3.5,0.6c1.3,0.4,2.4,1,3.1,1.7c1.2,1.2,2,2.2,2.6,3.1C220.2,177.1,220.6,178.4,220.6,179.7
		z M217.7,179.6c0-1.5-0.6-2.8-1.7-3.9s-2.4-1.6-3.9-1.6c-0.6,0-1.2,0.2-1.9,0.5c-0.7,0.3-1.2,0.5-1.4,0.5c-0.2,0-0.4-0.1-0.6-0.2
		c-1.4,0.5-2.7,1.6-3.9,3.2c-1.1,1.6-1.7,3.2-1.7,4.7c0,3.2,1.7,4.9,5.2,4.9c2.8,0,5.2-0.9,7.1-2.8
		C216.7,183.1,217.7,181.4,217.7,179.6z"/>
</g>
<g>
	<path class="st0" d="M150.7,216c0,0.6-0.1,1.2-0.1,1.9c-0.2,1.4-0.3,2.4-0.5,3.1c-0.6,2.3-1.1,6-1.7,11.2c-0.1,0.5,0,1,0.3,1.3
		c0.2,0.4,0.3,0.9,0.3,1.4c0,0.9-0.4,1.4-1.2,1.4c-1.8,0.1-2.7-0.8-2.7-2.6c0-0.2,0-0.6,0.1-1.1c0.1-2,0.4-3.6,0.7-4.8
		c-1.1,0.6-2.3,0.9-3.7,1c-0.5,0-1,0.1-1.4,0.1c-1.9,0-3.6-0.6-5-1.8c-0.9-0.7-1.3-2-1.3-3.8c0-0.3,0-0.5,0-0.8
		c0.1-1.2,0.7-2.4,1.8-3.8c1.5-1.9,3.5-3.2,6.1-3.8c0.7-0.2,1.5-0.3,2.3-0.3c1.2,0,2.1,0.2,2.9,0.5c0.2-0.7,0.7-1,1.4-1
		c0.4,0,0.7,0.1,1,0.4S150.5,215.3,150.7,216z M147,218.3c-0.6-0.3-1.5-0.4-2.6-0.4c-1.3,0-2.5,0.2-3.4,0.7c-1.9,1-3.2,2.2-3.7,3.7
		c-0.1,0.2-0.1,0.5-0.1,0.7c0,0.7,0.4,1.2,1.2,1.7c0.7,0.4,1.6,0.6,2.7,0.6c2.2,0,3.9-0.7,5.1-2.2c0-0.2,0.1-0.3,0.2-0.5
		c0-0.4,0.2-1,0.4-1.8c0.2-0.7,0.3-1.3,0.3-1.7C147.1,218.8,147.1,218.6,147,218.3z"/>
	<path class="st0" d="M168.2,230.3c-1.2,1.5-2.7,2.8-4.7,3.9c-2,1.1-4,1.6-5.9,1.6c-1.9,0-3.3-0.6-4.3-1.8c-0.9-1.1-1.3-2.6-1.3-4.5
		c0-2.3,0.3-4.1,0.9-5.4c1.1-2.4,2.6-4.5,4.5-6.4c2.1-2.1,4.3-3.4,6.6-3.8c0.2,0,0.3-0.1,0.5-0.1c0.7,0,1.4,0.2,2,0.7
		c0.6,0.5,0.9,1,0.9,1.7c0,0.7-0.1,1.2-0.2,1.5c-0.2,0.4-0.6,0.6-1.2,0.6c-0.4,0-0.8-0.1-1.3-0.2c-0.4-0.1-0.7-0.2-0.9-0.2
		c-0.3,0-0.7,0.1-1.1,0.2c-0.9,0.3-1.8,0.9-2.8,1.7c-1,0.8-1.6,1.6-2.1,2.4c1.8-0.2,3.2-0.3,4.2-0.3c1.5,0,2.9,0.2,4.4,0.7
		c2.1,0.7,3.2,1.9,3.2,3.7C169.6,227.8,169.1,229,168.2,230.3z M166.5,226.6c-0.3-0.4-1.1-0.7-2.5-0.9c-1-0.1-1.9-0.2-2.9-0.1
		c-1.7,0.1-3.5,0.3-5.2,0.7c-0.7,0.7-1.1,1.5-1.1,2.7c0,0.4,0.1,0.9,0.2,1.3c0.4,1,1.4,1.5,3,1.5c0.9,0,2-0.2,3.4-0.7
		c2-0.7,3.6-1.6,4.7-2.7c0.3-0.3,0.5-0.7,0.5-1.1C166.7,227.1,166.6,226.8,166.5,226.6z"/>
	<path class="st0" d="M191.5,224.1c0,0.6-0.1,1.1-0.2,1.8c-0.6,2.8-1.9,5.1-3.8,6.6c-1.6,1.4-3.9,2.4-7,3.3
		c-0.8,0.2-1.7,0.3-2.5,0.3c-2.2,0-3.9-0.7-5.1-2.1c-1.2-1.3-1.7-3.1-1.7-5.3c0-2.3,0.5-4.5,1.4-6.5c1-2.2,2.3-3.9,4-5.2
		c1.9-1.4,3.4-2.1,4.6-2.1c1.2,0,2.3,0.2,3.5,0.6c1.3,0.4,2.4,1,3.1,1.7c1.2,1.2,2,2.2,2.6,3.1C191.1,221.5,191.5,222.8,191.5,224.1
		z M188.6,224.1c0-1.5-0.6-2.8-1.7-3.9c-1.1-1.1-2.4-1.6-3.9-1.6c-0.6,0-1.2,0.2-1.9,0.5c-0.7,0.3-1.2,0.5-1.4,0.5
		c-0.2,0-0.4-0.1-0.6-0.2c-1.4,0.5-2.7,1.6-3.9,3.2c-1.1,1.6-1.7,3.2-1.7,4.7c0,3.2,1.7,4.9,5.2,4.9c2.8,0,5.2-0.9,7.1-2.8
		C187.6,227.6,188.6,225.8,188.6,224.1z"/>
	<path class="st0" d="M213.3,224.1c0,0.6-0.1,1.1-0.2,1.8c-0.6,2.8-1.9,5.1-3.8,6.6c-1.6,1.4-3.9,2.4-7,3.3
		c-0.8,0.2-1.7,0.3-2.5,0.3c-2.2,0-3.9-0.7-5.1-2.1c-1.2-1.3-1.7-3.1-1.7-5.3c0-2.3,0.5-4.5,1.4-6.5c1-2.2,2.3-3.9,4-5.2
		c1.9-1.4,3.4-2.1,4.6-2.1c1.2,0,2.3,0.2,3.5,0.6c1.3,0.4,2.4,1,3.1,1.7c1.2,1.2,2,2.2,2.6,3.1C213,221.5,213.3,222.8,213.3,224.1z
		 M210.4,224.1c0-1.5-0.6-2.8-1.7-3.9c-1.1-1.1-2.4-1.6-3.9-1.6c-0.6,0-1.2,0.2-1.9,0.5c-0.7,0.3-1.2,0.5-1.4,0.5
		c-0.2,0-0.4-0.1-0.6-0.2c-1.4,0.5-2.7,1.6-3.9,3.2c-1.1,1.6-1.7,3.2-1.7,4.7c0,3.2,1.7,4.9,5.2,4.9c2.8,0,5.2-0.9,7.1-2.8
		C209.5,227.6,210.4,225.8,210.4,224.1z"/>
</g>
<g>
	<polygon class="st0" points="269,46.7 269,49.7 366.5,49.7 366.5,274.2 27.5,274.2 27.5,49.7 125,49.7 125,46.7 24.5,46.7 
		24.5,277.2 369.5,277.2 369.5,46.7 	"/>
	<g>
		<g>
			<path class="st0" d="M77.4,145.6h-3.9l-2-5.5h-8.2l-2,5.5h-3.8l8-20.7h3.9L77.4,145.6z M67.5,128.7l-3.2,8.7h6.3L67.5,128.7z"/>
			<path class="st0" d="M87.2,125.1c3.8,0,6.3,2.2,6.3,5.5c0,2-1.1,3.6-2.8,4.2c2.3,0.6,3.7,2.4,3.7,4.8c0,3.9-3,6.6-7.2,6.6
				s-7.1-2.7-7.1-6.7v-0.4h3.2c0.1,2.9,1.4,4.3,4,4.3c2.2,0,3.7-1.4,3.7-3.6c0-2.5-1.9-3.4-4.1-3.4c-0.4,0-0.6,0-1.1,0v-2.5H86
				c2,0,4.2-0.3,4.2-2.9c0-1.8-1.2-3-3.1-3c-2.1,0-3.3,1.4-3.4,4h-3.2C80.7,127.6,83.2,125.1,87.2,125.1z"/>
			<path class="st0" d="M117.5,139.2H109v-3.1h8.5V139.2z"/>
			<path class="st1" d="M325.7,138.8v6.8h-1.8v-8.3h5.8v1.4L325.7,138.8L325.7,138.8z"/>
			<path class="st1" d="M333.5,138.5c0.6-0.9,1.6-1.3,2.7-1.3c2.3,0,3.8,1.7,3.8,4.4c0,2.6-1.4,4.3-3.7,4.3c-1.1,0-2-0.4-2.7-1.3
				v4.1h-1.8v-11.3h1.7L333.5,138.5L333.5,138.5z M333.6,141.5c0,1.8,0.9,2.9,2.3,2.9c1.4,0,2.3-1.1,2.3-2.9c0-1.8-0.9-2.9-2.3-2.9
				C334.4,138.6,333.6,139.7,333.6,141.5z"/>
			<path class="st1" d="M342.7,145.6v-8.3h1.8v3.2h3.6v-3.2h1.8v8.3h-1.8V142h-3.6v3.6H342.7z"/>
			<path class="st1" d="M355.4,145.6h-2.2v-2.2h2.2V145.6z"/>
		</g>
	</g>
	<g>
		<g>
			<path class="st0" d="M77.4,190.5h-3.9l-2-5.5h-8.2l-2,5.5h-3.8l8-20.7h3.9L77.4,190.5z M67.5,173.6l-3.2,8.7h6.3L67.5,173.6z"/>
			<path class="st0" d="M94.4,185.7h-2.6v4.8h-3.2l0-4.8H80v-3.3l8.7-12.4h3.1v12.9h2.6V185.7z M88.7,174.1l-6,8.8h6V174.1z"/>
			<path class="st0" d="M117.5,184.1H109V181h8.5V184.1z"/>
			<path class="st1" d="M325.6,183.7v6.8h-1.8v-8.3h5.8v1.4L325.6,183.7L325.6,183.7z"/>
			<path class="st1" d="M333.5,183.4c0.6-0.9,1.6-1.3,2.7-1.3c2.3,0,3.8,1.7,3.8,4.4c0,2.6-1.4,4.3-3.7,4.3c-1.1,0-2-0.4-2.7-1.3
				v4.1h-1.8v-11.3h1.7L333.5,183.4L333.5,183.4z M333.5,186.4c0,1.8,0.9,2.9,2.3,2.9c1.4,0,2.3-1.1,2.3-2.9c0-1.8-0.9-2.9-2.3-2.9
				C334.4,183.5,333.5,184.6,333.5,186.4z"/>
			<path class="st1" d="M342.6,190.5v-8.3h1.8v3.2h3.6v-3.2h1.8v8.3h-1.8v-3.6h-3.6v3.6H342.6z"/>
			<path class="st1" d="M355.3,190.5h-2.2v-2.2h2.2V190.5z"/>
		</g>
	</g>
	<g>
		<g>
			<path class="st0" d="M156.2,55.8v-9.3h2.1v3.6h4.1v-3.6h2.1v9.3h-2.1v-4h-4.1v4H156.2z"/>
			<path class="st0" d="M171.8,46.2c2.2,0,3.8,0.8,3.8,2.8v4.7c0,0.5,0.1,0.7,0.5,0.7c0.1,0,0.2,0,0.5,0v1.4
				c-0.6,0.2-0.9,0.2-1.3,0.2c-0.8,0-1.4-0.3-1.5-1.1c-0.9,0.8-2,1.1-3.3,1.1c-1.9,0-3.1-1.1-3.1-2.8c0-2.5,2.3-2.7,4.2-2.9
				c1.4-0.2,1.8-0.3,2-0.5c0.1-0.1,0.1-0.3,0.1-0.7c0-1-0.6-1.4-1.9-1.4c-1.3,0-1.9,0.5-2.1,1.7h-1.9
				C168,47.1,169.5,46.2,171.8,46.2z M171.5,51.7c-0.9,0.1-2,0.3-2,1.5c0,0.9,0.6,1.4,1.7,1.4c0.9,0,1.6-0.3,2.1-0.7
				c0.4-0.4,0.4-1,0.4-1.6v-1.1C173,51.5,172.2,51.6,171.5,51.7z"/>
			<path class="st0" d="M191.4,46.4c-0.2-1.2-0.9-1.7-1.9-1.7c-2.2,0-2.4,2.9-2.6,4.4c0.7-1,1.6-1.5,2.9-1.5c2.3,0,3.9,1.7,3.9,4.2
				c0,2.6-1.8,4.4-4.2,4.4c-2.9,0-4.5-2.2-4.5-6.3c0-4.2,1.8-6.7,4.7-6.7c2.1,0,3.6,1.2,3.8,3.3H191.4z M187.2,51.7
				c0,1.6,0.9,2.7,2.2,2.7c1.3,0,2.2-1,2.2-2.6c0-1.6-0.9-2.6-2.2-2.6C188.1,49.1,187.2,50.1,187.2,51.7z"/>
			<path class="st0" d="M202.9,55.8v-9.3h2.7l2.6,7.4h0l2.5-7.4h2.7v9.3h-2v-6.2h0l-2.2,6.2h-2.1l-2.2-6.2h0v6.2H202.9z"/>
			<path class="st0" d="M218.9,45h-2.1v-2h2.1V45z M218.9,55.8h-2.1v-9.3h2.1V55.8z"/>
			<path class="st0" d="M226.6,56.1c-2.8,0-4.6-2-4.6-4.8c0-3.1,1.8-5,4.6-5c2.4,0,3.9,1.3,4.1,3.4h-2c-0.2-1.2-1-1.8-2.1-1.8
				c-1.6,0-2.6,1.3-2.6,3.3c0,2,0.9,3.3,2.5,3.3c1.2,0,2-0.8,2.2-2.1h2C230.5,54.6,228.9,56.1,226.6,56.1z"/>
			<path class="st0" d="M236.3,55.8h-2.4v-2.4h2.4V55.8z"/>
		</g>
	</g>
	<g>
		<g>
			<path class="st0" d="M99,28.8h-5.3v-1.9H99V28.8z"/>
			<path class="st0" d="M107.9,32.8h-2.2v-8.7h-3.1v-1.5c1.3,0,3.3-0.2,3.7-2.5h1.7C107.9,20.1,107.9,32.8,107.9,32.8z"/>
			<path class="st0" d="M120.9,22.1h-5l-0.6,3.2c0.7-0.7,1.4-0.9,2.4-0.9c2.3,0,3.9,1.7,3.9,4.1c0,2.7-1.8,4.5-4.5,4.5
				c-2.5,0-4.2-1.5-4.3-3.8h2c0.1,1.3,1,2.1,2.3,2.1c1.5,0,2.3-1,2.3-2.7c0-1.7-0.9-2.6-2.4-2.6c-0.9,0-1.6,0.3-2.1,1.1l-1.8,0
				l1.2-6.8h6.5V22.1z"/>
			<path class="st0" d="M131.1,23.5c0,2.4-1,3.7-2.9,3.7c-1.9,0-2.9-1.2-2.9-3.6c0-2.2,1.1-3.5,3-3.5
				C130.1,20.1,131.1,21.3,131.1,23.5z M126.8,23.7c0,1.6,0.4,2.3,1.3,2.3c1.3,0,1.4-1.5,1.4-2.5c0-0.9-0.1-2.3-1.4-2.3
				C127.2,21.2,126.8,22,126.8,23.7z M129.7,33.4h-1.4l7.1-13.6h1.4L129.7,33.4z M140.1,29.4c0,2.4-1,3.7-2.9,3.7
				c-1.9,0-2.9-1.2-2.9-3.6c0-2.2,1.1-3.5,3-3.5C139.1,26,140.1,27.2,140.1,29.4z M135.9,29.6c0,1.6,0.4,2.3,1.4,2.3
				c1.3,0,1.4-1.5,1.4-2.5c0-0.9-0.1-2.3-1.4-2.3C136.3,27.1,135.9,27.9,135.9,29.6z"/>
			<path class="st0" d="M150.2,32.8v-9.3h8.2v9.3h-2.1v-7.7h-4.1v7.7H150.2z"/>
			<path class="st0" d="M163.8,24.8c0.6-1,1.8-1.5,3-1.5c2.6,0,4.2,1.9,4.2,4.9c0,2.9-1.6,4.8-4.1,4.8c-1.3,0-2.3-0.4-3-1.5v4.7h-2
				V23.5h1.9L163.8,24.8L163.8,24.8z M163.8,28.2c0,2,1,3.2,2.6,3.2c1.6,0,2.5-1.2,2.5-3.2c0-2-1-3.3-2.6-3.3
				C164.8,24.9,163.8,26.1,163.8,28.2z"/>
			<path class="st0" d="M174.1,32.8v-9.3h2.1v6.8h0.1l3.5-6.8h2.6v9.3h-2.1v-6.8h-0.1l-3.5,6.8H174.1z"/>
			<path class="st0" d="M195.6,33.1c-2.7,0-4.1-1.2-4.2-3.2h2.1c0.2,1.3,1.2,1.6,2.1,1.6c1.1,0,1.9-0.5,1.9-1.4
				c0-0.8-0.4-1.4-1.8-1.4h-1.1v-1.5h0.8c1.1,0,1.9-0.3,1.9-1.2c0-0.7-0.5-1.2-1.7-1.2c-1.1,0-1.6,0.6-1.8,1.4h-2.1
				c0.2-2.4,2.2-3,4.1-3c1.9,0,3.5,0.7,3.5,2.5c0,1.1-0.7,1.8-1.5,2v0c0.9,0.2,1.8,0.9,1.8,2.3C199.5,32.1,197.5,33.1,195.6,33.1z"
				/>
			<path class="st0" d="M206.5,23.2c2.2,0,3.8,0.8,3.8,2.8v4.7c0,0.5,0.1,0.7,0.5,0.7c0.1,0,0.2,0,0.5,0v1.4
				c-0.6,0.2-0.9,0.2-1.3,0.2c-0.8,0-1.4-0.3-1.5-1.1c-0.9,0.8-2,1.1-3.3,1.1c-1.9,0-3.1-1.1-3.1-2.8c0-2.5,2.3-2.7,4.2-2.9
				c1.4-0.2,1.8-0.3,2-0.5c0.1-0.1,0.1-0.3,0.1-0.7c0-1-0.6-1.4-1.9-1.4c-1.3,0-1.9,0.5-2.1,1.7h-1.9
				C202.7,24.1,204.2,23.2,206.5,23.2z M206.2,28.7c-0.9,0.1-2,0.3-2,1.5c0,0.9,0.6,1.4,1.7,1.4c0.9,0,1.6-0.3,2.1-0.7
				c0.4-0.4,0.4-1,0.4-1.6v-1.1C207.7,28.5,206.9,28.6,206.2,28.7z"/>
			<path class="st0" d="M213.8,32.8v-9.3h2.7l2.6,7.4h0l2.5-7.4h2.7v9.3h-2v-6.2h0l-2.2,6.2H218l-2.2-6.2h0v6.2H213.8z"/>
			<path class="st0" d="M236.7,28.2c0,3-1.8,4.9-4.6,4.9c-2.9,0-4.7-1.9-4.7-4.9c0-3,1.9-4.9,4.7-4.9
				C234.9,23.3,236.7,25.2,236.7,28.2z M229.4,28.2c0,2.1,1,3.3,2.6,3.3c1.6,0,2.6-1.3,2.6-3.4c0-2-1-3.3-2.6-3.3
				S229.4,26.1,229.4,28.2z"/>
			<path class="st0" d="M244.6,32.8h-4.9v-9.3h5.1c1.7,0,2.8,0.8,2.8,2.3c0,1-0.4,1.5-1.3,2v0c1.2,0.3,1.8,1.1,1.8,2.4
				C248,31.9,246.7,32.8,244.6,32.8z M241.7,25.1v2.1h2.6c0.8,0,1.2-0.4,1.2-1.1c0-0.7-0.4-1-1.2-1L241.7,25.1L241.7,25.1z
				 M241.7,28.7v2.6h2.8c0.9,0,1.4-0.4,1.4-1.3c0-0.8-0.5-1.3-1.4-1.3H241.7z"/>
			<path class="st0" d="M256.8,32.8v-7.7h-2.8l-0.1,4.1c-0.1,2.4-1.1,3.8-2.8,3.8c-0.4,0-1-0.1-1.3-0.2v-1.6
				c0.1,0.1,0.5,0.1,0.7,0.1c0.6,0,1.2-0.4,1.3-2.3l0.2-5.5h6.9v9.3L256.8,32.8L256.8,32.8z"/>
			<path class="st0" d="M266.3,33.1c-2.9,0-4.6-2.1-4.6-4.8c0-2.9,1.9-5,4.5-5c2.7,0,4.4,2,4.4,5.2v0.2h-6.9c0,1.9,1,2.9,2.6,2.9
				c1.1,0,1.8-0.5,2.2-1.7h2C270.1,32,268.4,33.1,266.3,33.1z M266.2,24.8c-1.4,0-2.2,0.9-2.4,2.5h4.8
				C268.5,25.7,267.6,24.8,266.2,24.8z"/>
			<path class="st0" d="M273.5,32.8v-9.3h2v3.6h4.1v-3.6h2v9.3h-2v-4h-4.1v4H273.5z"/>
			<path class="st0" d="M285.1,32.8v-9.3h2v3.6h4.1v-3.6h2v9.3h-2v-4h-4.1v4H285.1z"/>
			<path class="st0" d="M298.8,22h-2v-2h2V22z M298.8,32.8h-2v-9.3h2V32.8z"/>
		</g>
	</g>
	<g>
		<g>
			<path class="st0" d="M77.4,235.4h-3.9l-2-5.5h-8.2l-2,5.5h-3.8l8-20.7h3.9L77.4,235.4z M67.5,218.5l-3.2,8.7h6.3L67.5,218.5z"/>
			<path class="st0" d="M93.1,218.1H85l-0.9,5.2c1.1-1.1,2.3-1.4,3.8-1.4c3.8,0,6.3,2.7,6.3,6.7c0,4.3-3,7.3-7.3,7.3
				c-4,0-6.7-2.4-6.9-6.2h3.3c0.2,2.1,1.6,3.4,3.7,3.4c2.4,0,3.8-1.6,3.8-4.4c0-2.7-1.4-4.3-3.8-4.3c-1.5,0-2.5,0.5-3.4,1.8
				l-2.9-0.1l1.9-11h10.5L93.1,218.1L93.1,218.1z"/>
			<path class="st0" d="M117.5,229H109v-3.1h8.5V229z"/>
			<path class="st1" d="M309.9,228.6v6.8h-1.8v-8.3h5.8v1.4L309.9,228.6L309.9,228.6z"/>
			<path class="st1" d="M317.8,228.3c0.6-0.9,1.6-1.3,2.7-1.3c2.3,0,3.8,1.7,3.8,4.4c0,2.6-1.4,4.3-3.7,4.3c-1.1,0-2-0.4-2.7-1.3
				v4.1H316v-11.3h1.7L317.8,228.3L317.8,228.3z M317.8,231.3c0,1.8,0.9,2.9,2.3,2.9c1.4,0,2.3-1.1,2.3-2.9c0-1.8-0.9-2.9-2.3-2.9
				C318.6,228.4,317.8,229.5,317.8,231.3z"/>
			<path class="st1" d="M326.9,235.4v-8.3h1.8v3.2h3.6v-3.2h1.8v8.3h-1.8v-3.6h-3.6v3.6H326.9z"/>
			<path class="st1" d="M339.6,235.4h-2.2v-2.2h2.2V235.4z"/>
		</g>
	</g>
	<g>
		<g>
			<g>
				<path class="st1" d="M145.3,146c17.6-5.6,35-11.8,52.9-16.1c5.4-1.3,10.9-2.5,16.4-3.5c1.4-0.3,0.8-2.4-0.6-2.2
					c-18.2,3.4-35.8,8.7-53.4,14.5c-5.3,1.7-10.6,3.5-16,5.2C143.3,144.2,143.9,146.4,145.3,146L145.3,146z"/>
			</g>
		</g>
		<g>
			<g>
				<path class="st1" d="M146.8,131.8c18.3,1.2,36.6,1.7,54.8,4.1c5.6,0.7,11.1,1.6,16.6,2.7c1.4,0.3,2-1.9,0.6-2.2
					c-18.2-3.4-36.6-4.8-55.1-5.8c-5.6-0.3-11.3-0.6-16.9-1C145.3,129.5,145.3,131.7,146.8,131.8L146.8,131.8z"/>
			</g>
		</g>
	</g>
	<g>
		<g>
			<g>
				<path class="st1" d="M139.3,191c17.6-5.6,35-11.8,52.9-16.1c5.4-1.3,10.9-2.5,16.4-3.5c1.4-0.3,0.8-2.4-0.6-2.2
					c-18.2,3.4-35.8,8.7-53.4,14.5c-5.3,1.7-10.6,3.5-16,5.2C137.3,189.2,137.9,191.4,139.3,191L139.3,191z"/>
			</g>
		</g>
		<g>
			<g>
				<path class="st1" d="M140.8,176.8c18.3,1.2,36.6,1.7,54.8,4.1c5.6,0.7,11.1,1.6,16.6,2.7c1.4,0.3,2-1.9,0.6-2.2
					c-18.2-3.4-36.6-4.8-55.1-5.8c-5.6-0.3-11.3-0.6-16.9-1C139.3,174.5,139.3,176.7,140.8,176.8L140.8,176.8z"/>
			</g>
		</g>
	</g>
	<g>
		<g>
			<g>
				<path class="st1" d="M139.3,237c17.6-5.6,35-11.8,52.9-16.1c5.4-1.3,10.9-2.5,16.4-3.5c1.4-0.3,0.8-2.4-0.6-2.2
					c-18.2,3.4-35.8,8.7-53.4,14.5c-5.3,1.7-10.6,3.5-16,5.2C137.3,235.2,137.9,237.4,139.3,237L139.3,237z"/>
			</g>
		</g>
		<g>
			<g>
				<path class="st1" d="M140.8,222.8c18.3,1.2,36.6,1.7,54.8,4.1c5.6,0.7,11.1,1.6,16.6,2.7c1.4,0.3,2-1.9,0.6-2.2
					c-18.2-3.4-36.6-4.8-55.1-5.8c-5.6-0.3-11.3-0.6-16.9-1C139.3,220.5,139.3,222.7,140.8,222.8L140.8,222.8z"/>
			</g>
		</g>
	</g>
</g>
<g>
	<path class="st1" d="M247,145.7h-4.4v-13.3h-5v-3.1h0.5c2.9,0,4.8-1.1,5.4-4.1h3.4V145.7z"/>
	<path class="st1" d="M263,130.6c-0.4-1.5-1.3-2.3-2.7-2.3c-2.3,0-3.6,2-3.9,6.1c1.1-1.5,2.7-2.3,4.5-2.3c3.7,0,6.4,2.8,6.4,6.7
		c0,4.2-3,7.3-7.3,7.3c-4.8,0-7.7-3.8-7.7-10.1c0-6.7,3-10.8,8-10.8c3.7,0,6.1,2,6.6,5.5H263z M256.8,138.9c0,2.2,1.3,3.8,3.2,3.8
		s3.3-1.6,3.3-3.8c0-2.2-1.4-3.8-3.3-3.8C258.1,135.1,256.8,136.7,256.8,138.9z"/>
	<path class="st1" d="M277.6,125.1c4,0,6.8,2.3,6.8,5.6c0,2-1.1,3.6-2.9,4c2.3,0.6,3.6,2.3,3.6,4.7c0,3.9-3.1,6.6-7.6,6.6
		c-4.6,0-7.6-2.7-7.6-7.1v-0.3h4c0,2.5,1.3,3.9,3.5,3.9c2,0,3.4-1.3,3.4-3.1c0-2.3-1.8-3-3.7-3c-0.4,0-0.6,0-1,0v-2.9
		c0.3,0,0.4,0,0.7,0c2.4,0,3.6-0.8,3.6-2.6c0-1.5-1.1-2.6-2.8-2.6c-1.9,0-3,1.2-3.1,3.5h-3.9C270.7,127.8,273.3,125.1,277.6,125.1z"
		/>
	<path class="st1" d="M303,145.7h-15c0.1-4.7,2.6-6.5,6.3-9c1.8-1.2,4.4-2.5,4.4-5c0-1.8-1.2-2.9-2.9-2.9c-2.2,0-3.2,1.4-3.3,4.4h-4
		v-0.4c0-4.6,2.9-7.6,7.4-7.6c4.1,0,6.9,2.5,6.9,6.2c0,3.3-1.8,4.8-4.2,6.4c-1.8,1.2-4.1,2.6-5.3,4.3h9.7V145.7z"/>
	<path class="st1" d="M320,135.6c0,6.5-2.8,10.4-7.4,10.4c-4.7,0-7.6-3.9-7.6-10.4c0-4.8,1.7-10.5,7.5-10.5
		C318.4,125.2,320,130.8,320,135.6z M309.1,135.8c0,4.6,1.1,6.9,3.4,6.9c2.3,0,3.4-2.3,3.4-7.1c0-4.9-1-7.1-3.4-7.1
		C309.1,128.6,309.1,133.4,309.1,135.8z"/>
</g>
<g>
	<path class="st1" d="M247.3,191.2h-4.4v-13.3h-5v-3.1h0.5c2.9,0,4.8-1.1,5.4-4.1h3.4V191.2z"/>
	<path class="st1" d="M267.4,191.2h-15c0.1-4.7,2.6-6.5,6.3-9c1.8-1.2,4.4-2.5,4.4-5c0-1.8-1.2-2.9-2.9-2.9c-2.2,0-3.2,1.4-3.3,4.4
		h-4v-0.4c0-4.6,2.9-7.6,7.4-7.6c4.1,0,6.9,2.5,6.9,6.2c0,3.3-1.8,4.8-4.2,6.4c-1.7,1.2-4.1,2.6-5.3,4.3h9.7V191.2z"/>
	<path class="st1" d="M285.9,191.2h-15c0.1-4.7,2.6-6.5,6.3-9c1.8-1.2,4.4-2.5,4.4-5c0-1.8-1.2-2.9-2.9-2.9c-2.2,0-3.2,1.4-3.3,4.4
		h-4v-0.4c0-4.6,2.9-7.6,7.4-7.6c4.1,0,6.9,2.5,6.9,6.2c0,3.3-1.8,4.8-4.2,6.4c-1.7,1.2-4.1,2.6-5.3,4.3h9.7V191.2z"/>
	<path class="st1" d="M303.6,186.5h-2.7v4.7H297v-4.7h-8.7v-3.8l8.9-12h3.7v12.3h2.7V186.5z M297,175.5l-5.4,7.6h5.4V175.5z"/>
	<path class="st1" d="M320.3,181.1c0,6.5-2.8,10.4-7.4,10.4c-4.7,0-7.6-3.9-7.6-10.4c0-4.8,1.7-10.5,7.5-10.5
		C318.7,170.7,320.3,176.3,320.3,181.1z M309.4,181.3c0,4.6,1.1,6.9,3.4,6.9c2.3,0,3.4-2.3,3.4-7.1c0-4.9-1-7.1-3.4-7.1
		C309.4,174.1,309.4,178.9,309.4,181.3z"/>
</g>
<g>
	<path class="st1" d="M241,220.8c0-3.2,2.9-5.5,6.9-5.5c4,0,6.9,2.3,6.9,5.5c0,2.1-1,3.6-3,4.2c2.4,0.6,3.8,2.4,3.8,5
		c0,3.7-3.1,6.2-7.7,6.2c-4.6,0-7.7-2.5-7.7-6.2c0-2.5,1.4-4.4,3.8-5C242.1,224.4,241,222.9,241,220.8z M244.3,229.8
		c0,2,1.4,3.3,3.5,3.3c2.1,0,3.6-1.3,3.6-3.3c0-2-1.5-3.3-3.6-3.3C245.8,226.5,244.3,227.9,244.3,229.8z M244.8,221.1
		c0,1.7,1.2,2.7,3.1,2.7c1.9,0,3.1-1.1,3.1-2.7s-1.2-2.7-3.1-2.7C246,218.4,244.8,219.5,244.8,221.1z"/>
	<path class="st1" d="M267.5,235.9h-4.4v-13.3h-5v-3.1h0.5c2.9,0,4.8-1.1,5.4-4.1h3.4V235.9z"/>
	<path class="st1" d="M283.5,220.8c-0.4-1.5-1.3-2.3-2.7-2.3c-2.3,0-3.6,2-3.9,6.1c1.1-1.5,2.7-2.3,4.5-2.3c3.7,0,6.4,2.8,6.4,6.7
		c0,4.2-3,7.3-7.3,7.3c-4.8,0-7.7-3.8-7.7-10.1c0-6.7,3-10.8,8-10.8c3.7,0,6.1,2,6.6,5.5H283.5z M277.3,229.1c0,2.2,1.3,3.8,3.2,3.8
		c1.9,0,3.3-1.6,3.3-3.8c0-2.2-1.4-3.8-3.3-3.8C278.6,225.4,277.3,227,277.3,229.1z"/>
	<path class="st1" d="M304,225.8c0,6.5-2.8,10.4-7.4,10.4c-4.7,0-7.6-3.9-7.6-10.4c0-4.8,1.7-10.5,7.5-10.5
		C302.4,215.4,304,221,304,225.8z M293.1,226.1c0,4.6,1.1,6.9,3.4,6.9c2.3,0,3.4-2.3,3.4-7.1c0-4.9-1-7.1-3.4-7.1
		C293.1,218.8,293.1,223.6,293.1,226.1z"/>
</g>
</svg>
