<?xml version="1.0" encoding="utf-8"?>
<!-- Generator: Adobe Illustrator 24.3.0, SVG Export Plug-In . SVG Version: 6.00 Build 0)  -->
<svg version="1.1" id="Слой_1" xmlns="http://www.w3.org/2000/svg" xmlns:xlink="http://www.w3.org/1999/xlink" x="0px" y="0px"
	 viewBox="0 0 938 683" style="enable-background:new 0 0 938 683;" xml:space="preserve">
<style type="text/css">
	.st0{fill:#878787;}
	.st1{fill:#128CB9;}
	.st2{fill:none;stroke:#878787;stroke-width:8.7722;stroke-miterlimit:10;}
	.st3{fill:none;stroke:#878787;stroke-width:0.8224;stroke-miterlimit:10;}
	.st4{fill:none;stroke:#878787;stroke-width:1.0965;stroke-miterlimit:10;}
	.st5{fill:none;stroke:#878787;stroke-width:2.1931;stroke-miterlimit:10;}
	.st6{fill:none;stroke:#878787;stroke-width:3.2896;stroke-miterlimit:10;}
	.st7{fill:#4D4D4D;}
	.st8{fill:#FEA77C;}
	.st9{fill:#20140F;}
	.st10{fill:#FFFFFF;}
	.st11{fill:#BF453F;}
</style>
<path class="st7" d="M759.5,598.7l-1.61-57.15c-1.33-0.71-2.25-2.07-2.27-3.66c-0.03-2.34,1.87-4.26,4.24-4.28
	c0.39,0,0.76,0.06,1.12,0.15l78.85-80.62c-0.24-0.53-0.4-1.11-0.4-1.73c-0.01-0.92,0.28-1.77,0.78-2.46L725.42,298.02
	c1.19-0.62,2.37-1.22,3.56-1.86l114.83,150.96c2.3,0.05,4.17,1.89,4.19,4.18c0.03,2.33-1.87,4.26-4.24,4.28
	c-0.24,0-0.48-0.03-0.72-0.07l-79.1,80.89c0.16,0.44,0.26,0.89,0.27,1.38c0.02,1.66-0.94,3.09-2.34,3.8l1.61,57.07l0.1,3.64
	l0.11,3.96c0.03,1.09-0.83,2-1.93,2.04c-0.01,0-0.02,0-0.03,0c-1.08,0.01-1.97-0.84-2-1.92l-0.11-4.05L759.5,598.7z"/>
<path class="st7" d="M763.57,602.3c18.94,0,33.93,2.52,33.97,5.81c0.04,3.43-16.2,6.39-36.26,6.61c-20.07,0.22-36.37-2.38-36.41-5.8
	c-0.04-3.34,15.39-6.23,34.74-6.59l0.11,4.05c0.03,1.08,0.93,1.93,2,1.92c0.01,0,0.03,0,0.03,0c1.1-0.03,1.96-0.94,1.93-2.04
	L763.57,602.3z"/>
<path class="st1" d="M682.49,295.01c9.7,15.01,11.79,30.92,4.67,35.52c-7.12,4.6-20.76-3.84-30.46-18.86
	c-9.7-15.02-11.79-30.92-4.67-35.52C659.15,271.55,672.79,279.99,682.49,295.01z"/>
<path class="st7" d="M624.6,598.28l-3.76,18.33c-0.52,2.53-2.73,4.36-5.32,4.41l-257.92,2.36c-2.1,0.04-3.62-1.98-3-3.99
	c0.73-2.36,2.9-3.99,5.38-4.01l91.64-1.02l29.82-140.67c1.08-5.08,5.51-8.76,10.71-8.87l152.5-3.43c4.14-0.09,7.29,3.68,6.45,7.74
	L624.6,598.28z"/>
<path class="st8" d="M427.19,115.27c0.66,4.82-0.45,10.11-3.94,13.51c-1.08,1.05-2.41,1.85-3.83,2.36
	c-3.19,1.14-6.88,0.84-9.41-1.38l-0.02-0.04c1.98-0.99,3.74-2.5,4.97-4.32c3.1-4.6,3.42-10.58,2.48-16.05
	c-0.29-1.65-0.7-3.31-1.32-4.87c2.81-0.51,5.77,0.78,7.7,2.89C425.78,109.51,426.79,112.39,427.19,115.27z"/>
<path class="st8" d="M388.6,127.85c1.9-0.47,3.83-1.05,5.61-1.88l0.06,0.12c-0.09,1.75-0.78,3.44-1.89,4.8
	c-0.71,0.87-1.59,1.6-2.59,2.11l-0.03,0C389.62,131.24,389.24,129.5,388.6,127.85z"/>
<path class="st8" d="M405.42,114.92c0.34,4.21,0.04,8.7-2.31,12.22c-0.71,1.07-1.66,2.01-2.74,2.74c-2.4,1.63-5.44,2.23-8,1.01
	c1.11-1.36,1.8-3.05,1.89-4.8l-0.06-0.12c1.42-0.67,2.73-1.52,3.86-2.61c2.53-2.48,3.76-6.59,1.99-9.64
	c-0.57-0.99-1.48-1.83-2.59-2.06c-1-0.2-2.02,0.11-2.99,0.42c-1.15,0.37-2.31,0.73-3.46,1.11c-0.94-3.45-1.97-6.91-3.93-9.88
	c-1.37-2.07-3.27-3.88-5.49-4.93l0-0.01l0.06-0.11c3.51-3.01,7.98-5.74,12.48-4.72c2.98,0.68,5.2,2.8,6.82,5.44
	c1.07,1.73,1.87,3.67,2.46,5.56C404.47,107.91,405.14,111.4,405.42,114.92z"/>
<path class="st8" d="M416.12,104.48c0.61,1.56,1.03,3.23,1.32,4.87c0.95,5.47,0.63,11.44-2.48,16.05c-1.23,1.82-2.99,3.33-4.97,4.32
	c-3.01,1.51-6.54,1.85-9.52,0.31l-0.1-0.14c1.08-0.73,2.03-1.67,2.74-2.74c2.35-3.51,2.64-8,2.31-12.22
	c-0.28-3.52-0.95-7.01-2-10.38c-0.59-1.89-1.4-3.84-2.46-5.56l0.54-0.34c2.78-2.84,7.79-2.33,10.82,0.23
	C414.07,100.35,415.28,102.32,416.12,104.48z"/>
<path class="st8" d="M391.02,113.19c1.15-0.37,2.31-0.73,3.46-1.11c0.97-0.31,1.99-0.62,2.99-0.42c1.11,0.23,2.02,1.08,2.59,2.06
	c1.77,3.05,0.54,7.17-1.99,9.64c-1.12,1.09-2.44,1.94-3.86,2.61c-1.77,0.84-3.71,1.41-5.61,1.88c0.64,1.65,1.02,3.39,1.16,5.15
	l0.03,0c1-0.51,1.88-1.24,2.59-2.11c2.56,1.22,5.6,0.62,8-1.01l0.1,0.14c2.97,1.54,6.5,1.21,9.52-0.31l0.02,0.04
	c2.53,2.22,6.21,2.52,9.41,1.38l0.04,0.11c0.54,2.94,0.31,6.03-0.64,8.86c-1.34,3.97-4.05,7.4-5.2,11.43
	c-0.76,2.66-0.79,5.5-0.17,8.58c-13.58,1.49-27.42,0.54-40.67-2.78l0.01-0.06c-1.38-7.3-5.1-13.9-8.15-20.68
	c-3.05-6.77-5.5-14.24-4.11-21.55c0.99-5.21,3.92-9.96,7.86-13.51c2.58-2.33,5.81-4.24,9.29-4.15c1.37,0.03,2.69,0.39,3.92,0.97
	l0,0.01c2.21,1.05,4.12,2.87,5.49,4.93C389.04,106.28,390.08,109.74,391.02,113.19z"/>
<path class="st8" d="M128.97,130.59c-0.98,1.86-1.7,3.86-2.16,5.91c-1.95-0.07-3.86-0.95-5.17-2.4l-0.11-0.06
	c0.37-0.67,0.69-1.37,0.96-2.08C124.71,131.78,126.92,131.11,128.97,130.59z"/>
<path class="st8" d="M99.27,109.54c0.55,0.23,1.08,0.53,1.56,0.89c1.49,1.16,2.45,2.86,3.31,4.54c2.12,4.21,3.82,8.64,5.07,13.19
	c0.92,3.37,1.49,7.32-0.65,10.08c-0.02,0.03-0.05,0.06-0.08,0.1c-2.17,2.68-6.05,3.09-9.53,3.14c0.15-0.23,0.27-0.49,0.37-0.76
	c0.49-1.31,0.4-2.75,0.21-4.14c-0.8-6.17-3.3-12.12-7.15-17.02c-0.86-1.09-1.86-2.18-3.09-2.75l0.14-0.27
	c0.33-2.88,1.33-5.57,4.13-6.89C95.34,108.81,97.46,108.8,99.27,109.54z"/>
<path class="st9" d="M344.09,312.92c1.88-0.02,3.41,1.48,3.43,3.36c0.02,1.87-1.48,3.4-3.36,3.43c-1.87,0.02-3.4-1.48-3.43-3.35
	C340.72,314.48,342.22,312.94,344.09,312.92z"/>
<path class="st8" d="M127.37,104.55c4.38,4.07,7.08,8.4,9.01,14.05l0,0.01c-1.02-0.01-2.04,0.1-3.06,0.2l-11.5,1.17
	c-0.5,0.05-1,0.11-1.52,0.19c-0.91-3.41-2.38-6.67-4.34-9.61c-0.69-1.03-1.44-2.04-2.3-2.93l0.25-0.25
	c1.77-2.59,4.66-4.37,7.76-4.81c1.01-0.15,2.06-0.15,3.03,0.19C125.73,103.1,126.58,103.82,127.37,104.55z"/>
<path class="st7" d="M304.38,290.62c0.89,0.68,1.43,1.92,0.97,2.93c-0.32,0.7-1.04,1.14-1.78,1.33c-0.74,0.19-1.52,0.17-2.28,0.21
	c-2.08,0.08-4.19,0.54-5.9,1.72c-0.9,0.62-1.67,1.42-2.61,1.95c-0.95,0.53-2.21,0.72-3.1,0.09c-0.85-0.61-1.09-1.83-0.8-2.85
	c0.3-1.01,1.03-1.83,1.82-2.53c3.14-2.79,7.52-4.13,11.68-3.57C302.37,289.71,303.5,289.94,304.38,290.62z"/>
<path class="st8" d="M118.66,131.68c1.26,0.33,2.55,0.39,3.82,0.28c-0.27,0.71-0.59,1.41-0.96,2.08c-1.19,2.15-2.87,4.02-5.08,5.05
	c-2.5,1.18-5.7,1-7.84-0.64l-0.14-0.11c0.03-0.03,0.06-0.06,0.08-0.1c2.14-2.76,1.58-6.71,0.65-10.08
	c-1.25-4.55-2.95-8.98-5.07-13.19c-0.85-1.68-1.81-3.39-3.31-4.54c-0.48-0.36-1.01-0.67-1.56-0.89c1.23-1.88,2.58-3.82,4.62-4.74
	c2.21-1.02,4.89-0.61,7,0.6c1.04,0.59,1.95,1.35,2.77,2.22c0.86,0.89,1.61,1.9,2.3,2.93c1.96,2.94,3.43,6.21,4.34,9.61
	c-2.57,0.39-5.2,1.2-6.34,3.45C112.35,126.79,115.21,130.77,118.66,131.68z"/>
<path class="st8" d="M98.95,141.48c3.48-0.04,7.36-0.45,9.53-3.14l0.14,0.11c2.15,1.65,5.35,1.82,7.84,0.64
	c2.2-1.03,3.89-2.9,5.08-5.05l0.11,0.06c1.3,1.45,3.22,2.33,5.17,2.4c0.45-2.05,1.18-4.05,2.16-5.91c-2.05,0.52-4.26,1.18-6.48,1.36
	c-1.28,0.11-2.57,0.05-3.82-0.28c-3.45-0.92-6.31-4.89-4.7-8.08c1.14-2.25,3.76-3.06,6.34-3.45c0.51-0.07,1.02-0.14,1.52-0.19
	l11.5-1.17c1.02-0.1,2.04-0.2,3.06-0.2c1.02,0,2.03,0.11,3,0.42c3.9,1.27,6.04,5.65,6.23,9.75c0.2,4.1-1.1,8.1-1.92,12.12
	c-1.89,9.28-1.24,19.06,1.85,28.01c-15.36,4.53-29.37,7.95-45.23,7.91c-0.09-0.46-0.19-0.93-0.31-1.39c0-0.01,0-0.01,0-0.01
	c-0.97-3.97-2.71-7.75-5.11-11.07c-2.22-3.07-4.98-5.72-7.31-8.71c-7.08-9.1-9.85-21.41-7.34-32.67c0.33-1.94,1.69-3.95,3.56-5.28
	c1.31-0.94,2.97-1.53,4.55-1.19c0.33,0.07,0.64,0.18,0.94,0.32c1.23,0.57,2.23,1.66,3.09,2.75c3.84,4.9,6.34,10.85,7.15,17.02
	c0.18,1.38,0.28,2.83-0.21,4.14C99.22,140.99,99.09,141.24,98.95,141.48z"/>
<path class="st10" d="M338.74,341.02c0.04,2.77-1.57,5.31-3.55,7.24c-3.19,3.1-7.49,5.03-11.94,5.43
	c-4.44,0.39-8.98-0.72-12.78-3.05c-1.7-1.05-3.28-2.36-4.3-4.08c-1.01-1.72-1.39-3.89-0.65-5.74c1.29-3.25,5.33-4.44,8.83-4.31
	c3.49,0.13,7,1.13,10.43,0.47c3.22-0.62,6.45-2.67,9.52-1.54C336.38,336.21,338.71,338.26,338.74,341.02z"/>
<path class="st7" d="M228.46,540.41c-10.58-32.65-29.81-61.15-49.34-89.61l-0.13,0.09c-4.31,4.17-6.36,7.82-8.42,13.46
	c-4.11,11.28-3.77,23.7-2.12,35.59c3.36,24.13,11.82,47.21,20.23,70.08c3.4,9.22,6.78,18.45,10.18,27.67l35.5,0.05h11.71
	L228.46,540.41z"/>
<path class="st9" d="M300.74,313.4c1.87-0.02,3.4,1.48,3.43,3.36c0.02,1.87-1.48,3.4-3.35,3.43c-1.88,0.02-3.41-1.48-3.43-3.35
	C297.36,314.96,298.86,313.42,300.74,313.4z"/>
<path class="st7" d="M352.17,295.3c0.32,1.01,0.11,2.24-0.73,2.86c-0.88,0.65-2.13,0.48-3.1-0.02c-0.97-0.51-1.75-1.29-2.66-1.89
	c-1.74-1.14-3.86-1.56-5.94-1.59c-0.77-0.02-1.54,0.02-2.29-0.16s-1.47-0.6-1.81-1.29c-0.48-1,0.04-2.25,0.91-2.95
	c0.86-0.69,1.99-0.95,1.99-0.76c4.15-0.65,8.56,0.6,11.76,3.31C351.1,293.49,351.85,294.3,352.17,295.3z"/>
<path class="st7" d="M350.26,259.07c-7.94,4.91-18.2,6.83-28.15,7.19c-6.18,0.22-12.36-0.09-18.53-0.38
	c-2.81-0.13-5.87-0.58-8.65-0.36c-2.29,0.18-18.72,2.8-29.33,19.58c-0.36,0.57-0.75,1.12-1.1,1.69
	c-6.77,10.95-9.66,24.72-6.25,37.13c0.14,0.52-0.07,1.09-0.44,1.49c-0.37,0.4-0.88,0.64-1.39,0.82c-1.01,0.36-2.15,0.47-3.17,0.14
	c-1.03-0.33-1.92-1.17-2.13-2.23c-1.9-2.92-4.91-5.1-8.23-5.63c-1.19-0.19-2.42-0.17-3.61,0.05c-0.35-0.72-0.69-1.44-1.04-2.15
	c-6.81-16.5-10.02-35.45-1.79-50.67c6.44-11.91,18.81-19.48,31.47-24.3c12.65-4.82,26.08-7.44,38.61-12.59
	c7.94-5.22,17.04-9.97,26.9-10.6c6.14-0.39,12.38,0.89,17.87,3.66c2.49,1.25,4.85,2.82,6.68,4.91c3.7,4.22,4.91,10.3,3.81,15.81
	c-1.1,5.5-4.32,10.44-8.43,14.27C352.38,257.69,351.34,258.4,350.26,259.07z"/>
<path class="st8" d="M249.82,344.17c-4.66,1.96-10.4,1.39-14.44-1.7c-4.96-3.79-6.92-11.04-4.56-16.81c0.64-1.58,1.58-3.04,2.8-4.23
	c1.55-1.5,3.55-2.49,5.67-2.87c1.19-0.22,2.42-0.24,3.61-0.05c3.32,0.53,6.33,2.71,8.23,5.63c0.21,1.06,1.11,1.9,2.13,2.23
	c1.02,0.33,2.15,0.22,3.17-0.14c0.51-0.18,1.02-0.42,1.39-0.82c0.37-0.4,0.58-0.97,0.44-1.49c-3.41-12.41-0.52-26.18,6.25-37.13
	c0.36-0.57,0.74-1.13,1.1-1.69c10.61-16.78,27.04-19.4,29.33-19.58c2.78-0.23,5.84,0.23,8.65,0.36c6.17,0.28,12.35,0.6,18.53,0.38
	c9.95-0.36,20.21-2.28,28.15-7.19c2.22,8.11,4.45,16.21,6.68,24.32c8.55,31.15,10.32,55.36,5.07,71.96
	c-3.03,9.57-8.39,16.61-16.14,21c-8.59,4.86-18.24,7.66-28.07,8.42c0.55,2.4,1.25,4.77,2.06,7.09c0.86,2.43,1.91,4.89,3.76,6.69
	c0.2,0.19,0.41,0.37,0.62,0.55c-6.32,7.93-17.26,11.37-27.33,10.12c-10.19-1.28-19.48-6.82-26.88-13.95l-0.62-0.14
	c0.36-2.09-0.23-4.27-0.86-6.32c-4.69-15.35-11.42-29.98-18.13-44.55L249.82,344.17z M351.44,298.16c0.84-0.62,1.05-1.86,0.73-2.86
	c-0.32-1-1.07-1.81-1.87-2.49c-3.2-2.72-7.6-3.96-11.76-3.31c0-0.19-1.12,0.07-1.99,0.76c-0.87,0.7-1.39,1.95-0.91,2.95
	c0.33,0.69,1.07,1.12,1.81,1.29s1.52,0.14,2.29,0.16c2.08,0.03,4.2,0.45,5.94,1.59c0.91,0.6,1.69,1.38,2.66,1.89
	C349.3,298.65,350.56,298.81,351.44,298.16z M347.52,316.28c-0.02-1.88-1.56-3.38-3.43-3.36c-1.87,0.02-3.37,1.56-3.35,3.43
	c0.02,1.87,1.56,3.37,3.43,3.35C346.04,319.68,347.55,318.15,347.52,316.28z M335.19,348.26c1.99-1.93,3.59-4.48,3.55-7.24
	c-0.04-2.76-2.36-4.81-4.44-5.57c-3.07-1.13-6.3,0.92-9.52,1.54c-3.43,0.66-6.94-0.34-10.43-0.47c-3.5-0.13-7.54,1.06-8.83,4.31
	c-0.73,1.85-0.36,4.02,0.65,5.74c1.02,1.72,2.6,3.03,4.3,4.08c3.8,2.33,8.34,3.45,12.78,3.05C327.7,353.29,332,351.36,335.19,348.26
	z M305.36,293.55c0.46-1.01-0.09-2.25-0.97-2.93c-0.88-0.67-2.01-0.91-2-0.72c-4.17-0.56-8.54,0.79-11.68,3.57
	c-0.79,0.7-1.52,1.52-1.82,2.53c-0.3,1.01-0.06,2.24,0.8,2.85c0.89,0.63,2.14,0.43,3.1-0.09c0.95-0.53,1.72-1.33,2.61-1.95
	c1.71-1.18,3.83-1.64,5.9-1.72c0.77-0.03,1.54-0.02,2.28-0.21C304.32,294.69,305.04,294.25,305.36,293.55z M304.17,316.76
	c-0.02-1.88-1.56-3.38-3.43-3.36c-1.88,0.02-3.38,1.56-3.36,3.43c0.02,1.87,1.56,3.37,3.43,3.35
	C302.69,320.16,304.19,318.63,304.17,316.76z"/>
<ellipse transform="matrix(0.9871 -0.1602 0.1602 0.9871 -38.6003 113.4226)" class="st10" cx="684.21" cy="296.13" rx="14.62" ry="14.62"/>
<path class="st7" d="M725.42,298.02c-5.06,2.58-10.13,5.08-15.59,8.24c-3.07,1.77-6.17,3.58-8.66,6.09
	c-5.42,5.47-7.61,13.91-13.97,18.21l-0.03-0.04c7.12-4.6,5.03-20.5-4.67-35.52c-9.7-15.02-23.34-23.46-30.46-18.86
	c4.45-4.11,10.84-4.22,16.83-5.14c15.03-2.29,27.89-11.55,40.84-19.51c3.18-1.95,6.63-3.9,10.35-3.79c3.98,0.11,7.5,2.55,10.43,5.24
	c5.74,5.28,13.81,17.08,13.95,30.3c-0.28,3.22-2.06,5.03-5.33,7.1c-3.48,2.2-6.82,4.07-10.13,5.82
	C727.79,296.8,726.6,297.41,725.42,298.02z M718.02,295.53c1.14-0.58,1.59-1.97,1.01-3.1c-0.58-1.14-1.97-1.6-3.11-1.02l-8.25,4.19
	c-1.14,0.58-1.59,1.97-1.01,3.11c0.58,1.14,1.97,1.59,3.11,1.01L718.02,295.53z M713.92,285.53c1.14-0.58,1.59-1.97,1.01-3.11
	c-0.58-1.14-1.97-1.59-3.11-1.01l-8.24,4.19c-1.14,0.58-1.6,1.97-1.02,3.1c0.58,1.14,1.98,1.6,3.11,1.01L713.92,285.53z
	 M708.02,276.64c1.14-0.58,1.59-1.97,1.01-3.1c-0.58-1.14-1.97-1.6-3.11-1.02l-8.25,4.19c-1.14,0.58-1.59,1.97-1.01,3.11
	c0.58,1.14,1.97,1.59,3.11,1.01L708.02,276.64z M701.47,268.46c1.14-0.58,1.6-1.97,1.01-3.11c-0.58-1.14-1.97-1.59-3.1-1.01
	l-8.25,4.19c-1.14,0.58-1.59,1.97-1.01,3.1c0.58,1.14,1.97,1.6,3.1,1.02L701.47,268.46z"/>
<path class="st1" d="M719.04,292.43c0.58,1.14,0.12,2.53-1.01,3.1l-8.25,4.19c-1.14,0.58-2.53,0.12-3.11-1.01
	c-0.58-1.14-0.12-2.53,1.01-3.11l8.25-4.19C717.07,290.83,718.46,291.29,719.04,292.43z"/>
<path class="st1" d="M714.93,282.42c0.58,1.14,0.12,2.53-1.01,3.11l-8.25,4.18c-1.14,0.58-2.53,0.13-3.11-1.01
	c-0.58-1.14-0.12-2.53,1.02-3.1l8.24-4.19C712.96,280.82,714.36,281.28,714.93,282.42z"/>
<path class="st1" d="M709.04,273.54c0.58,1.14,0.12,2.53-1.01,3.1l-8.25,4.19c-1.14,0.58-2.53,0.12-3.11-1.01
	c-0.58-1.14-0.12-2.53,1.01-3.11l8.25-4.19C707.07,271.94,708.46,272.4,709.04,273.54z"/>
<path class="st1" d="M702.48,265.35c0.58,1.14,0.13,2.53-1.01,3.11l-8.25,4.19c-1.14,0.58-2.53,0.12-3.1-1.02
	c-0.58-1.14-0.12-2.53,1.01-3.1l8.25-4.19C700.51,263.76,701.91,264.21,702.48,265.35z"/>
<path class="st1" d="M412.24,501.51c-0.86-3.56-1.71-7.13-2.55-10.71c2.85-51.08,28.61-134.8,28-186.99
	c-0.62-52.19-8.89-90.95-23.56-141.04c-0.28-0.9-0.5-1.79-0.68-2.65c-13.58,1.49-27.42,0.54-40.67-2.78
	c-0.09-0.02-0.2-0.05-0.29-0.07c5.39,43.47,4.89,87.26,1.43,130.66c-1.82,22.8-4.54,45.87-11.47,67.55
	c-1.89,5.91-4.09,11.7-6.67,17.37c-5.3,11.65-13.06,23.34-25.09,27.6c-2.15,0.82-4.64,0.1-6.45-1.35
	c-6.32,7.93-17.26,11.37-27.33,10.12c-10.19-1.28-19.48-6.82-26.88-13.95l-0.62-0.14c-0.02,0.16-0.06,0.31-0.1,0.47
	c-0.55,2.25-2.71,4.26-4.97,3.81l-0.24,0.07c-27.62-15.69-38.85-33.26-52.06-55.06c-13.21-21.81-22.7-45.64-31.53-69.56
	c-12.87-34.89-24.49-70.25-34.78-105.99l-0.19,0.05c-15.36,4.53-29.37,7.95-45.23,7.91c-0.09-0.46-0.19-0.93-0.31-1.39
	c0.34,3.08,6.94,149.49,40.47,214.05c11.1,21.37,24.95,41.34,38.65,61.32c19.53,28.46,38.76,56.96,49.34,89.61l0,0.07
	c0,0,0.01,0.01,0.02,0.01l17.59,57.24l34.39,0.06l154.93,0.21l0-0.22C427.68,565.69,419.96,533.6,412.24,501.51z"/>
<ellipse transform="matrix(0.7258 -0.6879 0.6879 0.7258 -215.4361 532.3113)" class="st10" cx="559.97" cy="536.38" rx="15.49" ry="13.92"/>
<g>
	<path class="st11" d="M236.3,330.52c-0.12,0-0.23-0.03-0.34-0.1c-0.29-0.19-0.38-0.57-0.19-0.87c0.81-1.27,2.12-2.2,3.59-2.55
		c1.47-0.35,3.06-0.1,4.35,0.68c0.3,0.18,0.39,0.56,0.22,0.86c-0.18,0.3-0.56,0.39-0.86,0.22c-1.02-0.61-2.26-0.8-3.42-0.53
		c-1.16,0.27-2.19,1-2.82,2C236.71,330.42,236.51,330.52,236.3,330.52z"/>
</g>
<g>
	<path class="st11" d="M326.24,329.77c-0.31,0-0.58-0.23-0.62-0.55c-0.04-0.34,0.2-0.66,0.54-0.7c2.04-0.26,4.41-1.55,5.13-3.82
		c0.82-2.59-0.84-5.24-1.59-6.26c-0.74-1-1.63-1.93-2.49-2.83c-0.79-0.83-1.61-1.68-2.33-2.61c-0.93-1.2-1.76-2.59-2.55-4.26
		c-0.15-0.31-0.01-0.69,0.3-0.84c0.31-0.15,0.69-0.01,0.84,0.3c0.75,1.59,1.54,2.9,2.41,4.03c0.68,0.88,1.48,1.71,2.25,2.51
		c0.89,0.93,1.81,1.89,2.59,2.96c1.83,2.48,2.47,5.17,1.77,7.38c-0.77,2.42-3.25,4.31-6.17,4.69
		C326.3,329.77,326.27,329.77,326.24,329.77z"/>
</g>
<g>
	<path class="st11" d="M390.99,113.82c-0.28,0-0.53-0.18-0.61-0.46c-0.95-3.47-1.95-6.82-3.85-9.7c-1.38-2.09-3.24-3.76-5.24-4.71
		c-0.31-0.15-0.45-0.52-0.3-0.84c0.15-0.31,0.52-0.44,0.84-0.3c2.2,1.05,4.24,2.88,5.74,5.15c2,3.03,3.04,6.49,4.02,10.06
		c0.09,0.33-0.11,0.68-0.44,0.77C391.1,113.82,391.04,113.82,390.99,113.82z"/>
</g>
<g>
	<path class="st11" d="M386.34,146.08c-0.13,0-0.25-0.04-0.36-0.12c-0.28-0.2-0.35-0.59-0.14-0.88c3.44-4.81,4.29-11.49,2.16-17.01
		c-0.06-0.17-0.05-0.36,0.03-0.52c0.08-0.16,0.23-0.28,0.41-0.32c3.15-0.79,6.71-1.92,9.18-4.33c2.18-2.13,3.57-5.96,1.88-8.88
		c-0.55-0.95-1.34-1.59-2.17-1.76c-0.87-0.17-1.83,0.13-2.68,0.4l-13.51,4.32c-2.54,0.81-5.16,1.65-7.38,3.13
		c-2.4,1.6-3.98,3.82-4.32,6.1c-0.05,0.34-0.37,0.58-0.71,0.53c-0.34-0.05-0.58-0.37-0.53-0.71c0.4-2.62,2.17-5.16,4.87-6.95
		c2.37-1.58,5.08-2.45,7.69-3.28l13.51-4.32c0.95-0.3,2.12-0.68,3.31-0.44c1.18,0.24,2.27,1.1,3.01,2.36
		c2.03,3.5,0.49,7.88-2.09,10.41c-2.5,2.45-5.93,3.66-9.08,4.48c1.97,5.77,1,12.57-2.55,17.53
		C386.73,145.99,386.54,146.08,386.34,146.08z"/>
</g>
<g>
	<path class="st11" d="M376.64,118.55c-0.26,0-0.51-0.17-0.6-0.43c-0.72-2.17-1.83-4.16-3.29-5.93c-0.22-0.27-0.18-0.66,0.08-0.88
		c0.27-0.22,0.66-0.18,0.88,0.08c1.56,1.88,2.74,4.01,3.51,6.33c0.11,0.33-0.07,0.68-0.4,0.79
		C376.77,118.54,376.7,118.55,376.64,118.55z"/>
</g>
<g>
	<path class="st11" d="M389.76,133.64c-0.23,0-0.45-0.12-0.56-0.34c-0.16-0.31-0.04-0.69,0.27-0.84c2.38-1.21,4-3.72,4.14-6.38
		c0.02-0.35,0.32-0.61,0.66-0.59c0.35,0.02,0.61,0.31,0.59,0.66c-0.16,3.1-2.05,6.02-4.82,7.43
		C389.95,133.62,389.85,133.64,389.76,133.64z"/>
</g>
<g>
	<path class="st11" d="M395.29,132.15c-1.12,0-2.17-0.21-3.09-0.63c-0.32-0.14-0.46-0.51-0.31-0.83c0.14-0.32,0.51-0.46,0.83-0.31
		c3.55,1.6,7.88-0.61,9.85-3.58c1.89-2.84,2.61-6.71,2.2-11.82c-0.28-3.47-0.94-6.91-1.98-10.25c-0.64-2.06-1.45-3.88-2.4-5.42
		c-0.18-0.3-0.09-0.68,0.2-0.86c0.3-0.18,0.68-0.09,0.86,0.2c1.01,1.63,1.86,3.55,2.53,5.71c1.06,3.42,1.75,6.96,2.03,10.52
		c0.43,5.41-0.36,9.53-2.41,12.62C401.49,130.69,398.2,132.15,395.29,132.15z"/>
</g>
<g>
	<path class="st11" d="M404.7,131.68c-1.54,0-3.08-0.33-4.54-1.09c-0.31-0.16-0.43-0.54-0.27-0.85c0.16-0.31,0.54-0.43,0.85-0.27
		c3.81,1.97,10.12,0.84,13.68-4.43c3.34-4.95,3.13-11.21,2.37-15.59c-0.37-2.13-0.92-4.02-1.63-5.59c-0.14-0.32,0-0.69,0.31-0.83
		c0.32-0.14,0.69,0,0.83,0.31c0.76,1.7,1.33,3.62,1.72,5.89c0.8,4.61,1,11.21-2.57,16.5C413.2,129.09,408.97,131.68,404.7,131.68z"
		/>
</g>
<g>
	<path class="st11" d="M415.71,132.43c-2.32,0-4.5-0.75-6.14-2.19c-0.26-0.23-0.29-0.62-0.06-0.89c0.23-0.26,0.62-0.29,0.89-0.06
		c2.2,1.93,5.57,2.41,8.78,1.26c0.33-0.12,0.69,0.05,0.8,0.38c0.12,0.33-0.05,0.69-0.38,0.8
		C418.31,132.2,416.99,132.43,415.71,132.43z"/>
</g>
<g>
	<path class="st7" d="M412.94,176.78c-1.8-0.04-3.51-0.05-5.17-0.07c-7.63-0.07-14.23-0.14-24.54-1.93l0.32-1.85
		c10.16,1.77,16.68,1.83,24.23,1.91c1.67,0.02,3.39,0.03,5.19,0.07L412.94,176.78z"/>
</g>
<g>
	<path class="st11" d="M127.64,150.73c-0.26,0-0.5-0.16-0.59-0.41c-2.2-6.01-1.91-12.91,0.73-18.74c-2.9,0.76-6.16,1.58-9.3,0.74
		c-2.17-0.57-4.16-2.27-5.09-4.33c-0.72-1.59-0.72-3.24-0.01-4.64c1.46-2.9,5.04-3.63,8.35-3.97l11.5-1.17
		c0.96-0.1,2.05-0.19,3.13-0.2c0.35,0,0.63,0.28,0.63,0.63c0,0.35-0.28,0.63-0.63,0.63c-0.01,0-0.03,0-0.05,0
		c-1,0-2.04,0.11-2.95,0.2l-11.5,1.17c-2.97,0.3-6.17,0.93-7.36,3.29c-0.68,1.35-0.36,2.68,0.04,3.56c0.78,1.73,2.45,3.15,4.26,3.63
		c2.9,0.77,5.93-0.03,8.87-0.8c0.38-0.1,0.75-0.2,1.12-0.29c0.24-0.06,0.49,0.03,0.65,0.22c0.15,0.19,0.18,0.46,0.06,0.68
		c-3.03,5.76-3.51,12.85-1.27,18.96c0.12,0.33-0.05,0.69-0.37,0.8C127.79,150.72,127.71,150.73,127.64,150.73z"/>
</g>
<g>
	<path class="st11" d="M120.27,120.83c-0.28,0-0.53-0.19-0.61-0.47c-0.89-3.36-2.32-6.54-4.25-9.44c-0.74-1.12-1.47-2.04-2.21-2.82
		c-0.24-0.25-0.23-0.65,0.02-0.89c0.25-0.24,0.65-0.23,0.89,0.02c0.79,0.83,1.56,1.81,2.35,2.99c2,3.02,3.49,6.32,4.42,9.81
		c0.09,0.33-0.11,0.68-0.45,0.77C120.38,120.83,120.33,120.83,120.27,120.83z"/>
</g>
<g>
	<path class="st11" d="M112.98,140.52c-1.75,0-3.45-0.52-4.77-1.53c-0.27-0.21-0.33-0.61-0.12-0.88c0.21-0.28,0.61-0.33,0.88-0.12
		c1.88,1.44,4.84,1.68,7.19,0.57c2.4-1.13,4.41-3.48,5.65-6.62c0.13-0.32,0.49-0.48,0.81-0.35c0.32,0.13,0.48,0.49,0.35,0.81
		c-1.35,3.44-3.59,6.03-6.28,7.3C115.52,140.25,114.24,140.52,112.98,140.52z"/>
</g>
<g>
	<path class="st11" d="M98.69,142.15c-0.34,0-0.62-0.28-0.63-0.62c0-0.35,0.27-0.63,0.62-0.63c3.5-0.03,7.35-0.42,9.35-2.99
		c2.09-2.69,1.31-6.73,0.54-9.53c-1.23-4.5-2.92-8.89-5.03-13.07c-0.77-1.51-1.7-3.22-3.13-4.33c-0.45-0.35-0.96-0.63-1.51-0.85
		c-0.32-0.13-0.48-0.49-0.36-0.81c0.13-0.32,0.49-0.48,0.81-0.36c0.66,0.26,1.27,0.6,1.82,1.02c1.64,1.27,2.66,3.12,3.48,4.76
		c2.14,4.25,3.86,8.72,5.12,13.3c0.84,3.06,1.67,7.5-0.76,10.63C106.7,141.67,102.49,142.11,98.69,142.15
		C98.69,142.15,98.69,142.15,98.69,142.15z"/>
</g>
<g>
	<path class="st11" d="M93.63,144.82c-1.16,0-2.31-0.25-3.3-0.74c-2.82-1.38-5.01-4.39-6.16-8.48c-0.09-0.33,0.1-0.68,0.43-0.77
		c0.33-0.09,0.68,0.1,0.77,0.43c0.61,2.17,2.14,6.04,5.51,7.69c1.54,0.75,3.52,0.81,5.16,0.16c1.3-0.52,2.24-1.43,2.66-2.57
		c0.44-1.19,0.35-2.55,0.18-3.84c-0.8-6.1-3.23-11.88-7.03-16.72c-0.7-0.89-1.65-1.98-2.8-2.54c-0.31-0.15-0.44-0.53-0.29-0.84
		c0.15-0.31,0.53-0.44,0.84-0.29c1.38,0.67,2.46,1.9,3.24,2.89c3.94,5.01,6.45,11.01,7.28,17.33c0.19,1.45,0.29,2.99-0.25,4.43
		c-0.55,1.48-1.75,2.65-3.37,3.3C95.6,144.64,94.61,144.82,93.63,144.82z"/>
</g>
<g>
	<path class="st11" d="M126.63,137.17c-0.01,0-0.03,0-0.04,0c-2.08-0.12-4.06-1.07-5.44-2.6c-0.23-0.26-0.21-0.65,0.04-0.89
		c0.26-0.23,0.65-0.21,0.89,0.04c1.16,1.29,2.84,2.09,4.59,2.19c0.35,0.02,0.61,0.32,0.59,0.66
		C127.24,136.91,126.96,137.17,126.63,137.17z"/>
</g>
<g>
	<path class="st7" d="M296.73,420.06c-2.61,0-5.22-0.22-7.79-0.8c-6-1.36-11.27-4.51-16.38-7.56l0.97-1.62
		c4.97,2.98,10.12,6.05,15.82,7.34c6.07,1.37,12.53,0.62,18.63-0.26l0.27,1.86C304.51,419.57,300.61,420.06,296.73,420.06z"/>
</g>
<g>
	<path class="st7" d="M120.1,198.59l-0.31-1.86c7.23-1.19,14.31-3.91,20.48-7.87l1.01,1.59
		C134.91,194.54,127.58,197.36,120.1,198.59z"/>
</g>
<g>
	<g>
		<rect x="140.46" y="596.81" class="st7" width="93.91" height="1.88"/>
	</g>
	<g>
		<rect x="280.47" y="596.9" class="st7" width="538.95" height="1.88"/>
	</g>
	<g>
		<rect x="234.36" y="596.83" class="st7" width="46.11" height="1.88"/>
	</g>
</g>
<g>
	<g>
		<path class="st10" d="M280.97,614.6c-0.54,2.33-1.12,4.68-1.75,7.05l-0.08,0.29L238.69,622c-1.4-2.17-2.67-4.7-3.82-7.47
			c-2.36-5.63-4.23-12.28-5.71-19c-0.41-1.83-0.79-3.67-1.13-5.49c-1.19-6.22-2.06-12.3-2.69-17.49c-0.31-2.57-0.56-4.93-0.76-6.97
			c-0.49-5-0.67-8.16-0.67-8.16l5.06-0.14l58.64-1.66C287.61,555.62,288.43,582.5,280.97,614.6z"/>
	</g>
	<g>
		<path class="st10" d="M228.02,590.05c0.35,1.82,0.72,3.66,1.13,5.49c-7.33,1.96-15.8-0.35-20.65-6.2
			c-4.95-5.96-5.43-15.41-0.62-21.48c2.13-2.7,5.31-4.72,8.76-4.84c2.83-0.1,5.49,1.06,7.93,2.57c0.2,2.04,0.45,4.4,0.76,6.97
			c-2.85-2.75-7.7-3.17-10.97-0.91c-3.16,2.19-4.55,6.48-3.62,10.21c0.93,3.72,3.95,6.76,7.55,8.09
			C221.39,591.07,224.85,591.01,228.02,590.05z"/>
	</g>
</g>
<g>
	<g>
		
			<rect x="238.69" y="621.03" transform="matrix(1 -1.635718e-03 1.635718e-03 1 -1.017 0.4243)" class="st7" width="40.45" height="1.88"/>
	</g>
</g>
<g>
	<path class="st7" d="M669.36,606.35c-4.37-12.8-6.54-26.34-6.39-39.87l0-0.11l17.97-0.33l13.9-0.25l18.85-0.34l0.01,0.46
		c0.56,16.78-2.47,33.67-8.83,49.2l-31.98,0.36C671.59,612.48,670.42,609.44,669.36,606.35z"/>
</g>
<g>
	<path class="st1" d="M692.53,510.19c0.56,18.4,2.26,40.62,2.32,55.49l0,0.13l-13.9,0.25l0-0.06c-0.31-3.42-0.63-6.84-0.95-10.27
		c-0.24-2.61-0.54-5.38-2.17-7.42c-1.86-2.5-6.12-4.49-9.97-6.93c-1.9-1.2-3.77-2.6-4.81-4.58c-1.04-1.99-1-4.71,0.66-6.23
		c1.09-1.01,2.71-1.32,4.17-1.04c1.46,0.28,2.77,1.1,3.88,2.09c1.05,0.95,1.94,2.07,3.1,2.88c0.94,0.65,2.6,1.43,3.4,0.14
		c0.28-0.45,0.35-1.01,0.36-1.54c0.01-0.22,0.01-0.44,0.01-0.65c0.04-2.13-0.41-4.38-0.57-6.51c-0.19-2.4-0.35-4.8-0.47-7.2
		c-0.24-4.82-0.28-9.65,0.07-14.46c0.19-2.74,0.67-5.77,2.84-7.45c2.97-2.29,7.6-0.56,9.67,2.56
		C692.21,502.49,692.42,506.44,692.53,510.19z"/>
</g>
</svg>
