<?xml version="1.0" encoding="utf-8"?>
<!-- Generator: Adobe Illustrator 24.3.0, SVG Export Plug-In . SVG Version: 6.00 Build 0)  -->
<svg version="1.1" id="Слой_1" xmlns="http://www.w3.org/2000/svg" xmlns:xlink="http://www.w3.org/1999/xlink" x="0px" y="0px"
	 viewBox="0 0 394 297" style="enable-background:new 0 0 394 297;" xml:space="preserve">
<style type="text/css">
	.st0{fill:#FFFFFF;}
	.st1{fill:#FFDD00;}
</style>
<g>
	<path class="st0" d="M147.6,126.7c0,0.6-0.1,1.2-0.1,1.9c-0.2,1.4-0.3,2.4-0.5,3.1c-0.6,2.3-1.1,6-1.7,11.3c-0.1,0.5,0,1,0.3,1.3
		c0.2,0.4,0.3,0.9,0.3,1.4c0,0.9-0.4,1.4-1.2,1.4c-1.8,0.1-2.7-0.8-2.7-2.6c0-0.2,0-0.6,0.1-1.1c0.1-2,0.4-3.6,0.7-4.8
		c-1.1,0.6-2.3,0.9-3.7,1c-0.5,0-1,0.1-1.4,0.1c-1.9,0-3.6-0.6-5-1.8c-0.9-0.7-1.3-2-1.3-3.8c0-0.3,0-0.5,0-0.8
		c0.1-1.2,0.7-2.4,1.8-3.8c1.5-1.9,3.5-3.2,6.1-3.8c0.7-0.2,1.5-0.3,2.3-0.3c1.2,0,2.1,0.2,2.9,0.5c0.2-0.7,0.7-1,1.4-1
		c0.4,0,0.7,0.1,1,0.4S147.5,125.9,147.6,126.7z M144,129c-0.6-0.3-1.5-0.4-2.6-0.4c-1.3,0-2.5,0.2-3.4,0.7c-1.9,1-3.2,2.3-3.7,3.7
		c-0.1,0.2-0.1,0.5-0.1,0.7c0,0.7,0.4,1.2,1.2,1.7c0.7,0.4,1.6,0.6,2.7,0.6c2.2,0,3.9-0.7,5.1-2.2c0-0.2,0.1-0.3,0.2-0.5
		c0-0.4,0.2-1,0.4-1.8c0.2-0.7,0.3-1.3,0.3-1.7C144.1,129.5,144.1,129.2,144,129z"/>
	<path class="st0" d="M165.2,141c-1.2,1.5-2.7,2.8-4.7,3.9c-2,1.1-4,1.6-5.9,1.6s-3.3-0.6-4.3-1.8c-0.9-1.1-1.3-2.6-1.3-4.5
		c0-2.3,0.3-4.1,0.9-5.4c1.1-2.4,2.6-4.6,4.5-6.4c2.1-2.1,4.4-3.4,6.7-3.8c0.2,0,0.3-0.1,0.5-0.1c0.7,0,1.4,0.2,2,0.7s0.9,1,0.9,1.7
		s-0.1,1.2-0.2,1.5c-0.2,0.4-0.6,0.6-1.2,0.6c-0.4,0-0.8-0.1-1.3-0.2c-0.4-0.1-0.7-0.2-0.9-0.2c-0.3,0-0.7,0.1-1.1,0.2
		c-0.9,0.3-1.8,0.9-2.8,1.7s-1.6,1.6-2.1,2.4c1.8-0.2,3.2-0.3,4.2-0.3c1.5,0,3,0.2,4.4,0.7c2.1,0.7,3.2,1.9,3.2,3.7
		C166.6,138.5,166.1,139.7,165.2,141z M163.5,137.3c-0.3-0.4-1.1-0.7-2.5-0.9c-1-0.1-1.9-0.2-2.9-0.1c-1.7,0.1-3.5,0.3-5.2,0.7
		c-0.7,0.7-1.1,1.6-1.1,2.7c0,0.4,0.1,0.9,0.2,1.3c0.4,1,1.4,1.5,3,1.5c0.9,0,2-0.2,3.4-0.7c2-0.7,3.6-1.6,4.7-2.7
		c0.3-0.3,0.5-0.7,0.5-1.1C163.7,137.7,163.6,137.5,163.5,137.3z"/>
	<path class="st0" d="M188.6,134.8c0,0.6-0.1,1.1-0.2,1.8c-0.6,2.9-1.9,5.1-3.8,6.7c-1.6,1.4-3.9,2.5-7,3.3
		c-0.8,0.2-1.7,0.3-2.5,0.3c-2.2,0-3.9-0.7-5.2-2.1c-1.2-1.3-1.7-3.1-1.7-5.3c0-2.3,0.5-4.5,1.4-6.5c1-2.2,2.3-4,4-5.2
		c1.9-1.4,3.4-2.1,4.6-2.1c1.2,0,2.3,0.2,3.5,0.6c1.3,0.4,2.4,1,3.1,1.7c1.2,1.2,2,2.2,2.6,3.2C188.2,132.2,188.6,133.5,188.6,134.8
		z M185.6,134.8c0-1.5-0.6-2.8-1.7-3.9c-1.1-1.1-2.4-1.6-3.9-1.6c-0.6,0-1.2,0.2-1.9,0.5s-1.2,0.5-1.4,0.5s-0.4-0.1-0.6-0.2
		c-1.4,0.5-2.7,1.6-3.9,3.2s-1.7,3.2-1.7,4.8c0,3.2,1.7,4.9,5.2,4.9c2.8,0,5.2-0.9,7.1-2.8C184.7,138.2,185.6,136.5,185.6,134.8z"/>
	<path class="st0" d="M210.5,134.8c0,0.6-0.1,1.1-0.2,1.8c-0.6,2.9-1.9,5.1-3.8,6.7c-1.6,1.4-3.9,2.5-7,3.3
		c-0.8,0.2-1.7,0.3-2.5,0.3c-2.2,0-3.9-0.7-5.2-2.1c-1.2-1.3-1.7-3.1-1.7-5.3c0-2.3,0.5-4.5,1.4-6.5c1-2.2,2.3-4,4-5.2
		c1.9-1.4,3.4-2.1,4.6-2.1c1.2,0,2.3,0.2,3.5,0.6c1.3,0.4,2.4,1,3.1,1.7c1.2,1.2,2,2.2,2.6,3.2C210.1,132.2,210.5,133.5,210.5,134.8
		z M207.5,134.8c0-1.5-0.6-2.8-1.7-3.9c-1.1-1.1-2.4-1.6-3.9-1.6c-0.6,0-1.2,0.2-1.9,0.5s-1.2,0.5-1.4,0.5s-0.4-0.1-0.6-0.2
		c-1.4,0.5-2.7,1.6-3.9,3.2s-1.7,3.2-1.7,4.8c0,3.2,1.7,4.9,5.2,4.9c2.8,0,5.2-0.9,7.1-2.8C206.6,138.2,207.5,136.5,207.5,134.8z"/>
</g>
<g>
	<path class="st0" d="M149.3,172.5c-0.4,1-1.1,2-2,2.9c-1.2,1.2-2.1,2.3-2.7,3.2c-1.1,1.7-1.8,2.8-2.1,3.3c-0.8,1.3-1.3,2.5-1.5,3.6
		c0,0.1,0,0.2,0,0.3c0,0.4,0.2,0.6,0.7,0.7c0.5,0.1,0.7,0.3,0.7,0.5c0,0.1-0.1,0.3-0.2,0.5c-0.3,0.5-0.9,1.2-1.8,2
		c-1,1-1.8,1.4-2.3,1.4s-0.9-0.3-1.1-0.9c-0.2-0.5-0.3-1-0.2-1.5c0.1-1,0.3-1.9,0.7-2.9c1-2.5,2.1-4.7,3.2-6.7
		c1.1-1.8,2.3-3.6,3.7-5.4c-0.1-0.1-0.2-0.2-0.3-0.4c-0.1,0-0.4-0.1-0.9-0.1c-1.1,0-2.3,0.1-3.6,0.2c-1.6,0.2-2.7,0.4-3.3,0.7
		c-0.3,0.1-0.7,0.4-1.1,0.8c-0.3,0.3-0.6,0.4-0.8,0.4s-0.5-0.1-0.7-0.3c-0.4-0.2-0.7-0.7-1.1-1.4c-0.4-0.7-0.6-1.2-0.6-1.6
		c0-0.7,0.6-1.1,1.8-1.3c1.7-0.3,2.7-0.5,3-0.5c1.1-0.2,2.5-0.3,4.3-0.5c2.7-0.2,4.2-0.4,4.5-0.4c0.9,0,1.6,0.1,2.2,0.3
		c0.5,0.2,0.9,0.5,1.2,0.9c0.3,0.5,0.5,0.9,0.5,1.4C149.4,172.1,149.4,172.3,149.3,172.5z"/>
	<path class="st0" d="M167,173.4c-0.2,1.4-1.5,2.9-3.8,4.7c-0.3,0.3-1.1,0.9-2.3,2s-1.9,1.8-2.3,2.1c-0.7,0.7-1.4,1.4-2.1,2.1
		c-0.8,0.8-1.4,1.6-1.8,2.4c1.7-0.6,3.3-1.1,4.9-1.4c1.1-0.2,2.2-0.4,3.2-0.4s2,0,3-0.1c0.7,0,1.1,0.3,1.1,1.1c0,0.5-0.2,1-0.6,1.5
		c-0.6,0.8-1.3,1.2-2,1.2c-2-0.1-4.1,0.1-6,0.6c-1.5,0.4-3.5,1.1-5.8,2.2c0,0-0.2-0.1-0.8-0.1c-0.6-0.1-1-0.4-1.4-1
		c-0.3-0.5-0.4-1.1-0.4-1.7c0.1-1.4,0.5-2.5,1.2-3.3c0.9-1.1,2.1-2.5,3.7-4.1c1-1,2.1-2,3.5-3.2c1.8-1.5,3-2.6,3.7-3.2
		c0.8-0.7,1.1-1.3,1.1-1.8c0-0.8-0.8-1.2-2.4-1.1c-1.3,0.1-2.6,0.3-4.1,0.7c-2.3,0.6-3.4,1.5-3.3,2.4c0.1,0.9-0.2,1.4-0.8,1.4
		c-0.2,0-0.4,0-0.6-0.1c-0.5-0.1-0.9-0.4-1.2-1s-0.5-1.1-0.4-1.6c0.1-0.7,0.2-1.2,0.3-1.4c0.2-0.4,0.8-0.9,1.6-1.6
		c0.9-0.7,2.4-1.3,4.4-1.7c1.7-0.4,3.4-0.6,5.2-0.6c1.1,0,1.9,0.1,2.6,0.3c0.6,0.2,1.2,0.5,1.7,1.1c0.6,0.7,0.9,1.6,0.9,2.7
		C167.1,172.9,167.1,173.1,167,173.4z"/>
	<path class="st0" d="M189.5,179c0,0.6-0.1,1.1-0.2,1.8c-0.6,2.9-1.9,5.1-3.8,6.7c-1.6,1.4-3.9,2.5-7,3.3c-0.8,0.2-1.7,0.3-2.5,0.3
		c-2.2,0-3.9-0.7-5.2-2.1c-1.2-1.3-1.7-3.1-1.7-5.3c0-2.3,0.5-4.5,1.4-6.5c1-2.2,2.3-4,4-5.2c1.9-1.4,3.4-2.1,4.6-2.1
		c1.2,0,2.3,0.2,3.5,0.6c1.3,0.4,2.4,1,3.1,1.7c1.2,1.2,2,2.2,2.6,3.2C189.1,176.4,189.5,177.7,189.5,179z M186.5,178.9
		c0-1.5-0.6-2.8-1.7-3.9c-1.1-1.1-2.4-1.6-3.9-1.6c-0.6,0-1.2,0.2-1.9,0.5s-1.2,0.5-1.4,0.5s-0.4-0.1-0.6-0.2
		c-1.4,0.5-2.7,1.6-3.9,3.2c-1.1,1.6-1.7,3.2-1.7,4.8c0,3.2,1.7,4.9,5.2,4.9c2.8,0,5.2-0.9,7.1-2.8
		C185.6,182.4,186.5,180.7,186.5,178.9z"/>
	<path class="st0" d="M211.3,179c0,0.6-0.1,1.1-0.2,1.8c-0.6,2.9-1.9,5.1-3.8,6.7c-1.6,1.4-3.9,2.5-7,3.3c-0.8,0.2-1.7,0.3-2.5,0.3
		c-2.2,0-3.9-0.7-5.2-2.1c-1.2-1.3-1.7-3.1-1.7-5.3c0-2.3,0.5-4.5,1.4-6.5c1-2.2,2.3-4,4-5.2c1.9-1.4,3.4-2.1,4.6-2.1
		c1.2,0,2.3,0.2,3.5,0.6c1.3,0.4,2.4,1,3.1,1.7c1.2,1.2,2,2.2,2.6,3.2C210.9,176.4,211.3,177.7,211.3,179z M208.4,178.9
		c0-1.5-0.6-2.8-1.7-3.9c-1.1-1.1-2.4-1.6-3.9-1.6c-0.6,0-1.2,0.2-1.9,0.5s-1.2,0.5-1.4,0.5s-0.4-0.1-0.6-0.2
		c-1.4,0.5-2.7,1.6-3.9,3.2c-1.1,1.6-1.7,3.2-1.7,4.8c0,3.2,1.7,4.9,5.2,4.9c2.8,0,5.2-0.9,7.1-2.8
		C207.4,182.4,208.4,180.7,208.4,178.9z"/>
</g>
<g>
	<path class="st0" d="M150.3,224.2c0,0.2-0.3,0.5-0.8,0.9c-0.6,0.4-0.8,0.7-0.8,0.9s-0.1,1-0.2,2.5c-0.1,1.5-0.2,2.4-0.2,2.5
		c0,0.8,0.1,1.5,0.4,2.1c0.3,0.6,0.4,1,0.4,1.3c0,1.2-0.6,1.8-1.7,1.8c-0.3,0-0.5,0-0.7-0.1c-0.7-0.2-1.2-0.7-1.4-1.4
		c-0.1-0.4-0.2-1.1-0.2-2c0-2,0.2-4.1,0.6-6.4c-0.2,0-0.3-0.1-0.4-0.1c-1.1,0-2.5,0.3-4.4,1c-1.4,0.5-2.9,1.1-4.3,1.6
		c-2.2-0.9-3.4-2.3-3.4-4.5c0-0.4,0.4-1.1,1.1-2.2c1.2-1.9,1.9-2.9,2.1-3.2c0.8-1.3,1.2-2.4,1.3-3.4s0.6-1.5,1.5-1.5
		c1.3,0,2,0.5,2,1.5c0,0.5-0.1,1-0.4,1.6c-0.4,0.8-1,1.9-1.9,3.2c-0.6,0.9-1,1.6-1.2,2c-0.3,0.7-0.5,1.5-0.5,2.2
		c2-0.6,4.9-1.3,8.7-2.2c0.1-0.9,0.1-2.2,0.1-3.8c0-0.3-0.1-0.8-0.3-1.4c-0.2-0.6-0.3-1.1-0.3-1.4c0-0.4,0.2-0.7,0.7-0.9
		c0.4-0.2,0.8-0.3,1.2-0.3c0.9,0,1.4,0.5,1.6,1.4c0.1,0.3,0.1,1.2,0.1,2.6c0,0.5,0,1.1-0.1,1.8s-0.1,1.3-0.1,1.8
		c0.6,0.2,1,0.3,1.1,0.4C150.1,222.9,150.3,223.4,150.3,224.2z"/>
	<path class="st0" d="M169.7,229.5c-0.7,1.3-1.6,2.4-2.9,3.3c-0.8,0.5-2.1,1.2-4,2c-1.4,0.6-3.2,0.9-5.3,0.9c-1,0-2.1-0.2-3.1-0.7
		c-1.7-0.8-2.6-2-2.6-3.8c0-1.5,0.4-2.9,1.3-4.2c0.5-0.7,0.9-1.3,1.4-1.7c0.3-0.2,0.7-0.5,1-0.6s0.4-0.2,0.4-0.2s-0.3-0.3-1-0.7
		c-0.8-0.4-1.4-0.9-1.8-1.4c-0.6-0.7-0.9-1.5-0.7-2.4c0.2-1.4,0.7-2.6,1.7-3.6s2.1-1.7,3.5-2.1c1.4-0.4,3.2-0.5,5.7-0.5
		c2.8,0,4.7,0.9,5.5,2.8c0.2,0.5,0.3,1,0.3,1.4s-0.1,0.8-0.3,1.1c-0.5,0.8-1,1.4-1.4,1.8c-0.1,0.1-0.7,0.5-1.8,1.4
		c0.6,0.2,1.1,0.3,1.7,0.5c0.5,0.2,1,0.5,1.5,1c1.1,1,1.6,2.1,1.6,3.3C170.2,228.1,170.1,228.8,169.7,229.5z M167.6,227.3
		c0-0.7-0.8-1.2-2.5-1.4c-0.6-0.1-1.7-0.1-3.3-0.1c-2.4,0-4.3,0.7-5.6,2.1c-0.9,0.8-1.3,1.5-1.3,2.2s0.3,1.1,1,1.4
		c0.9,0.3,1.9,0.5,3,0.5c0.3,0,0.6,0,0.8-0.1c1.4-0.2,2.9-0.7,4.4-1.5c0.7-0.4,1.5-0.8,2.1-1.3C167.1,228.5,167.6,227.9,167.6,227.3
		z M165.8,218.3c0-0.5-0.4-0.8-1.3-1.1c-0.6-0.2-1.3-0.3-1.9-0.3c-1,0-1.9,0.1-2.9,0.3s-1.7,0.5-2,0.8c-1.4,0.9-2,1.5-2,2
		c0,0.1,0,0.2,0.1,0.3c0.1,0.2,0.2,0.4,0.4,0.6c0.2,0.2,0.9,0.3,2.1,0.3c0.6,0,1.1,0.1,1.5,0.1c1.1,0,2.1-0.2,2.8-0.6
		C164.7,219.7,165.8,218.9,165.8,218.3z"/>
	<path class="st0" d="M191.9,224.3c0,0.6-0.1,1.1-0.2,1.8c-0.6,2.9-1.9,5.1-3.8,6.7c-1.6,1.4-3.9,2.5-7,3.3
		c-0.8,0.2-1.7,0.3-2.5,0.3c-2.2,0-3.9-0.7-5.2-2.1c-1.2-1.3-1.7-3.1-1.7-5.3c0-2.3,0.5-4.5,1.4-6.5c1-2.2,2.3-4,4-5.2
		c1.9-1.4,3.4-2.1,4.6-2.1c1.2,0,2.3,0.2,3.5,0.6c1.3,0.4,2.4,1,3.1,1.7c1.2,1.2,2,2.2,2.6,3.2C191.5,221.7,191.9,223,191.9,224.3z
		 M189,224.2c0-1.5-0.6-2.8-1.7-3.9c-1.1-1.1-2.4-1.6-3.9-1.6c-0.6,0-1.2,0.2-1.9,0.5s-1.2,0.5-1.4,0.5s-0.4-0.1-0.6-0.2
		c-1.4,0.5-2.7,1.6-3.9,3.2c-1.1,1.6-1.7,3.2-1.7,4.8c0,3.2,1.7,4.9,5.2,4.9c2.8,0,5.2-0.9,7.1-2.8C188,227.7,189,226,189,224.2z"/>
	<path class="st0" d="M213.8,224.3c0,0.6-0.1,1.1-0.2,1.8c-0.6,2.9-1.9,5.1-3.8,6.7c-1.6,1.4-3.9,2.5-7,3.3
		c-0.8,0.2-1.7,0.3-2.5,0.3c-2.2,0-3.9-0.7-5.2-2.1c-1.2-1.3-1.7-3.1-1.7-5.3c0-2.3,0.5-4.5,1.4-6.5c1-2.2,2.3-4,4-5.2
		c1.9-1.4,3.4-2.1,4.6-2.1c1.2,0,2.3,0.2,3.5,0.6c1.3,0.4,2.4,1,3.1,1.7c1.2,1.2,2,2.2,2.6,3.2C213.4,221.7,213.8,223,213.8,224.3z
		 M210.8,224.2c0-1.5-0.6-2.8-1.7-3.9c-1.1-1.1-2.4-1.6-3.9-1.6c-0.6,0-1.2,0.2-1.9,0.5s-1.2,0.5-1.4,0.5s-0.4-0.1-0.6-0.2
		c-1.4,0.5-2.7,1.6-3.9,3.2c-1.1,1.6-1.7,3.2-1.7,4.8c0,3.2,1.7,4.9,5.2,4.9c2.8,0,5.2-0.9,7.1-2.8
		C209.9,227.7,210.8,226,210.8,224.2z"/>
</g>
<g>
	<polygon class="st0" points="269,46.7 269,49.7 366.5,49.7 366.5,274.2 27.5,274.2 27.5,49.7 125,49.7 125,46.7 24.5,46.7 
		24.5,277.2 369.5,277.2 369.5,46.7 	"/>
	<g>
		<g>
			<path class="st0" d="M77.4,145.6h-3.9l-2-5.5h-8.2l-2,5.5h-3.8l8-20.7h3.9L77.4,145.6z M67.5,128.7l-3.2,8.7h6.3L67.5,128.7z"/>
			<path class="st0" d="M87.2,125.1c3.8,0,6.3,2.2,6.3,5.5c0,2-1.1,3.6-2.8,4.2c2.3,0.6,3.7,2.4,3.7,4.8c0,3.9-3,6.6-7.2,6.6
				s-7.1-2.7-7.1-6.7v-0.4h3.2c0.1,2.9,1.4,4.3,4,4.3c2.2,0,3.7-1.4,3.7-3.6c0-2.5-1.9-3.4-4.1-3.4c-0.4,0-0.6,0-1.1,0v-2.5H86
				c2,0,4.2-0.3,4.2-2.9c0-1.8-1.2-3-3.1-3c-2.1,0-3.3,1.4-3.4,4h-3.2C80.7,127.6,83.2,125.1,87.2,125.1z"/>
			<path class="st0" d="M117.5,139.2H109v-3.1h8.5V139.2z"/>
			<path class="st1" d="M306.5,138.8v6.8h-1.8v-8.3h5.8v1.4L306.5,138.8L306.5,138.8z"/>
			<path class="st1" d="M314.3,138.5c0.6-0.9,1.6-1.3,2.7-1.3c2.3,0,3.8,1.7,3.8,4.4c0,2.6-1.4,4.3-3.7,4.3c-1.1,0-2-0.4-2.7-1.3
				v4.1h-1.8v-11.3h1.7V138.5L314.3,138.5z M314.4,141.5c0,1.8,0.9,2.9,2.3,2.9s2.3-1.1,2.3-2.9c0-1.8-0.9-2.9-2.3-2.9
				C315.2,138.6,314.4,139.7,314.4,141.5z"/>
			<path class="st1" d="M323.5,145.6v-8.3h1.8v3.2h3.6v-3.2h1.8v8.3h-1.8V142h-3.6v3.6H323.5z"/>
			<path class="st1" d="M336.1,145.6H334v-2.2h2.2v2.2H336.1z"/>
		</g>
	</g>
	<g>
		<g>
			<path class="st0" d="M77.4,190.5h-3.9l-2-5.5h-8.2l-2,5.5h-3.8l8-20.7h3.9L77.4,190.5z M67.5,173.6l-3.2,8.7h6.3L67.5,173.6z"/>
			<path class="st0" d="M94.4,185.7h-2.6v4.8h-3.2v-4.8H80v-3.3l8.7-12.4h3.1v12.9h2.6C94.4,182.9,94.4,185.7,94.4,185.7z
				 M88.7,174.1l-6,8.8h6V174.1z"/>
			<path class="st0" d="M117.5,184.1H109V181h8.5V184.1z"/>
			<path class="st1" d="M306.8,183.7v6.8H305v-8.3h5.8v1.4L306.8,183.7L306.8,183.7z"/>
			<path class="st1" d="M314.6,183.4c0.6-0.9,1.6-1.3,2.7-1.3c2.3,0,3.8,1.7,3.8,4.4c0,2.6-1.4,4.3-3.7,4.3c-1.1,0-2-0.4-2.7-1.3
				v4.1h-1.8v-11.3h1.7V183.4L314.6,183.4z M314.6,186.4c0,1.8,0.9,2.9,2.3,2.9s2.3-1.1,2.3-2.9c0-1.8-0.9-2.9-2.3-2.9
				S314.6,184.6,314.6,186.4z"/>
			<path class="st1" d="M323.8,190.5v-8.3h1.8v3.2h3.6v-3.2h1.8v8.3h-1.8v-3.6h-3.6v3.6H323.8z"/>
			<path class="st1" d="M336.4,190.5h-2.2v-2.2h2.2V190.5z"/>
		</g>
	</g>
	<g>
		<g>
			<path class="st0" d="M156.2,55.8v-9.3h2.1v3.6h4.1v-3.6h2.1v9.3h-2.1v-4h-4.1v4H156.2z"/>
			<path class="st0" d="M171.8,46.2c2.2,0,3.8,0.8,3.8,2.8v4.7c0,0.5,0.1,0.7,0.5,0.7c0.1,0,0.2,0,0.5,0v1.4
				c-0.6,0.2-0.9,0.2-1.3,0.2c-0.8,0-1.4-0.3-1.5-1.1c-0.9,0.8-2,1.1-3.3,1.1c-1.9,0-3.1-1.1-3.1-2.8c0-2.5,2.3-2.7,4.2-2.9
				c1.4-0.2,1.8-0.3,2-0.5c0.1-0.1,0.1-0.3,0.1-0.7c0-1-0.6-1.4-1.9-1.4c-1.3,0-1.9,0.5-2.1,1.7h-1.9
				C168,47.1,169.5,46.2,171.8,46.2z M171.5,51.7c-0.9,0.1-2,0.3-2,1.5c0,0.9,0.6,1.4,1.7,1.4c0.9,0,1.6-0.3,2.1-0.7
				c0.4-0.4,0.4-1,0.4-1.6v-1.1C173,51.5,172.2,51.6,171.5,51.7z"/>
			<path class="st0" d="M189.2,43.1c2.3,0,3.9,1.4,3.9,3.4c0,1.2-0.7,2.2-1.8,2.6c1.4,0.4,2.3,1.5,2.3,3c0,2.4-1.8,4.1-4.5,4.1
				s-4.4-1.7-4.4-4.1v-0.3h2c0.1,1.8,0.9,2.7,2.4,2.7c1.4,0,2.3-0.9,2.3-2.2c0-1.5-1.2-2.1-2.5-2.1c-0.2,0-0.3,0-0.6,0v-1.5h0.2
				c1.3,0,2.6-0.2,2.6-1.8c0-1.1-0.8-1.8-1.9-1.8c-1.3,0-2.1,0.9-2.1,2.5h-2C185.1,44.7,186.7,43.1,189.2,43.1z"/>
			<path class="st0" d="M202.9,55.8v-9.3h2.7l2.6,7.4l0,0l2.5-7.4h2.7v9.3h-2v-6.2l0,0l-2.2,6.2h-2.1l-2.2-6.2l0,0v6.2H202.9z"/>
			<path class="st0" d="M218.9,45h-2.1v-2h2.1V45z M218.9,55.8h-2.1v-9.3h2.1V55.8z"/>
			<path class="st0" d="M226.6,56.1c-2.8,0-4.6-2-4.6-4.8c0-3.1,1.8-5,4.6-5c2.4,0,3.9,1.3,4.1,3.4h-2c-0.2-1.2-1-1.8-2.1-1.8
				c-1.6,0-2.6,1.3-2.6,3.3s0.9,3.3,2.5,3.3c1.2,0,2-0.8,2.2-2.1h2C230.6,54.6,228.9,56.1,226.6,56.1z"/>
			<path class="st0" d="M236.3,55.8h-2.4v-2.4h2.4V55.8z"/>
		</g>
	</g>
	<g>
		<g>
			<path class="st0" d="M99,28.8h-5.3v-1.9H99V28.8z"/>
			<path class="st0" d="M109.7,22.1h-5l-0.6,3.2c0.7-0.7,1.4-0.9,2.4-0.9c2.3,0,3.9,1.7,3.9,4.1c0,2.7-1.8,4.5-4.5,4.5
				c-2.5,0-4.2-1.5-4.3-3.8h2c0.1,1.3,1,2.1,2.3,2.1c1.5,0,2.3-1,2.3-2.7s-0.9-2.6-2.4-2.6c-0.9,0-1.6,0.3-2.1,1.1h-1.8l1.2-6.8h6.5
				L109.7,22.1L109.7,22.1z"/>
			<path class="st0" d="M119.8,23.5c0,2.4-1,3.7-2.9,3.7S114,26,114,23.6c0-2.2,1.1-3.5,3-3.5C118.8,20.1,119.8,21.3,119.8,23.5z
				 M115.5,23.7c0,1.6,0.4,2.3,1.3,2.3c1.3,0,1.4-1.5,1.4-2.5c0-0.9-0.1-2.3-1.3-2.3C116,21.2,115.5,22,115.5,23.7z M118.4,33.4H117
				l7.1-13.6h1.4L118.4,33.4z M128.9,29.4c0,2.4-1,3.7-2.9,3.7s-2.9-1.2-2.9-3.6c0-2.2,1.1-3.5,3-3.5
				C127.9,26,128.9,27.2,128.9,29.4z M124.6,29.6c0,1.6,0.4,2.3,1.3,2.3c1.3,0,1.4-1.5,1.4-2.5c0-0.9-0.1-2.3-1.3-2.3
				C125,27.1,124.6,27.9,124.6,29.6z"/>
			<path class="st0" d="M139,32.8v-9.3h8.2v9.3h-2.1v-7.7H141v7.7H139z"/>
			<path class="st0" d="M152.5,24.8c0.6-1,1.8-1.5,3-1.5c2.6,0,4.2,1.9,4.2,4.9c0,2.9-1.6,4.8-4.1,4.8c-1.3,0-2.3-0.4-3-1.5v4.7h-2
				V23.5h1.9L152.5,24.8L152.5,24.8z M152.6,28.2c0,2,1,3.2,2.6,3.2s2.5-1.2,2.5-3.2s-1-3.3-2.6-3.3
				C153.5,24.9,152.6,26.1,152.6,28.2z"/>
			<path class="st0" d="M162.8,32.8v-9.3h2.1v6.8h0.1l3.5-6.8h2.6v9.3H169V26h-0.1l-3.5,6.8H162.8z"/>
			<path class="st0" d="M184.3,33.1c-2.7,0-4.1-1.2-4.2-3.2h2.1c0.2,1.3,1.2,1.6,2.1,1.6c1.1,0,1.9-0.5,1.9-1.4
				c0-0.8-0.4-1.4-1.8-1.4h-1.1v-1.5h0.8c1.1,0,1.9-0.3,1.9-1.2c0-0.7-0.5-1.2-1.7-1.2c-1.1,0-1.6,0.6-1.8,1.4h-2.1
				c0.2-2.4,2.2-3,4.1-3c1.9,0,3.5,0.7,3.5,2.5c0,1.1-0.7,1.8-1.5,2l0,0c0.9,0.2,1.8,0.9,1.8,2.3C188.3,32.1,186.3,33.1,184.3,33.1z
				"/>
			<path class="st0" d="M195.2,23.2c2.2,0,3.8,0.8,3.8,2.8v4.7c0,0.5,0.1,0.7,0.5,0.7c0.1,0,0.2,0,0.5,0v1.4
				c-0.6,0.2-0.9,0.2-1.3,0.2c-0.8,0-1.4-0.3-1.5-1.1c-0.9,0.8-2,1.1-3.3,1.1c-1.9,0-3.1-1.1-3.1-2.8c0-2.5,2.3-2.7,4.2-2.9
				c1.4-0.2,1.8-0.3,2-0.5c0.1-0.1,0.1-0.3,0.1-0.7c0-1-0.6-1.4-1.9-1.4c-1.3,0-1.9,0.5-2.1,1.7h-1.9
				C191.4,24.1,193,23.2,195.2,23.2z M194.9,28.7c-0.9,0.1-2,0.3-2,1.5c0,0.9,0.6,1.4,1.7,1.4c0.9,0,1.6-0.3,2.1-0.7
				c0.4-0.4,0.4-1,0.4-1.6v-1.1C196.4,28.5,195.7,28.6,194.9,28.7z"/>
			<path class="st0" d="M202.5,32.8v-9.3h2.7l2.6,7.4l0,0l2.5-7.4h2.7v9.3h-2v-6.2l0,0l-2.2,6.2h-2.1l-2.2-6.2l0,0v6.2H202.5z"/>
			<path class="st0" d="M225.4,28.2c0,3-1.8,4.9-4.6,4.9c-2.9,0-4.7-1.9-4.7-4.9s1.9-4.9,4.7-4.9C223.6,23.3,225.4,25.2,225.4,28.2z
				 M218.1,28.2c0,2.1,1,3.3,2.6,3.3s2.6-1.3,2.6-3.4c0-2-1-3.3-2.6-3.3S218.1,26.1,218.1,28.2z"/>
			<path class="st0" d="M233.3,32.8h-4.9v-9.3h5.1c1.7,0,2.8,0.8,2.8,2.3c0,1-0.4,1.5-1.3,2l0,0c1.2,0.3,1.8,1.1,1.8,2.4
				C236.7,31.9,235.5,32.8,233.3,32.8z M230.4,25.1v2.1h2.6c0.8,0,1.2-0.4,1.2-1.1s-0.4-1-1.2-1H230.4L230.4,25.1z M230.4,28.7v2.6
				h2.8c0.9,0,1.4-0.4,1.4-1.3c0-0.8-0.5-1.3-1.4-1.3C233.2,28.7,230.4,28.7,230.4,28.7z"/>
			<path class="st0" d="M245.5,32.8v-7.7h-2.8l-0.1,4.1c-0.1,2.4-1.1,3.8-2.8,3.8c-0.4,0-1-0.1-1.3-0.2v-1.6
				c0.1,0.1,0.5,0.1,0.7,0.1c0.6,0,1.2-0.4,1.3-2.3l0.2-5.5h6.9v9.3H245.5L245.5,32.8z"/>
			<path class="st0" d="M255,33.1c-2.9,0-4.6-2.1-4.6-4.8c0-2.9,1.9-5,4.5-5c2.7,0,4.4,2,4.4,5.2v0.2h-6.9c0.1,1.9,1,2.9,2.6,2.9
				c1.1,0,1.8-0.5,2.2-1.7h2C258.8,32,257.1,33.1,255,33.1z M254.9,24.8c-1.4,0-2.2,0.9-2.4,2.5h4.8
				C257.2,25.7,256.3,24.8,254.9,24.8z"/>
			<path class="st0" d="M262.2,32.8v-9.3h2v3.6h4.1v-3.6h2v9.3h-2v-4h-4.1v4H262.2z"/>
			<path class="st0" d="M273.8,32.8v-9.3h2v3.6h4.1v-3.6h2v9.3h-2v-4h-4.1v4H273.8z"/>
			<path class="st0" d="M287.5,22h-2v-2h2V22z M287.5,32.8h-2v-9.3h2V32.8z"/>
		</g>
	</g>
	<g>
		<g>
			<path class="st0" d="M77.4,235.4h-3.9l-2-5.5h-8.2l-2,5.5h-3.8l8-20.7h3.9L77.4,235.4z M67.5,218.5l-3.2,8.7h6.3L67.5,218.5z"/>
			<path class="st0" d="M93.1,218.1H85l-0.9,5.2c1.1-1.1,2.3-1.4,3.8-1.4c3.8,0,6.3,2.7,6.3,6.7c0,4.3-3,7.3-7.3,7.3
				c-4,0-6.7-2.4-6.9-6.2h3.3c0.2,2.1,1.6,3.4,3.7,3.4c2.4,0,3.8-1.6,3.8-4.4c0-2.7-1.4-4.3-3.8-4.3c-1.5,0-2.5,0.5-3.4,1.8
				l-2.9-0.1l1.9-11h10.5V218.1L93.1,218.1z"/>
			<path class="st0" d="M117.5,229H109v-3.1h8.5V229z"/>
			<path class="st1" d="M306.9,228.6v6.8h-1.8v-8.3h5.8v1.4L306.9,228.6L306.9,228.6z"/>
			<path class="st1" d="M314.7,228.3c0.6-0.9,1.6-1.3,2.7-1.3c2.3,0,3.8,1.7,3.8,4.4c0,2.6-1.4,4.3-3.7,4.3c-1.1,0-2-0.4-2.7-1.3
				v4.1H313v-11.3h1.7V228.3L314.7,228.3z M314.8,231.3c0,1.8,0.9,2.9,2.3,2.9s2.3-1.1,2.3-2.9c0-1.8-0.9-2.9-2.3-2.9
				C315.6,228.4,314.8,229.5,314.8,231.3z"/>
			<path class="st1" d="M323.9,235.4v-8.3h1.8v3.2h3.6v-3.2h1.8v8.3h-1.8v-3.6h-3.6v3.6H323.9z"/>
			<path class="st1" d="M336.5,235.4h-2.2v-2.2h2.2V235.4z"/>
		</g>
	</g>
	<path class="st1" d="M135.3,147c17.6-5.6,35-11.8,52.9-16.1c5.4-1.3,10.9-2.5,16.4-3.5c1.4-0.3,0.8-2.4-0.6-2.2
		c-18.2,3.4-35.8,8.7-53.4,14.5c-5.3,1.7-10.6,3.5-16,5.2C133.3,145.2,133.9,147.4,135.3,147L135.3,147z"/>
	<path class="st1" d="M136.8,132.8c18.3,1.2,36.6,1.7,54.8,4.1c5.6,0.7,11.1,1.6,16.6,2.7c1.4,0.3,2-1.9,0.6-2.2
		c-18.2-3.4-36.6-4.8-55.1-5.8c-5.6-0.3-11.3-0.6-16.9-1C135.3,130.5,135.3,132.7,136.8,132.8L136.8,132.8z"/>
	<path class="st1" d="M135.3,192c17.6-5.6,35-11.8,52.9-16.1c5.4-1.3,10.9-2.5,16.4-3.5c1.4-0.3,0.8-2.4-0.6-2.2
		c-18.2,3.4-35.8,8.7-53.4,14.5c-5.3,1.7-10.6,3.5-16,5.2C133.3,190.2,133.9,192.4,135.3,192L135.3,192z"/>
	<path class="st1" d="M136.8,177.8c18.3,1.2,36.6,1.7,54.8,4.1c5.6,0.7,11.1,1.6,16.6,2.7c1.4,0.3,2-1.9,0.6-2.2
		c-18.2-3.4-36.6-4.8-55.1-5.8c-5.6-0.3-11.3-0.6-16.9-1C135.3,175.5,135.3,177.7,136.8,177.8L136.8,177.8z"/>
	<path class="st1" d="M135.3,237c17.6-5.6,35-11.8,52.9-16.1c5.4-1.3,10.9-2.5,16.4-3.5c1.4-0.3,0.8-2.4-0.6-2.2
		c-18.2,3.4-35.8,8.7-53.4,14.5c-5.3,1.7-10.6,3.5-16,5.2C133.3,235.2,133.9,237.4,135.3,237L135.3,237z"/>
	<path class="st1" d="M136.8,222.8c18.3,1.2,36.6,1.7,54.8,4.1c5.6,0.7,11.1,1.6,16.6,2.7c1.4,0.3,2-1.9,0.6-2.2
		c-18.2-3.4-36.6-4.8-55.1-5.8c-5.6-0.3-11.3-0.6-16.9-1C135.3,220.5,135.3,222.7,136.8,222.8L136.8,222.8z"/>
</g>
<g>
	<path class="st1" d="M232,140.7c0.3,1.7,1.4,2.5,3.1,2.5c3.3,0,3.9-4.1,4.1-6.7c-1.2,1.7-2.6,2.6-4.8,2.6c-4.1,0-7.1-3.1-7.1-7.4
		c0-4.6,3.4-8,8-8c6.2,0,8.3,5.6,8.3,10.9c0,5.4-2.1,12-8.6,12c-4.1,0-6.9-2.3-7.4-6H232z M231.7,131.7c0,2.4,1.5,4.1,3.5,4.1
		c2,0,3.5-1.7,3.5-4c0-2.4-1.5-4.1-3.6-4.1C233.2,127.6,231.7,129.3,231.7,131.7z"/>
	<path class="st1" d="M258,146.4h-4.8v-14.5h-5.4v-3.3h0.6c3.1,0,5.3-1.2,5.9-4.5h3.7V146.4z"/>
	<path class="st1" d="M280.9,146.4h-16.3c0.1-5.2,2.8-7.1,6.9-9.8c2-1.3,4.8-2.8,4.8-5.5c0-1.9-1.3-3.2-3.2-3.2
		c-2.4,0-3.5,1.6-3.6,4.8h-4.3v-0.5c0-5.1,3.2-8.3,8.1-8.3c4.5,0,7.6,2.8,7.6,6.8c0,3.6-2,5.2-4.6,7c-1.9,1.3-4.5,2.8-5.8,4.7h10.5
		V146.4z"/>
	<path class="st1" d="M299.8,135.4c0,7.1-3.1,11.4-8.1,11.4c-5.2,0-8.3-4.2-8.3-11.4c0-5.3,1.9-11.4,8.2-11.4
		C298,123.9,299.8,130.1,299.8,135.4z M287.9,135.6c0,5.1,1.2,7.5,3.8,7.5c2.5,0,3.7-2.5,3.7-7.7c0-5.3-1.1-7.7-3.7-7.7
		C287.9,127.7,287.9,132.9,287.9,135.6z"/>
</g>
<g>
	<path class="st1" d="M239.7,175.9c-0.4-1.7-1.4-2.5-3-2.5c-2.5,0-3.9,2.1-4.2,6.6c1.2-1.7,2.9-2.5,5-2.5c4.1,0,7,3.1,7,7.4
		c0,4.6-3.3,7.9-7.9,7.9c-5.3,0-8.4-4.1-8.4-11.1c0-7.3,3.3-11.8,8.7-11.8c4,0,6.7,2.2,7.2,6H239.7z M232.9,185
		c0,2.4,1.5,4.1,3.5,4.1c2.1,0,3.6-1.8,3.6-4.1s-1.5-4.1-3.6-4.1C234.3,180.9,232.9,182.6,232.9,185z"/>
	<path class="st1" d="M247.3,175.9c0-3.5,3.2-6,7.5-6c4.3,0,7.5,2.5,7.5,6c0,2.3-1.1,3.9-3.2,4.6c2.6,0.6,4.2,2.7,4.2,5.4
		c0,4.1-3.3,6.8-8.4,6.8c-5.1,0-8.4-2.7-8.4-6.8c0-2.8,1.6-4.8,4.2-5.4C248.5,179.8,247.3,178.2,247.3,175.9z M251,185.7
		c0,2.2,1.6,3.6,3.9,3.6c2.3,0,3.9-1.4,3.9-3.6c0-2.1-1.6-3.6-4-3.6C252.5,182.2,251,183.6,251,185.7z M251.5,176.2
		c0,1.8,1.3,3,3.4,3c2.1,0,3.4-1.2,3.4-3c0-1.8-1.3-2.9-3.4-2.9C252.8,173.3,251.5,174.5,251.5,176.2z"/>
	<path class="st1" d="M281.8,187.3h-3v5.1h-4.2v-5.1H265v-4.2l9.7-13.1h4.1v13.5h3V187.3z M274.6,175.2l-5.9,8.3h5.9V175.2z"/>
	<path class="st1" d="M300.3,181.4c0,7.1-3.1,11.4-8.1,11.4c-5.2,0-8.3-4.2-8.3-11.4c0-5.3,1.9-11.4,8.2-11.4
		C298.6,170,300.3,176.2,300.3,181.4z M288.4,181.6c0,5.1,1.2,7.5,3.8,7.5c2.5,0,3.7-2.5,3.7-7.7c0-5.3-1.1-7.7-3.7-7.7
		C288.4,173.7,288.4,179,288.4,181.6z"/>
</g>
<g>
	<path class="st1" d="M244.5,230.3h-3v5.1h-4.2v-5.1h-9.6v-4.2l9.7-13.1h4.1v13.5h3V230.3z M237.3,218.2l-5.9,8.3h5.9V218.2z"/>
	<path class="st1" d="M261.6,217.1h-9.1l-0.9,4.8c1.1-1.1,2.3-1.6,4.1-1.6c4.3,0,7.1,2.9,7.1,7.3c0,4.7-3.5,8-8.4,8
		c-4.5,0-7.9-2.4-8.1-6.9h4.5c0.2,1.9,1.7,3.3,3.7,3.3c2.3,0,3.9-1.8,3.9-4.3s-1.5-4.1-3.9-4.1c-1.5,0-2.5,0.5-3.3,1.8h-4l2.2-12.3
		h12.5V217.1z"/>
	<path class="st1" d="M277,218.9c-0.4-1.7-1.4-2.5-3-2.5c-2.5,0-3.9,2.1-4.2,6.6c1.2-1.7,2.9-2.5,5-2.5c4.1,0,7,3.1,7,7.4
		c0,4.6-3.3,7.9-7.9,7.9c-5.3,0-8.4-4.1-8.4-11.1c0-7.3,3.3-11.8,8.7-11.8c4,0,6.7,2.2,7.2,6H277z M270.2,228c0,2.4,1.5,4.1,3.5,4.1
		c2.1,0,3.6-1.8,3.6-4.1s-1.5-4.1-3.6-4.1C271.7,223.9,270.2,225.6,270.2,228z"/>
	<path class="st1" d="M300.3,224.4c0,7.1-3.1,11.4-8.1,11.4c-5.2,0-8.3-4.2-8.3-11.4c0-5.3,1.9-11.4,8.2-11.4
		C298.6,213,300.3,219.2,300.3,224.4z M288.4,224.6c0,5.1,1.2,7.5,3.8,7.5c2.5,0,3.7-2.5,3.7-7.7c0-5.3-1.1-7.7-3.7-7.7
		C288.4,216.7,288.4,222,288.4,224.6z"/>
</g>
</svg>
