<?xml version="1.0" encoding="utf-8"?>
<!-- Generator: Adobe Illustrator 24.3.0, SVG Export Plug-In . SVG Version: 6.00 Build 0)  -->
<svg version="1.1" id="Слой_1" xmlns="http://www.w3.org/2000/svg" xmlns:xlink="http://www.w3.org/1999/xlink" x="0px" y="0px"
	 viewBox="0 0 556 424" style="enable-background:new 0 0 556 424;" xml:space="preserve">
<style type="text/css">
	.st0{fill:#878787;}
	.st1{fill:#128CB9;}
	.st2{fill:none;stroke:#878787;stroke-width:8.7722;stroke-miterlimit:10;}
	.st3{fill:none;stroke:#878787;stroke-width:0.8224;stroke-miterlimit:10;}
	.st4{fill:none;stroke:#878787;stroke-width:1.0965;stroke-miterlimit:10;}
	.st5{fill:none;stroke:#878787;stroke-width:2.1931;stroke-miterlimit:10;}
	.st6{fill:none;stroke:#878787;stroke-width:3.2896;stroke-miterlimit:10;}
</style>
<g>
	<rect x="189.97" y="147.62" class="st2" width="174.3" height="128.75"/>
	<g>
		<polygon class="st0" points="360.73,144.95 453.97,41.13 470.75,57.91 366.93,151.16 		"/>
	</g>
	<g>
		<polygon class="st0" points="366.93,272.39 471.54,364.84 453.18,383.21 360.73,278.59 		"/>
	</g>
	<g>
		<polygon class="st0" points="194.82,278.59 101.86,382.69 84.52,365.36 188.62,272.39 		"/>
	</g>
	<g>
		<polygon class="st0" points="188.62,151.16 84.46,58.25 101.92,40.79 194.82,144.95 		"/>
	</g>
	<path class="st1" d="M311.55,239.41h-68.87c-3.82,0-6.91-3.09-6.91-6.91v-41c0-3.82,3.09-6.91,6.91-6.91h68.87
		c3.82,0,6.91,3.09,6.91,6.91v41C318.46,236.31,315.37,239.41,311.55,239.41z"/>
	<path class="st3" d="M349.48,307.39H204.76c-25.74,0-46.61-20.87-46.61-46.61v-97.57c0-25.74,20.87-46.61,46.61-46.61h144.72
		c25.74,0,46.61,20.87,46.61,46.61v97.57C396.09,286.52,375.22,307.39,349.48,307.39z"/>
	<path class="st4" d="M367.19,321.59H187.05c-25.74,0-46.61-20.87-46.61-46.61V149.01c0-25.74,20.87-46.61,46.61-46.61h180.14
		c25.74,0,46.61,20.87,46.61,46.61v125.97C413.8,300.72,392.93,321.59,367.19,321.59z"/>
	<path class="st5" d="M387.99,338.27H166.24c-25.74,0-46.61-20.87-46.61-46.61V132.33c0-25.74,20.87-46.61,46.61-46.61h221.75
		c25.74,0,46.61,20.87,46.61,46.61v159.34C434.6,317.4,413.74,338.27,387.99,338.27z"/>
	<path class="st6" d="M419.93,363.88H134.3c-25.74,0-46.61-20.87-46.61-46.61V106.71c0-25.74,20.87-46.61,46.61-46.61h285.63
		c25.74,0,46.61,20.87,46.61,46.61v210.56C466.54,343.02,445.68,363.88,419.93,363.88z"/>
</g>
</svg>
