<?xml version="1.0" encoding="utf-8"?>
<!-- Generator: Adobe Illustrator 24.3.0, SVG Export Plug-In . SVG Version: 6.00 Build 0)  -->
<svg version="1.1" id="Слой_1" xmlns="http://www.w3.org/2000/svg" xmlns:xlink="http://www.w3.org/1999/xlink" x="0px" y="0px"
	 viewBox="0 0 556 424" style="enable-background:new 0 0 556 424;" xml:space="preserve">
<style type="text/css">
	.st0{fill:#878787;}
	.st1{fill:#128CB9;}
	.st2{fill:none;stroke:#878787;stroke-width:8.7722;stroke-miterlimit:10;}
	.st3{fill:none;stroke:#878787;stroke-width:0.8224;stroke-miterlimit:10;}
	.st4{fill:none;stroke:#878787;stroke-width:1.0965;stroke-miterlimit:10;}
	.st5{fill:none;stroke:#878787;stroke-width:2.1931;stroke-miterlimit:10;}
	.st6{fill:none;stroke:#878787;stroke-width:3.2896;stroke-miterlimit:10;}
</style>
<g>
	<g>
		<g>
			<path class="st0" d="M121.82,171.32l6.73,8.56l0.74,0.95l0.96,1.23c4.81-25.75,15.7-49.36,31.14-69.32
				c-5.13,9.9-7.36,20.28-6.49,30.62c-10.51,12.17-18.55,25.69-23.54,40.11l3.16,4.04c5-12.91,12.3-25.25,21.56-36.58
				c3.35,14.59,12.81,28.8,28.53,41.02c-6.63,12.87-11.97,26.07-15.86,39.2l8.82,11.26c3.62-14.74,8.9-29.7,15.66-44.38
				c17.49,11.25,38.88,18.85,61.63,22.72c-3.18,20.86-5.52,41.63-6.77,61.11c-1.72-0.29-3.42-0.66-5.12-0.98
				c1.68,0.65,3.37,1.3,5.06,1.94c4.64,1.75,9.3,3.43,13.96,5.04c5.47,1.89,10.96,3.7,16.44,5.4c22.6,1.06,45.52-0.78,67.16-5.65
				c0.44,7.33,0.65,14.45,0.62,21.28c0,0.12,0,0.22,0,0.31c4.64,0.73,9.21,1.34,13.75,1.88c0.05-1.9,0.11-3.79,0.12-5.77
				c0.01-6.83-0.25-13.94-0.8-21.24c14.18-4.14,27.64-9.65,39.86-16.54c10.29-5.78,19.13-12.21,26.45-19.11
				c1.08,7.02,1.65,13.98,1.62,20.81c-0.05,10.9-1.51,20.91-4.29,29.9c-5.34,5-11.47,9.74-18.38,14.17
				c1.36-0.04,2.76-0.01,4.09-0.07c0.92-0.04,1.78-0.12,2.7-0.17c3.37-2.57,6.57-5.2,9.48-7.92c-1.04,2.6-2.18,5.1-3.42,7.51
				c0.05,0,0.09-0.01,0.13-0.02c0.92-0.07,1.79-0.2,2.69-0.29c4.06-0.41,8-0.93,11.77-1.58c19.55-28.04,31.07-62.07,31.07-98.77
				c0-95.42-77.64-173.05-173.07-173.05c-32.43,0-62.79,8.99-88.76,24.57l3.27,0.26l-25.72,15.77
				C151,102.93,130.64,134.89,121.82,171.32z M169.24,103.32c3.68-4.08,7.54-7.98,11.62-11.68c10.24-6.73,22.19-11.53,35.49-14.11
				c-6.58,8.11-9.54,17.14-8.77,26.09c-18.32,8.93-34.39,20.48-47.35,33.91C159.24,125.9,162.32,114.23,169.24,103.32z
				 M188.77,184.21c-15.11-11.74-24.2-25.39-27.41-39.4c12.83-14.16,28.78-26.6,46.91-36.56c2.05,8.94,7.86,17.62,17.47,25.1
				C211.45,148.83,198.9,166.14,188.77,184.21z M256.29,211.87c-21.86-3.71-42.42-11.01-59.24-21.82
				c9.31-18.64,20.83-36.66,33.96-52.98c10.71,6.88,23.79,11.52,37.7,13.89C263.91,170.34,259.69,191.06,256.29,211.87z
				 M275.96,151.97c14.18,1.58,28.94,0.85,42.68-2.24c6.23,19.1,11.68,39.58,16.07,60.2c-21.6,4.86-44.75,6.01-67.05,3.53
				C269.94,192.49,272.76,171.59,275.96,151.97z M262.15,283.83c0.86-19.54,2.43-40.43,4.57-61.43c23.2,2.59,47.3,1.39,69.77-3.66
				c4.07,20.68,7.03,41.34,8.57,60.75C318.36,285.48,289.72,286.89,262.15,283.83z M325.61,147.94c7.23-2.12,14.08-4.92,20.32-8.42
				c5.24-2.95,9.75-6.24,13.48-9.74c15.24,14.7,28.58,31.32,39.33,48.82c-5.87,5.52-12.94,10.66-21.18,15.3
				c-9.78,5.51-20.55,9.92-31.91,13.24C340.19,186.77,333.39,166.66,325.61,147.94z M411.49,104.12c4.06,6.49,6.74,13.22,8.02,20.02
				c-12.8-12.1-28.72-21.98-46.87-29.04c-1.7-8.94-7.12-17.7-16.35-25.29c7.39,0.74,14.33,2.42,20.71,4.95
				C389.82,82.91,401.42,92.8,411.49,104.12z M420.36,131.4c0.63,14.06-4.56,28.16-15.46,40.78
				c-11.35-16.86-25.46-32.69-41.57-46.49c6.93-8.04,10.24-17.01,9.84-25.97C391.45,107.8,407.47,118.58,420.36,131.4z
				 M398.05,259.62c-12.1,6.82-25.41,12.26-39.44,16.38c-1.91-19.31-5.63-39.78-10.71-60.2c11.82-3.44,23.03-8.04,33.21-13.77
				c8.58-4.82,15.93-10.18,22.04-15.92c10.01,17.78,17.28,36.32,21.1,54.62C416.96,247.53,408.24,253.89,398.05,259.62z
				 M409.56,179.43c11.34-13.14,16.75-27.81,16.09-42.45c9.68,10.81,17.19,22.9,22.14,35.87c1.31,5.25,2.35,10.58,3.12,16
				c-0.88,15.22-7.28,30.28-19.08,43.93C427.82,214.73,420.14,196.62,409.56,179.43z M434.75,285.89c-1.34,1.81-2.72,3.62-4.26,5.4
				c2.95-9.15,4.51-19.23,4.54-30.16c0.02-6.84-0.56-13.76-1.71-20.7c10.82-12.52,17.05-26.22,18.8-40.13
				c0.28,3.87,0.47,7.76,0.47,11.7C452.59,238.6,446.12,263.7,434.75,285.89z M440.82,151.38c-4.36-7.85-9.74-15.21-16.05-21.95
				c-1.02-5.43-2.95-10.83-5.68-16.1C427.95,124.89,435.28,137.67,440.82,151.38z M296.25,80.37c0.15,0.11,0.3,0.21,0.43,0.32
				c19.14-8.16,37.21-11.78,53.34-11.29c8.36,6.86,13.28,14.79,14.79,22.88c-20.11-6.69-42.67-10-66.56-9.18
				c0.03,0.14,0.05,0.29,0.05,0.44c24.05,0.51,46.75,5.1,67,12.92c0.37,8.09-2.62,16.24-8.91,23.5
				c-17.83-14.18-37.85-25.89-59.03-33.93c-0.12,0.13-0.23,0.26-0.37,0.38c20.05,9.24,38.98,22.07,55.87,37.24
				c-3.41,3.18-7.46,6.14-12.2,8.82c-5.63,3.18-11.84,5.7-18.38,7.61c-8.61-19.62-18.28-37.41-28.51-51.93
				c-0.22,0.08-0.45,0.12-0.66,0.17c8.21,15.04,15.96,33.33,22.86,53.39c-12.44,2.79-25.78,3.45-38.62,2.02
				c3.54-20.61,7.49-39.52,11.68-55.2c-0.24-0.03-0.46-0.06-0.71-0.1c-6.27,15.38-12.2,34.02-17.53,54.38
				c-12.59-2.14-24.43-6.35-34.13-12.57c14.57-16.96,30.83-31.79,48.04-43.14c-0.04-0.04-0.13-0.09-0.2-0.14
				c-0.09-0.06-0.19-0.14-0.29-0.22c-18.75,10.28-36.47,24.07-52.32,40.13c-8.7-6.76-13.93-14.62-15.79-22.71
				c20.12-9.9,42.64-16.83,66.44-19.82c-0.02-0.15-0.05-0.29-0.08-0.44c-24.03,1.64-46.74,7.31-67.02,16.07
				c-0.68-8.1,2-16.25,7.96-23.6c18.14-2.39,38.43-0.88,59.91,5.04c0.1-0.13,0.21-0.27,0.35-0.4c-20.4-7.12-39.68-9.74-56.89-8.36
				c3.59-3.56,7.99-6.87,13.25-9.82c5.14-2.9,10.72-5.26,16.65-7.11c9.12,3.21,19.33,10.96,30.14,23.51
				c0.21-0.07,0.44-0.13,0.67-0.19c-8.79-13.1-17.12-21.38-24.56-25.05c12.36-3,25.67-3.86,38.56-2.64
				c-2.99,4.39-6.35,13.46-9.92,27.41c0.23,0.03,0.47,0.06,0.7,0.1c5.68-13.69,11.06-22.52,15.83-26.69
				c13.75,2.11,26.69,6.66,37.03,13.59c1.95-0.06,3.88-0.06,5.75,0.04c-11.43-7.66-25.73-12.7-40.93-15.02
				c0.07-0.03,0.11-0.03,0.17-0.07c20.59,2.55,40.02,8.92,57.51,18.46C348.01,63.26,323.3,66.5,296.25,80.37z M278.21,49.91
				c-6.17,0.55-12.29,1.45-18.18,2.89c-0.4-0.14-0.81-0.23-1.22-0.34C265.15,51.23,271.63,50.39,278.21,49.91z M250.58,54.3
				c0.84,0.11,1.68,0.22,2.53,0.42c-6.52,2.04-12.72,4.65-18.38,7.84c-5.81,3.28-10.7,6.93-14.65,10.87
				c-10.08,1.46-19.36,4.4-27.65,8.65C209.51,69.21,229.21,59.63,250.58,54.3z"/>
			<path class="st0" d="M344.42,365.17c4.75-4.51,8.59-11.64,11.27-21.35c-3.95-0.57-7.97-1.27-11.97-1.95
				c-3.67-0.62-7.35-1.3-11.06-2.01c-23.01,3.94-47.12,4.6-70.45,2.01c-0.41-6.09-0.65-12.97-0.74-20.64
				c-4.8-1.58-9.6-3.26-14.39-4.96c0.09,8.84,0.48,16.77,1.18,23.64c-26.79-4.55-52-13.51-72.62-26.76
				c-2.3-8.65-3.52-18.41-3.5-29.25c-1.64-0.83-3.27-1.71-4.9-2.57l-5.45-0.52c0.3,9.13,1.53,17.58,3.71,25.18
				c-8.3-6.46-15.11-13.38-20.46-20.61c-1.09-2.13-2.14-4.29-3.13-6.49l-1.28-0.12l-1.2-0.12l-9.46-0.91
				c25.95,62.9,87.9,107.29,160.05,107.29c40.44,0,77.66-13.98,107.16-37.31c-5.34-0.23-10.73-0.58-16.22-1.05
				C369.7,354.32,357.45,360.54,344.42,365.17z M343.54,342.99c-2.27,12.28-5.87,20.89-10.51,25.65
				c-21.03,4.73-43.57,5.83-65.26,3.41c-2.3-4.39-4.07-12.72-5.13-24.82C289.52,350.22,317.49,348.84,343.54,342.99z M248.9,345.31
				c1.65,12.18,4.3,20.64,7.79,25.21c-4.57-0.78-9.09-1.76-13.53-2.86c-20.52-6.2-39.35-16.34-55.59-29.55
				c-4.17-5.42-7.61-11.79-10.15-19.14C197.72,332.02,222.53,340.83,248.9,345.31z M151.15,296.46c4.58,5.36,9.96,10.56,16.27,15.46
				c2.02,5.49,4.63,10.4,7.61,14.9C165.93,317.7,157.9,307.51,151.15,296.46z"/>
		</g>
		<g>
			<path class="st1" d="M503.65,232.14l5.71-10.22l7.62-13.65l-52-33.24c0,0,0,0.01,0,0.01c5.92,12.78,10.05,27.65,12.92,41.63
				c0,0.03,0,0.05,0,0.09c0.01,0.01,0.01,0.02,0.03,0.03c5.44,26.57,6.35,49.96,6.35,49.96l9.66-17.28
				c8.11,29.59-4.45,53.46-36.29,65.31c-4.41,1.67-9.25,3.09-14.32,4.3c-6.69,1.6-13.61,2.88-20.69,3.91
				c-4.08,0.61-8.22,1.11-12.44,1.54c-0.21,0.02-0.43,0.06-0.65,0.07c-0.9,0.09-1.8,0.18-2.71,0.27c-5.12,0.44-10.35,0.7-15.64,0.85
				c-3.48,0.11-7,0.18-10.55,0.15c-7.05-0.04-14.26-0.38-21.58-0.95c-4.38-0.34-8.81-0.79-13.29-1.32
				c-26.67-3.19-54.89-9.92-84.24-20.62c-4.7-1.73-9.44-3.57-14.21-5.49c-8.12-3.28-16.27-6.79-24.53-10.7l-18.99,0.88
				c14.07,6.99,28.6,13.23,43.3,18.84c4.77,1.81,9.54,3.55,14.34,5.22c27.87,9.67,56.19,16.8,83.51,21.2
				c4.27,0.69,8.54,1.37,12.74,1.92c3.4,0.45,6.75,0.78,10.11,1.13c8.46,0.91,16.78,1.58,24.91,1.93
				c5.26,0.21,10.43,0.32,15.51,0.29c19.79-0.07,38.16-1.94,54.29-5.76c5.67-1.35,11-2.98,15.92-4.82
				C525,310.29,531.62,273.67,503.65,232.14z"/>
			<path class="st1" d="M135.12,267.82l2.28,0.21l7.29,0.71l17.21,1.67l8.47,0.81h0.01l2.33,0.23l15.36,1.47l-2.66-3.39l-4.44-5.65
				l-6.26-8l-9.3-11.85l-1.42-1.82l-32.88-41.94l-0.53-0.68l-2.4-3.04l-0.33-0.44l-0.3-0.39l-3.97-5.05l-3.12,20.76l-1.81,12.06v0
				c-0.48-0.38-0.89-0.76-1.36-1.14c-2.83-2.28-5.62-4.57-8.23-6.86C50.58,164.44,43.37,113.88,98.36,93.4
				c4.42-1.66,9.25-3.09,14.33-4.31c12.02-2.84,25.53-4.33,40.06-4.64c4.7-3.47,11.34-8.16,19.01-12.86
				c-29.21-2.31-55.98-1.12-78.26,4.16c-5.69,1.35-11.06,2.94-15.98,4.78c-66.41,24.78-51.5,88.79,29.24,150.38
				c3.12,2.38,6.39,4.76,9.71,7.14v0.01l-1.74,11.55l-2.41,16l13.62,1.32l9.14,0.88L135.12,267.82z"/>
		</g>
	</g>
</g>
</svg>
