<?xml version="1.0" encoding="utf-8"?>
<!-- Generator: Adobe Illustrator 24.3.0, SVG Export Plug-In . SVG Version: 6.00 Build 0)  -->
<svg version="1.1" id="Слой_1" xmlns="http://www.w3.org/2000/svg" xmlns:xlink="http://www.w3.org/1999/xlink" x="0px" y="0px"
	 viewBox="0 0 556 424" style="enable-background:new 0 0 556 424;" xml:space="preserve">
<style type="text/css">
	.st0{fill:#878787;}
	.st1{fill:#128CB9;}
	.st2{fill:none;stroke:#878787;stroke-width:8.7722;stroke-miterlimit:10;}
	.st3{fill:none;stroke:#878787;stroke-width:0.8224;stroke-miterlimit:10;}
	.st4{fill:none;stroke:#878787;stroke-width:1.0965;stroke-miterlimit:10;}
	.st5{fill:none;stroke:#878787;stroke-width:2.1931;stroke-miterlimit:10;}
	.st6{fill:none;stroke:#878787;stroke-width:3.2896;stroke-miterlimit:10;}
</style>
<g>
	<path class="st0" d="M249.74,224.35c-12.38,0.31-22.17-2.67-30.57-9.84c-8.49-7.24-9.95-16.73-2.62-24.95
		c13.63-15.28,27.37-30.51,41.97-44.85c12.14-11.93,27.33-15.35,44.08-11.23c16.9,4.16,33.94,7.76,50.74,12.29
		c8.99,2.42,17.48,2.99,26.24-0.46c4.03-1.59,8.3-2.65,12.55-3.53c5.25-1.09,7.7-3.25,7.17-9.32c-0.6-6.96,3.23-12.42,9.78-15.08
		c14.94-6.07,29.9-12.12,45.07-17.56c9.74-3.49,17.95,0.16,22.05,9.86c12.26,29,24.09,58.18,36.06,87.3
		c1.67,4.07,2.46,8.54-2.43,10.59c-5.44,2.28-7.81-2.05-9.55-6.25c-11.23-27.21-22.58-54.38-33.46-81.73
		c-2.79-7-6.3-9.06-13.38-6.12c-11.58,4.82-23.32,9.25-35.08,13.6c-5.82,2.16-7.22,5.51-4.91,11.29
		c17.1,42.78,34.1,85.6,51.01,128.45c2.05,5.18,4.9,6.49,10.06,4.3c12.96-5.5,25.98-10.85,39.09-16c5.2-2.04,6.52-5.28,4.57-10.23
		c-1.41-3.57-2.92-7.1-4.28-10.69c-1.38-3.63-0.48-6.73,3.04-8.43c3.66-1.77,6.67-0.17,8.23,3.27c2.43,5.34,5.04,10.73,6.49,16.38
		c2.23,8.64-1.26,15.93-9.57,19.57c-15.47,6.77-31.16,13.07-46.85,19.31c-7.39,2.94-13.99,0.35-18.46-5.56
		c-3.38-4.46-6.49-5.77-11.62-3.84c-4.21,1.58-9.18,2.57-10.89-3.17c-1.85-6.22,3.23-8.03,7.84-8.99c5.3-1.11,5.8-3.62,3.97-8.18
		c-12.85-32.08-25.63-64.18-38.23-96.35c-2.14-5.45-5.16-7.21-10.55-4.8c-20.74,9.26-41.5,7.94-62.7,1.14
		c-12.15-3.9-24.85-6.07-37.3-9c-11.08-2.61-21.21-0.11-29.1,7.75c-13.78,13.73-26.85,28.16-40.26,42.26
		c-4.05,4.25-3,7.56,1.45,10.69c11.2,7.89,27.89,7.05,39.44-1.97c9.28-7.25,18.67-14.35,28.01-21.52c3.53-2.71,7.4-4.56,10.76-0.29
		c3.41,4.34,0.55,7.58-2.99,10.27c-10.8,8.21-21.5,16.56-32.47,24.54C265.11,222.37,257.09,224.88,249.74,224.35z"/>
	<path class="st0" d="M238.5,144.19c-7.48-0.64-14.11,1.69-20.39,5.55c-9.38,5.77-19,11.16-28.21,17.18
		c-5.36,3.5-10,3.53-15.69,0.69c-17.09-8.52-16.98-8.22-25.42,9.03c-12.72,25.98-25.5,51.94-38.85,77.6
		c-3.67,7.06-2.25,10.54,4.44,13.51c3.25,1.44,6.21,3.58,9.17,5.59c3.08,2.09,4.75,4.95,2.56,8.51c-2.29,3.71-5.66,4-9.34,1.99
		c-1.12-0.61-2.25-1.24-3.29-1.98c-6.6-4.65-12.5-8.78-19.99-0.17c-4,4.6-11.05,3.62-16.64,0.88c-14.49-7.1-28.97-14.22-43.2-21.81
		c-9.82-5.24-12.38-14.11-7.7-24.21c1.83-3.94,3.92-7.78,6.11-11.53c1.96-3.37,4.78-5.8,8.83-3.65c4.31,2.27,4.14,6.05,2.2,9.93
		c-1.49,2.97-3.13,5.88-4.66,8.83c-2.45,4.7-1.6,8.24,3.4,10.71c12.62,6.25,25.2,12.6,37.74,18.99c4.88,2.49,8.12,1.33,10.55-3.62
		c20.44-41.58,40.95-83.13,61.51-124.66c2.32-4.68,1.22-7.75-3.37-9.95c-12.7-6.07-25.41-12.16-38.06-18.33
		c-5.76-2.81-7.74,1.03-9.83,5.15c-12.9,25.33-25.77,50.67-38.83,75.91c-2.54,4.91-4.45,13.33-11.94,9.68
		c-7.9-3.85-1.72-10.24,0.71-15.08c12.87-25.63,25.96-51.15,38.97-76.7c6.85-13.45,14.67-16.12,28.12-9.63
		c12.22,5.9,24.49,11.7,36.66,17.7c10.78,5.31,13.79,11.63,10.66,22.98c-0.94,3.41-0.24,4.96,2.7,6.75
		c8.66,5.28,16.68,7.74,25.82,0.2c6.25-5.16,13.88-8.66,20.91-12.86c8.67-5.18,18.12-6.83,28.07-6c4.59,0.39,9.43,1.5,9.2,7.08
		c-0.24,5.87-5.3,5.93-9.86,5.74C240.54,144.15,239.51,144.19,238.5,144.19z"/>
	<path class="st0" d="M366.82,345.54c-8.69-4.93-12.39,1.03-16.72,9.07c-4.88,9.06-16.51,12.48-26.93,9.35
		c-4.42-1.33-6.43-1.26-8.58,3.56c-7.15,16.09-23.03,20.9-38.28,12.16c-3.99-2.29-7.95-4.67-11.73-7.3
		c-3.01-2.09-4.58-5.05-2.28-8.57c2.18-3.34,5.34-3.75,8.72-1.85c4.24,2.38,8.29,5.11,12.62,7.3c6.86,3.47,13.7,1.82,17.75-3.91
		c4.02-5.68,3.28-12.72-2.53-17.92c-6.1-5.45-12.61-10.45-18.98-15.59c-3.78-3.04-7.7-6.48-3.73-11.41
		c4.24-5.27,8.29-1.09,11.81,1.71c10.61,8.45,21.02,17.16,31.67,25.56c7.97,6.29,15.46,6.07,20.33-0.18
		c4.79-6.14,2.52-14.34-5.55-20.22c-8.69-6.33-17.38-12.67-26.05-19.02c-3.34-2.44-6.07-5.5-3.35-9.66c3-4.59,7.11-3.09,10.7-0.51
		c12.27,8.81,24.46,17.73,36.67,26.61c2.28,1.66,4.47,3.44,6.84,4.95c7.08,4.51,14.97,3.54,19.32-2.26
		c3.97-5.3,3.07-13.58-2.81-18.65c-9.88-8.52-20.15-16.6-30.25-24.87c-1.58-1.3-3.22-2.55-4.69-3.96c-2.65-2.54-4.03-5.53-1.45-8.82
		c2.78-3.54,6.19-3.21,9.43-0.63c10.42,8.28,20.78,16.65,31.16,24.98c2.99,2.4,5.87,4.97,9.01,7.17c8.71,6.11,19.18,4.87,25.51-2.86
		c5.99-7.31,5.55-18.04-2.07-24.97c-12.68-11.54-25.89-22.49-38.89-33.67c-17.27-14.84-34.54-29.68-51.83-44.49
		c-3.54-3.03-6.82-6.4-2.79-10.9c3.62-4.04,7.4-1.74,10.74,1.12c29.52,25.33,59,50.71,88.57,75.98c11.19,9.56,16.2,21.12,11.16,35.5
		c-4.87,13.92-15.46,20.55-29.91,21c-4.42,0.14-5.26,2.47-6.2,6.08C390.11,337.47,379.98,345.37,366.82,345.54z"/>
	<path class="st0" d="M149.12,272.61c9.37,0.06,15.62,3.32,19.54,9.91c2.39,4.02,5.02,5.81,9.76,5.52
		c8.72-0.53,15.37,3.61,19.78,10.88c2.21,3.65,4.67,4.54,8.77,4.19c11.83-0.99,20.49,4.4,24.51,15.43c1.49,4.09,3.27,5.96,7.78,6.82
		c18.49,3.51,25.62,22.23,14.62,37.62c-3.12,4.37-6.16,8.84-9.72,12.83c-10.86,12.15-26.33,11.7-36.16-1.37
		c-3.04-4.04-5.7-5.21-10.72-4.61c-11.68,1.39-21.97-6.17-25.13-18.02c-0.96-3.61-1.87-5.8-6.14-6.24
		c-9.32-0.98-15.47-6.53-18.25-15.31c-1.25-3.95-3.05-5.54-7.24-6.34c-15.91-3-23.02-19.31-14.32-33.02
		C131.92,281.86,137.81,272.38,149.12,272.61z M208.97,315.66c-2.04,0.35-4.91,0.42-6.59,2.48c-6.14,7.53-12.59,14.94-16.98,23.61
		c-2.48,4.9-1.14,10.2,3.99,13.45c5.28,3.34,10.72,2.84,14.47-2.02c5.47-7.07,10.63-14.48,15-22.26
		C222.73,324.05,217.22,315.77,208.97,315.66z M227.64,371.19c0.75-0.18,2.58-0.09,3.63-0.95c6.77-5.58,12.11-12.42,14.91-20.73
		c1.3-3.85-1.02-7.47-4.48-9.75c-3.76-2.47-8.06-2.86-11.38,0.13c-5.69,5.12-10.51,11.26-13.06,18.5
		C214.77,365.46,219.65,371.39,227.64,371.19z M188.65,310.85c0.1-4.27-1.66-7.65-5.61-9.17c-4.28-1.64-8.85-1.53-12.01,2.25
		c-3.76,4.49-7.16,9.32-10.29,14.27c-2.42,3.83-1.79,7.94,1.01,11.44c2.95,3.7,7.1,3.83,11.22,2.76
		C177.81,331.14,188.62,316,188.65,310.85z M143.91,311.3c7.62-0.18,17.26-13.18,15.07-19.66c-1.62-4.78-5.35-6.63-10.24-5.84
		c-5.55,0.89-13.94,12.38-13.13,17.99C136.35,308.87,139.67,311.12,143.91,311.3z"/>
	<path class="st1" d="M284.44,68.26c0,7.15,0.08,14.3-0.03,21.45c-0.06,3.97-1.71,7.28-6.08,7.44c-4.42,0.16-6.42-3.14-6.47-7.04
		c-0.19-14.55-0.18-29.11-0.03-43.67c0.04-3.93,1.97-7.19,6.43-7.04c4.42,0.14,6.03,3.49,6.11,7.41c0.16,7.15,0.04,14.3,0.04,21.45
		C284.43,68.26,284.44,68.26,284.44,68.26z"/>
	<path class="st1" d="M205.84,52.75c2.85-0.2,4.77,1.48,6.6,3.31c9.56,9.54,19.13,19.07,28.65,28.64c3.11,3.13,5.31,6.81,1.68,10.69
		c-3.92,4.18-7.35,1.29-10.39-1.75c-9.91-9.91-19.82-19.82-29.69-29.76c-2.05-2.06-3.58-4.41-2.23-7.52
		C201.48,54.03,203.3,52.84,205.84,52.75z"/>
	<path class="st1" d="M317.45,97.36c-2.24-0.06-3.96-1.1-5.01-3.02c-1.53-2.8-1.06-5.58,1.01-7.82c3.81-4.13,7.81-8.09,11.78-12.08
		c6.14-6.16,12.26-12.34,18.49-18.41c3.19-3.11,7-5.05,10.72-1.21c3.62,3.74,1.03,7.04-1.83,9.91c-9.75,9.78-19.53,19.54-29.3,29.3
		C321.67,95.68,319.95,97.21,317.45,97.36z"/>
	<path class="st1" d="M74.29,248.96c-7.76,0.04-14.56-5.07-15.74-11.93c-0.67-3.86,0.23-7.29,3.97-9.08
		c3.89-1.86,6.36,0.47,7.95,3.73c2.87,5.87,5.17,4.46,7.58-0.32c1.36-2.69,3.52-4.69,6.74-3.74c3.39,1.01,4.41,3.9,4.52,7.23
		C89.54,242.47,82.71,248.92,74.29,248.96z"/>
	<path class="st1" d="M482.9,250.49c-8.59-0.06-15.13-6.26-15.58-14.66c-0.19-3.5,1.22-6.02,4.47-7.15c3.43-1.19,6.26,0.25,7.43,3.5
		c2.37,6.54,4.97,6.54,8.4,0.84c1.63-2.71,4.03-4.03,7.1-2.76c3.26,1.35,4.25,4.08,3.86,7.5
		C497.75,245.02,490.99,250.55,482.9,250.49z"/>
</g>
</svg>
