<?xml version="1.0" encoding="utf-8"?>
<!-- Generator: Adobe Illustrator 24.3.0, SVG Export Plug-In . SVG Version: 6.00 Build 0)  -->
<svg version="1.1" id="Слой_1" xmlns="http://www.w3.org/2000/svg" xmlns:xlink="http://www.w3.org/1999/xlink" x="0px" y="0px"
	 viewBox="0 0 556 424" style="enable-background:new 0 0 556 424;" xml:space="preserve">
<style type="text/css">
	.st0{fill:#878787;}
	.st1{fill:#128CB9;}
	.st2{fill:none;stroke:#878787;stroke-width:8.7722;stroke-miterlimit:10;}
	.st3{fill:none;stroke:#878787;stroke-width:0.8224;stroke-miterlimit:10;}
	.st4{fill:none;stroke:#878787;stroke-width:1.0965;stroke-miterlimit:10;}
	.st5{fill:none;stroke:#878787;stroke-width:2.1931;stroke-miterlimit:10;}
	.st6{fill:none;stroke:#878787;stroke-width:3.2896;stroke-miterlimit:10;}
</style>
<g>
	<g>
		<path class="st0" d="M314.88,209.9l-3.63,6.54l5.95-2.31C316.52,212.67,315.73,211.26,314.88,209.9z"/>
		<path class="st0" d="M339.14,77.5l-11.07,22.44l9.16,15.09l-66.38,119.46c-0.56,0.72-1.01,1.5-1.32,2.34l-0.02,0.09
			c-0.64,1.76-0.7,3.71-0.02,5.55c1.25,3.23,4.42,5.18,7.84,5.18c1.1,0,2.23-0.21,3.33-0.62c1.53-0.59,2.81-1.58,3.74-2.76
			l0.03,0.02l0.05-0.1c0.58-0.72,1.03-1.53,1.34-2.39l66.42-119.51l17.31-1.88l11.06-22.45l-17.28,1.87l4.14-8.43l17.43-1.88
			l11.08-22.45l-17.43,1.89l4.17-8.44l17.56-1.91l11.05-22.45l-17.54,1.9l0.47-0.95l-14.96-7.37l-0.41,0.82l-9.02-14.87
			l-11.08,22.45l9.04,14.87l-4.22,8.55l-9.1-14.97l-11.08,22.46l9.09,14.97l-4.21,8.55L339.14,77.5z"/>
		<path class="st1" d="M343.43,69.05l11.08-22.46l9.1,14.97l4.22-8.55l-9.04-14.87l11.08-22.45l9.02,14.87l0.41-0.82l14.96,7.37
			l-0.47,0.95l17.54-1.9L400.27,58.6l-17.56,1.91l-4.17,8.44l17.43-1.89L384.9,89.5l-17.43,1.88l-4.14,8.43l17.28-1.87l-11.06,22.45
			l-17.31,1.88l-66.42,119.51c-0.31,0.86-0.76,1.67-1.34,2.39l-0.05,0.1l-0.03-0.02c-0.93,1.19-2.21,2.17-3.74,2.76
			c-1.1,0.42-2.23,0.62-3.33,0.62c-3.42,0-6.59-1.95-7.84-5.18c-0.69-1.84-0.62-3.79,0.02-5.55l0.02-0.09
			c0.31-0.84,0.76-1.62,1.32-2.34l66.38-119.46l-9.16-15.09l11.07-22.44l9.18,15.08l4.21-8.55L343.43,69.05z"/>
	</g>
	<path class="st0" d="M447.46,181.39l-16.81,6.48c4.17,14.22,6.42,29.26,6.42,44.82c0,87.81-71.19,159-159,159s-159-71.19-159-159
		s71.19-159,159-159c16.81,0,33.01,2.62,48.22,7.45l3.97-8.04l4.38-8.88c-37.81-12.84-80.14-13.06-120.25,2.41
		c-90.91,35.08-136.36,137.59-101.26,228.52c35.06,90.93,137.6,136.38,228.5,101.3C428.12,363.09,473.39,268.76,447.46,181.39z"/>
	<path class="st0" d="M376.72,208.69l-8.96,3.46c1.51,6.61,2.31,13.49,2.31,20.56c0,50.81-41.19,92-92,92s-92-41.19-92-92
		c0-50.81,41.19-92,92-92c10.75,0,21.06,1.85,30.65,5.24l4.63-8.34c-22.48-8.41-47.95-9.06-72.05,0.24
		c-52.36,20.2-78.52,79.23-58.32,131.56c20.21,52.38,79.22,78.53,131.58,58.34C362.78,309.14,388.68,257.62,376.72,208.69z"/>
	<path class="st0" d="M321.38,230.03l-7.36,2.84c0.03,0.61,0.05,1.21,0.05,1.83c0,19.33-15.67,35-35,35s-35-15.67-35-35
		c0-19.25,15.54-34.87,34.77-34.99l5.51-9.91c-7.2-1.09-14.77-0.42-22.07,2.39c-22.42,8.65-33.6,33.83-24.94,56.26
		c8.65,22.43,33.84,33.59,56.25,24.94C311.76,266.39,322.53,248.5,321.38,230.03z"/>
	<path class="st0" d="M362.71,196.59l8.85-3.41c-6.2-14.65-15.54-27.07-26.86-36.92l-4.68,8.43
		C349.7,173.5,357.49,184.36,362.71,196.59z"/>
	<path class="st0" d="M425.25,172.46l16.87-6.51c-11.08-27.68-28.43-51.05-49.79-69.11l-0.96,1.93l-0.13,0.01l-1.74,3.56
		l-5.73,11.61C401.71,129.91,416,149.88,425.25,172.46z"/>
</g>
</svg>
